<svg xmlns="http://www.w3.org/2000/svg" width="24" height="24" fill="none"><g clip-path="url(#a)"><path fill="#D3D3D3" d="m15.704 13.725-3.066-1.514a.236.236 0 0 1 0-.422l3.066-1.514a25.682 25.682 0 0 0 6.754-4.833 2.842 2.842 0 0 0 .853-1.889A2.765 2.765 0 0 0 20.447.69a2.838 2.838 0 0 0-1.889.853 25.819 25.819 0 0 0-4.832 6.755l-1.515 3.066c-.084.173-.332.173-.421 0l-1.514-3.066a25.682 25.682 0 0 0-4.833-6.755C4.936 1.036 4.266.717 3.553.69A2.762 2.762 0 0 0 .69 3.553c.028.713.346 1.388.853 1.89a25.82 25.82 0 0 0 6.754 4.832l3.066 1.514c.173.084.173.333 0 .422l-3.066 1.514a25.682 25.682 0 0 0-6.754 4.833 2.842 2.842 0 0 0-.853 1.889 2.762 2.762 0 0 0 2.864 2.864 2.839 2.839 0 0 0 1.889-.853 25.821 25.821 0 0 0 4.832-6.755l1.514-3.066a.236.236 0 0 1 .422 0l1.514 3.066a25.68 25.68 0 0 0 4.833 6.755c.506.506 1.177.825 1.89.853a2.765 2.765 0 0 0 2.863-2.864 2.839 2.839 0 0 0-.853-1.89 25.683 25.683 0 0 0-6.754-4.832Z"/></g><defs><clipPath id="a"><path fill="#fff" d="M0 0h24v24H0z"/></clipPath></defs></svg>