<svg xmlns="http://www.w3.org/2000/svg" width="24" height="24" fill="none"><path fill="#D3D3D3" fill-rule="evenodd" d="M11.99 0c2.014 0 3.65 1.694 3.65 3.78a3.79 3.79 0 0 1-.946 2.534c-1.068 1.233-2.123 2.899-2.123 4.579v1.176l1.082-.364c1.527-.518 2.744-2.086 3.528-3.528a3.696 3.696 0 0 1 2.028-1.723c1.92-.644 3.976.435 4.611 2.409.622 1.988-.42 4.116-2.326 4.774a3.528 3.528 0 0 1-2.622-.14c-1.46-.672-3.326-1.19-4.868-.672l-1.081.364.676.938c.96 1.358 2.771 2.058 4.34 2.394.851.182 1.65.686 2.217 1.47 1.19 1.68.838 4.047-.784 5.279-1.623 1.232-3.908.868-5.097-.812a3.846 3.846 0 0 1-.69-2.618c.162-1.653.054-3.64-.906-4.999l-.676-.952-.676.952c-.96 1.358-1.068 3.346-.906 4.999a3.846 3.846 0 0 1-.69 2.618c-1.189 1.68-3.474 2.044-5.096.812-1.623-1.232-1.974-3.599-.785-5.279a3.627 3.627 0 0 1 2.218-1.47c1.568-.336 3.38-1.036 4.34-2.394l.676-.938-1.082-.364c-1.541-.518-3.407 0-4.867.672a3.528 3.528 0 0 1-2.623.14C.592 12.993-.449 10.851.186 8.863c.622-1.988 2.691-3.067 4.61-2.409a3.696 3.696 0 0 1 2.029 1.723c.798 1.442 2.001 2.996 3.542 3.528l1.082.364v-1.176c0-1.68-1.055-3.36-2.123-4.579A3.887 3.887 0 0 1 8.38 3.78C8.34 1.694 9.975 0 11.99 0Z" clip-rule="evenodd"/></svg>