<svg xmlns="http://www.w3.org/2000/svg" width="22" height="22" fill="none"><path fill="#000" d="M10.997 6.433a4.65 4.65 0 0 0-4.645 4.646 4.651 4.651 0 0 0 4.645 4.646 4.651 4.651 0 0 0 4.646-4.646 4.65 4.65 0 0 0-4.646-4.646Zm.286-2.597V.282a.282.282 0 0 0-.564 0v3.554a.282.282 0 0 0 .564 0Zm5.559.921-.978.978a.283.283 0 0 0 .399.399l.978-.979a.282.282 0 1 0-.399-.4v.002ZM5.732 15.866l-.978.979a.283.283 0 0 0 .4.399l.977-.979a.283.283 0 0 0 0-.399.289.289 0 0 0-.399 0Zm10.531 0a.283.283 0 0 0-.4.4l.978.977c.11.11.29.11.4 0a.283.283 0 0 0 0-.399l-.978-.978ZM4.754 4.757a.283.283 0 0 0 0 .399l.978.978a.288.288 0 0 0 .398 0c.11-.11.11-.29 0-.4l-.978-.978a.283.283 0 0 0-.399 0h.001ZM11 17.882a.282.282 0 0 0-.281.282v3.554a.282.282 0 0 0 .564 0v-3.554a.282.282 0 0 0-.282-.282Zm10.719-7.164h-3.554a.282.282 0 0 0 0 .564h3.554a.282.282 0 0 0 0-.564Zm-17.883 0H.282a.282.282 0 0 0 0 .564h3.554a.282.282 0 0 0 0-.564Z"/></svg>