<svg xmlns="http://www.w3.org/2000/svg" width="800" height="712" fill="none"><circle cx="399.287" cy="356.035" r="355.24" fill="#F9F9F9"/><path fill="#BEBEBE" d="m212.434 54.08-8.204-.013 4.09 7.112 4.114-7.098ZM49.024 298.487l.703.1c.126-.886.261-1.791.406-2.714l-.702-.11-.701-.111a191.6 191.6 0 0 0-.41 2.735l.703.1Zm1.353-8.263.699.128c.327-1.779.686-3.613 1.077-5.499l-.696-.144-.696-.145a249.43 249.43 0 0 0-1.083 5.531l.7.129Zm2.279-11.01.693.158c.408-1.784.843-3.606 1.305-5.466l-.69-.172-.69-.171a300.54 300.54 0 0 0-1.31 5.492l.692.159Zm2.717-10.937.686.184c.472-1.764.967-3.557 1.486-5.376l-.684-.195-.683-.195a335.897 335.897 0 0 0-1.492 5.399l.687.183Zm3.07-10.77.68.206c.535-1.767 1.09-3.557 1.67-5.367l-.678-.217-.677-.216a367.872 367.872 0 0 0-1.675 5.389l.68.205Zm3.425-10.726.674.226a385.833 385.833 0 0 1 1.817-5.281l-.67-.236-.67-.236a382.69 382.69 0 0 0-1.824 5.3l.673.227Zm3.729-10.583.666.246a393.742 393.742 0 0 1 1.983-5.262l-.663-.255-.663-.255a400.375 400.375 0 0 0-1.99 5.28l.667.246Zm4.033-10.479.66.265a398.93 398.93 0 0 1 2.128-5.201l-.656-.273-.655-.274a394.677 394.677 0 0 0-2.136 5.219l.659.264Zm4.333-10.378.652.283a396.47 396.47 0 0 1 2.265-5.119l-.648-.292-.648-.292a402.656 402.656 0 0 0-2.272 5.137l.651.283Zm4.623-10.254.644.301a395.386 395.386 0 0 1 2.402-5.043l-.64-.31-.639-.31a396.843 396.843 0 0 0-2.41 5.061l.643.301Zm4.896-10.096.635.319a397.428 397.428 0 0 1 2.552-4.993l-.63-.328-.63-.328a405.934 405.934 0 0 0-2.562 5.011l.635.319Zm5.182-9.961.626.337a386.84 386.84 0 0 1 2.7-4.931l-.62-.346-.62-.346a387.17 387.17 0 0 0-2.711 4.949l.625.337Zm5.468-9.813.615.354a401.62 401.62 0 0 1 2.843-4.851l-.61-.364-.61-.363a380.965 380.965 0 0 0-2.854 4.869l.615.355Zm5.751-9.652.605.372a372.914 372.914 0 0 1 2.981-4.758l-.599-.382-.6-.381a383.76 383.76 0 0 0-2.992 4.776l.605.373Zm6.037-9.478.593.391a357.007 357.007 0 0 1 3.12-4.661l-.588-.4-.587-.4a373.927 373.927 0 0 0-3.132 4.679l.594.391Zm6.321-9.29.582.409a357.328 357.328 0 0 1 3.259-4.558l-.575-.418-.574-.418a357.438 357.438 0 0 0-3.273 4.576l.581.409Zm6.608-9.088.568.427a347.354 347.354 0 0 1 3.4-4.45l-.561-.436-.561-.436a359.689 359.689 0 0 0-3.414 4.468l.568.427Zm6.894-8.872.554.445a330.512 330.512 0 0 1 3.542-4.334l-.547-.455-.546-.454a333.279 333.279 0 0 0-3.556 4.353l.553.445Zm7.181-8.641.539.463a328.16 328.16 0 0 1 3.683-4.212l-.531-.472-.531-.472a329.846 329.846 0 0 0-3.698 4.229l.538.464Zm7.468-8.395.522.482a324.39 324.39 0 0 1 3.824-4.082l-.514-.491-.515-.49a327.177 327.177 0 0 0-3.84 4.1l.523.481Zm7.751-8.131.506.499a313.845 313.845 0 0 1 3.964-3.944l-.497-.508-.496-.508a310.778 310.778 0 0 0-3.982 3.962l.505.499Zm8.034-7.852.488.517a302.165 302.165 0 0 1 4.103-3.798l-.478-.526-.478-.526a311.098 311.098 0 0 0-4.122 3.816l.487.517Zm8.313-7.555.468.534a300.69 300.69 0 0 1 4.239-3.645l-.458-.543-.458-.543a297.289 297.289 0 0 0-4.259 3.662l.468.535Zm8.585-7.243.448.551a299.348 299.348 0 0 1 4.373-3.483l-.437-.56-.437-.56a297.663 297.663 0 0 0-4.395 3.5l.448.552Zm8.852-6.914.426.568a294.549 294.549 0 0 1 4.504-3.314l-.415-.576-.416-.577a290.579 290.579 0 0 0-4.526 3.331l.427.568Zm9.109-6.57.405.585a284.835 284.835 0 0 1 4.63-3.139l-.393-.591-.393-.593a287.02 287.02 0 0 0-4.653 3.155l.404.584Zm9.357-6.21.382.6a280.98 280.98 0 0 1 4.752-2.956l-.369-.607-.37-.607a290.754 290.754 0 0 0-4.776 2.971l.381.6Zm302.625-44.901-5.205-6.34-2.889 7.678 8.094-1.338ZM276.375 22.82l.243.667c.864-.314 1.756-.632 2.674-.952l-.234-.671-.234-.67c-.924.322-1.821.641-2.692.958l.243.668Zm8.18-2.803.219.675a303.27 303.27 0 0 1 5.496-1.72l-.206-.68-.206-.68a299.105 299.105 0 0 0-5.522 1.729l.219.676Zm11.041-3.349.194.684c1.8-.512 3.652-1.023 5.553-1.532l-.184-.686-.183-.687c-1.909.51-3.768 1.024-5.575 1.538l.195.683Zm11.154-2.985.173.689c1.83-.46 3.698-.918 5.604-1.37l-.163-.69-.164-.692c-1.913.453-3.788.912-5.624 1.374l.174.689Zm11.249-2.666.155.694c1.844-.41 3.72-.815 5.624-1.212l-.145-.696-.145-.695c-1.911.398-3.792.804-5.643 1.216l.154.693Zm11.284-2.354.136.697a446.81 446.81 0 0 1 5.66-1.066l-.126-.699-.127-.699c-1.917.348-3.81.705-5.679 1.07l.136.697ZM340.641 6.6l.118.7c1.88-.316 3.779-.623 5.697-.92l-.108-.702-.109-.703c-1.925.299-3.83.607-5.716.924l.118.7Zm11.427-1.77.1.703a438.02 438.02 0 0 1 5.7-.77l-.09-.704-.091-.705a439.92 439.92 0 0 0-5.718.772l.099.703Zm11.438-1.467.08.706c1.899-.218 3.811-.425 5.735-.619l-.072-.707-.071-.707c-1.93.195-3.849.402-5.753.621l.081.706Zm11.501-1.161.061.707a409.33 409.33 0 0 1 5.737-.459l-.052-.708-.052-.709c-1.928.14-3.848.295-5.756.46l.062.709Zm11.504-.839.042.71a399.7 399.7 0 0 1 5.759-.295l-.031-.71-.031-.71c-1.934.085-3.861.184-5.78.296l.041.71ZM398.054.86l.02.71a370.61 370.61 0 0 1 5.756-.12l-.009-.71-.01-.71c-1.931.024-3.857.065-5.777.12l.02.71Zm11.54-.15-.002.711c1.918.006 3.84.027 5.765.065l.014-.71.013-.711c-1.932-.038-3.862-.06-5.788-.065l-.002.71Zm11.545.227-.026.71c1.917.07 3.835.157 5.754.26l.039-.709.038-.71a328.417 328.417 0 0 0-5.779-.261l-.026.71Zm11.53.626-.052.709c1.914.139 3.828.295 5.741.47l.065-.707.065-.708a307.629 307.629 0 0 0-5.768-.472l-.051.708Zm11.497 1.053-.079.706c1.908.213 3.814.444 5.717.695l.093-.705.093-.704a285.132 285.132 0 0 0-5.746-.698l-.078.706Zm11.446 1.51-.107.703c1.897.29 3.791.602 5.681.934l.123-.7.123-.7c-1.9-.334-3.805-.647-5.712-.939l-.108.702Zm11.372 2-.139.697c1.882.375 3.76.771 5.631 1.19l.155-.693.155-.694c-1.882-.421-3.77-.82-5.664-1.197l-.138.697Zm11.265 2.523-.172.69c1.862.464 3.718.952 5.566 1.464l.189-.685.19-.684a227.81 227.81 0 0 0-5.601-1.474l-.172.689Zm11.126 3.083-.208.68a209.97 209.97 0 0 1 5.478 1.755l.226-.673.226-.674a210.528 210.528 0 0 0-5.515-1.768l-.207.68ZM663.59 117.313l-2.1-7.93-5.818 5.785 7.918 2.145ZM549.203 34.187l-.215.677c.77.246 1.615.538 2.533.878l.247-.666.247-.666a58.376 58.376 0 0 0-2.596-.9l-.216.677Zm7.641 2.96-.286.65c1.528.672 3.175 1.434 4.936 2.291l.311-.639.311-.639a141.668 141.668 0 0 0-4.986-2.314l-.286.65Zm9.851 4.777-.33.629c1.537.806 3.141 1.672 4.808 2.6l.346-.62.345-.62a217.095 217.095 0 0 0-4.839-2.619l-.33.63Zm9.565 5.319-.36.612c1.522.892 3.088 1.83 4.696 2.815l.371-.606.372-.606a283.092 283.092 0 0 0-4.72-2.828l-.359.612Zm9.344 5.72-.382.6c1.494.952 3.02 1.942 4.577 2.972l.392-.593.392-.592a328.206 328.206 0 0 0-4.597-2.986l-.382.6Zm9.133 6.038-.401.587a364.86 364.86 0 0 1 4.494 3.124l.41-.58.41-.58a366.593 366.593 0 0 0-4.512-3.137l-.401.586Zm8.96 6.326-.418.574a402.873 402.873 0 0 1 4.393 3.243l.426-.57.426-.568a415.719 415.719 0 0 0-4.409-3.254l-.418.575Zm8.761 6.556-.433.563a437.574 437.574 0 0 1 4.312 3.36l.44-.558.44-.558a427.42 427.42 0 0 0-4.326-3.37l-.433.563Zm8.598 6.783-.447.553a458.349 458.349 0 0 1 4.234 3.466l.453-.547.453-.547a461.175 461.175 0 0 0-4.246-3.477l-.447.552Zm8.435 6.989-.459.542a490.622 490.622 0 0 1 4.145 3.555l.465-.537.466-.537a506.677 506.677 0 0 0-4.157-3.565l-.46.542Zm8.263 7.166-.471.532a524.674 524.674 0 0 1 4.069 3.646l.477-.526.477-.527a507.707 507.707 0 0 0-4.081-3.656l-.471.531Zm8.114 7.348-.483.522a526.007 526.007 0 0 1 4 3.737l.487-.517.488-.517a551.937 551.937 0 0 0-4.01-3.746l-.482.521Zm7.975 7.528-.492.512c1.299 1.25 2.604 2.52 3.915 3.807l.498-.507.498-.507a572.188 572.188 0 0 0-3.926-3.817l-.493.512Zm96.421 192.92 2.52-7.807-8.021 1.721 5.501 6.086Zm-51.155-134.991-.566.43a66.8 66.8 0 0 1 1.608 2.217l.583-.406.583-.406a68.457 68.457 0 0 0-1.642-2.264l-.566.429Zm4.696 6.921-.603.376a162.363 162.363 0 0 1 2.853 4.764l.615-.355.615-.355a163.562 163.562 0 0 0-2.877-4.806l-.603.376Zm5.592 9.668-.624.339a252.467 252.467 0 0 1 2.591 4.918l.632-.324.632-.325a247.416 247.416 0 0 0-2.606-4.946l-.625.338Zm5.097 9.925-.638.312a304.63 304.63 0 0 1 2.399 5.029l.644-.301.644-.3a311.369 311.369 0 0 0-2.41-5.052l-.639.312Zm4.729 10.132-.649.289c.737 1.65 1.48 3.347 2.228 5.094l.653-.28.653-.28a372.404 372.404 0 0 0-2.236-5.113l-.649.29Zm4.394 10.25-.657.271a404.03 404.03 0 0 1 2.087 5.173l.661-.262.66-.261c-.7-1.771-1.399-3.501-2.094-5.191l-.657.27Zm4.113 10.394-.664.253c.65 1.708 1.3 3.45 1.951 5.228l.667-.245.667-.244a433.069 433.069 0 0 0-1.957-5.245l-.664.253Zm3.843 10.495-.67.236a461.69 461.69 0 0 1 1.823 5.27l.673-.228.672-.228a471.666 471.666 0 0 0-1.828-5.287l-.67.237Zm3.589 10.575-.676.221a517.97 517.97 0 0 1 1.701 5.307l.677-.213.678-.213a490.183 490.183 0 0 0-1.705-5.322l-.675.22Zm3.346 10.648-.68.205c.531 1.757 1.06 3.538 1.584 5.343l.683-.199.682-.198a518.374 518.374 0 0 0-1.589-5.357l-.68.206Zm3.117 10.716-.685.192c.495 1.77.987 3.563 1.474 5.377l.686-.184.686-.185a553.566 553.566 0 0 0-1.477-5.391l-.684.191Zm2.896 10.787-.688.177c.46 1.784.916 3.589 1.367 5.413l.69-.17.69-.171a563.826 563.826 0 0 0-1.371-5.427l-.688.178Zm2.685 10.858-.691.163c.424 1.79.844 3.598 1.258 5.424l.693-.158.693-.157c-.416-1.83-.836-3.642-1.261-5.436l-.692.164Zm3.772 122.326-5.383 6.191 8.053 1.566-2.67-7.757Zm-34.103 104.44.616.354c.463-.806.918-1.611 1.367-2.416l-.62-.346-.62-.346c-.447.799-.899 1.6-1.359 2.4l.616.354Zm3.994-7.258.628.332a235.4 235.4 0 0 0 2.526-4.936l-.636-.316-.637-.316a232.443 232.443 0 0 1-2.51 4.905l.629.331Zm4.914-9.893.644.301c.789-1.687 1.55-3.369 2.287-5.045l-.65-.286-.651-.286a233.745 233.745 0 0 1-2.273 5.015l.643.301Zm4.444-10.112.657.271a251.08 251.08 0 0 0 2.053-5.141l-.663-.257-.662-.256a240.606 240.606 0 0 1-2.042 5.112l.657.271Zm3.982-10.301.668.242c.633-1.75 1.242-3.492 1.828-5.225l-.673-.228-.673-.227a260.687 260.687 0 0 1-1.818 5.196l.668.242Zm3.54-10.461.678.214c.561-1.775 1.099-3.54 1.617-5.294l-.681-.201-.681-.201a297.243 297.243 0 0 1-1.61 5.268l.677.214Zm3.129-10.59.685.189c.496-1.796.971-3.579 1.428-5.349l-.687-.178-.688-.178a345.829 345.829 0 0 1-1.422 5.327l.684.189Zm2.765-10.694.69.168c.439-1.811.86-3.606 1.265-5.385l-.692-.158-.693-.158a404.579 404.579 0 0 1-1.261 5.366l.691.167Zm2.459-10.769.694.15c.394-1.823.773-3.627 1.141-5.41l-.696-.144-.696-.143c-.367 1.78-.745 3.579-1.138 5.397l.695.15Zm2.233-10.815.697.138c.364-1.831.718-3.638 1.065-5.42l-.697-.135-.698-.136c-.346 1.781-.7 3.586-1.063 5.414l.696.139Zm-58.462 138.495-7.522 3.276 6.598 4.876.924-8.152ZM564.828 670.777l.293.647c.847-.383 1.693-.775 2.539-1.175l-.304-.642-.303-.642c-.839.396-1.678.785-2.518 1.165l.293.647Zm7.543-3.639.324.633a197.095 197.095 0 0 0 4.956-2.628l-.341-.623-.342-.623a194.442 194.442 0 0 1-4.92 2.609l.323.632Zm9.803-5.373.358.614c1.607-.939 3.21-1.902 4.807-2.888l-.374-.604-.373-.605c-1.587.98-3.179 1.937-4.777 2.87l.359.613Zm9.513-5.87.387.596a262.207 262.207 0 0 0 4.667-3.105l-.399-.587-.4-.588a255.814 255.814 0 0 1-4.642 3.088l.387.596Zm9.244-6.289.411.579a291.687 291.687 0 0 0 4.537-3.289l-.423-.571-.422-.571a300.558 300.558 0 0 1-4.515 3.273l.412.579Zm8.99-6.644.432.563a320.521 320.521 0 0 0 4.415-3.447l-.442-.556-.442-.557a323.936 323.936 0 0 1-4.396 3.433l.433.564Zm8.753-6.952.451.549a366.075 366.075 0 0 0 4.301-3.586l-.459-.542-.459-.542a373.351 373.351 0 0 1-4.285 3.572l.451.549Zm8.532-7.222.467.535a388.91 388.91 0 0 0 4.195-3.709l-.474-.529-.474-.529a397.355 397.355 0 0 1-4.181 3.696l.467.536Zm8.325-7.464.481.523a409.974 409.974 0 0 0 4.093-3.821l-.488-.516-.488-.516a431.235 431.235 0 0 1-4.08 3.808l.482.522Zm8.124-7.68.495.51a482.218 482.218 0 0 0 3.995-3.922l-.501-.504-.501-.504a450.201 450.201 0 0 1-3.983 3.91l.495.51Zm7.931-7.88.506.498a479.802 479.802 0 0 0 3.9-4.015l-.513-.492-.513-.492a461.43 461.43 0 0 1-3.887 4.003l.507.498Zm7.738-8.063.518.486a494.385 494.385 0 0 0 3.802-4.103l-.524-.48-.524-.48a508.943 508.943 0 0 1-3.79 4.091l.518.486Zm7.548-8.244.53.474a473.148 473.148 0 0 0 3.712-4.202l-.535-.467-.535-.467a468.845 468.845 0 0 1-3.702 4.189l.53.473Zm7.361-8.434.541.461a424.76 424.76 0 0 0 3.599-4.285l-.547-.454-.547-.453a433.245 433.245 0 0 1-3.587 4.271l.541.46Zm7.12-8.595.553.446a351.468 351.468 0 0 0 3.492-4.409l-.561-.436-.56-.437a339.804 339.804 0 0 1-3.478 4.391l.554.445ZM485.966 700.617l-7.925-2.122 2.124 7.924 5.801-5.802Zm-198.935-7.815-.213.678c.854.269 1.74.542 2.656.818l.205-.68.205-.681c-.911-.274-1.791-.545-2.639-.813l-.214.678Zm8.027 2.369-.19.684c1.723.478 3.527.961 5.407 1.445l.177-.688.177-.688a303.76 303.76 0 0 1-5.381-1.438l-.19.685Zm10.829 2.796-.166.69c1.769.426 3.593.851 5.469 1.274l.156-.693.156-.693a383.464 383.464 0 0 1-5.448-1.269l-.167.691Zm10.933 2.465-.147.695c1.791.378 3.623.752 5.494 1.122l.137-.697.138-.697c-1.864-.368-3.69-.742-5.476-1.118l-.146.695Zm10.979 2.169-.129.699a464.5 464.5 0 0 0 5.514.982l.12-.7.12-.701c-1.862-.32-3.695-.646-5.496-.979l-.129.699Zm11.02 1.894-.112.702c1.821.29 3.666.573 5.535.848l.103-.703.104-.702a469.868 469.868 0 0 1-5.518-.847l-.112.702Zm11.064 1.629-.095.704c1.832.248 3.685.487 5.556.717l.087-.705.087-.705c-1.866-.23-3.713-.468-5.54-.715l-.095.704Zm11.107 1.365-.078.706c1.843.204 3.703.399 5.577.583l.07-.707.07-.707a471.132 471.132 0 0 1-5.561-.581l-.078.706Zm11.147 1.096-.061.708c1.849.159 3.71.307 5.582.444l.052-.708.052-.709a435.687 435.687 0 0 1-5.564-.443l-.061.708Zm11.151.817-.043.709c1.856.112 3.721.213 5.596.301l.034-.709.033-.71a433.465 433.465 0 0 1-5.577-.3l-.043.709Zm11.179.528-.024.71c1.862.063 3.731.114 5.607.151l.015-.71.014-.71a410.59 410.59 0 0 1-5.588-.151l-.024.71Zm11.19.224-.005.71c1.863.011 3.731.009 5.603-.007l-.006-.711-.006-.71c-1.865.016-3.726.018-5.582.007l-.004.711Zm11.187-.098.017.71c1.865-.044 3.734-.102 5.605-.176l-.028-.71-.028-.709a361.15 361.15 0 0 1-5.583.175l.017.71Zm11.183-.44.04.71a339.81 339.81 0 0 0 5.593-.356l-.051-.709-.051-.709c-1.857.134-3.714.252-5.57.355l.039.709Zm11.159-.805.063.708c1.861-.167 3.722-.35 5.582-.55l-.076-.706-.076-.707c-1.851.199-3.703.381-5.556.547l.063.708Zm11.125-1.199.09.705c1.854-.234 3.707-.487 5.557-.757l-.103-.703-.103-.703c-1.84.269-3.684.52-5.53.754l.089.704Zm11.072-1.621.117.701c1.845-.309 3.687-.636 5.523-.983l-.132-.698-.132-.698c-1.826.345-3.658.67-5.493.977l.117.701Zm10.993-2.078.147.695c1.832-.388 3.657-.796 5.476-1.225l-.163-.692-.163-.691c-1.808.426-3.623.832-5.445 1.218l.148.695Zm-264.204-48.766-3.718-7.313-4.474 6.876 8.192.437ZM50.445 416.425l-.706.076c.096.903.203 1.83.322 2.778l.705-.088.705-.089c-.118-.939-.224-1.857-.32-2.752l-.706.075Zm1.124 8.383-.702.112c.288 1.806.614 3.676.977 5.605l.698-.131.698-.132a200.72 200.72 0 0 1-.97-5.566l-.7.112Zm2.093 11.139-.695.149c.387 1.803.805 3.65 1.255 5.538l.69-.164.692-.165a249.174 249.174 0 0 1-1.247-5.507l-.695.149Zm2.622 11.02-.688.179c.468 1.798.964 3.628 1.488 5.489l.684-.192.684-.193a286.905 286.905 0 0 1-1.48-5.462l-.688.179ZM59.36 457.9l-.68.205a315.221 315.221 0 0 0 1.69 5.422l.677-.217.676-.218a313.3 313.3 0 0 1-1.683-5.398l-.68.206Zm3.463 10.77-.672.229a333.769 333.769 0 0 0 1.878 5.36l.668-.241.669-.24a335.342 335.342 0 0 1-1.87-5.337l-.673.229Zm3.845 10.685-.664.252a353.335 353.335 0 0 0 2.049 5.28l.66-.262.66-.263a343.348 343.348 0 0 1-2.04-5.259l-.665.252Zm4.176 10.511-.656.273a363.921 363.921 0 0 0 2.229 5.242l.651-.283.652-.283a357.501 357.501 0 0 1-2.22-5.222l-.656.273Zm4.52 10.402-.648.294a368.113 368.113 0 0 0 2.38 5.146l.643-.303.643-.304a360.083 360.083 0 0 1-2.372-5.126l-.647.293Zm4.844 10.264-.638.313a373.906 373.906 0 0 0 2.531 5.058l.633-.323.633-.323a381.79 381.79 0 0 1-2.522-5.038l-.637.313Zm5.141 10.079-.627.332c.88 1.664 1.78 3.332 2.699 5.005l.623-.342.622-.342a371.61 371.61 0 0 1-2.689-4.986l-.628.333Zm5.453 9.928-.617.351a368.796 368.796 0 0 0 2.857 4.931l.612-.361.612-.361a374.49 374.49 0 0 1-2.846-4.911l-.618.351Zm5.757 9.764-.606.37a367.113 367.113 0 0 0 2.999 4.829l.6-.379.601-.379a371.112 371.112 0 0 1-2.987-4.812l-.607.371Zm6.054 9.586-.594.388a357.796 357.796 0 0 0 3.139 4.726l.589-.397.588-.398a372.28 372.28 0 0 1-3.127-4.708l-.595.389Zm6.347 9.397-.583.406a370.298 370.298 0 0 0 3.278 4.62l.576-.416.577-.415a357.306 357.306 0 0 1-3.265-4.602l-.583.407Zm6.633 9.197-.569.424a368.791 368.791 0 0 0 3.414 4.51l.563-.433.563-.434a368.39 368.39 0 0 1-3.401-4.492l-.57.425Zm6.911 8.98-.556.442a370.252 370.252 0 0 0 3.554 4.402l.549-.451.55-.45a367.479 367.479 0 0 1-3.541-4.385l-.556.442Zm7.186 8.757-.542.46a352.177 352.177 0 0 0 3.693 4.291l.535-.467.535-.468a358.487 358.487 0 0 1-3.679-4.275l-.542.459Zm7.458 8.529-.527.476a351.846 351.846 0 0 0 3.829 4.175l.52-.484.519-.485a366.061 366.061 0 0 1-3.814-4.158l-.527.476Zm7.725 8.289-.512.493a358.083 358.083 0 0 0 3.961 4.052l.504-.501.504-.5a363.927 363.927 0 0 1-3.945-4.036l-.512.492Zm7.986 8.041-.496.508a347.149 347.149 0 0 0 4.087 3.923l.488-.516.488-.517a344.395 344.395 0 0 1-4.071-3.907l-.496.509Zm8.239 7.782-.48.524a368.775 368.775 0 0 0 4.209 3.789l.472-.532.471-.532a366.818 366.818 0 0 1-4.193-3.773l-.479.524Zm8.485 7.515-.462.539a347.785 347.785 0 0 0 4.325 3.649l.454-.546.454-.547a337.974 337.974 0 0 1-4.308-3.635l-.463.54Zm8.724 7.24-.445.554a352.756 352.756 0 0 0 4.436 3.505l.436-.561.436-.561a349.91 349.91 0 0 1-4.418-3.491l-.445.554Zm8.945 6.952-.427.568a349.829 349.829 0 0 0 4.549 3.362l.417-.574.418-.575a353.861 353.861 0 0 1-4.53-3.349l-.427.568Zm9.16 6.659-.408.581a353.972 353.972 0 0 0 4.66 3.221l.399-.588.4-.588a351.174 351.174 0 0 1-4.642-3.207l-.409.581Z"/><path fill="#7B7B7B" d="M224.721 87V73.567h4.539c1.05 0 1.911.18 2.585.538.673.355 1.172.842 1.495 1.463.324.621.486 1.327.486 2.119 0 .791-.162 1.493-.486 2.106-.323.612-.82 1.093-1.489 1.443-.669.345-1.524.518-2.565.518h-3.673v-1.47h3.621c.717 0 1.294-.104 1.732-.314.441-.21.76-.507.957-.892.201-.39.302-.853.302-1.391s-.101-1.008-.302-1.41c-.201-.403-.522-.713-.964-.932-.442-.223-1.026-.334-1.751-.334h-2.861V87h-1.626Zm6.323-6.034L234.35 87h-1.889l-3.253-6.035h1.836Zm9.268 6.245c-.91 0-1.708-.217-2.395-.65-.682-.433-1.215-1.038-1.6-1.817-.381-.778-.571-1.688-.571-2.729 0-1.05.19-1.965.571-2.748.385-.783.918-1.39 1.6-1.824.687-.433 1.485-.65 2.395-.65.909 0 1.705.217 2.387.65.687.433 1.221 1.041 1.601 1.824.385.783.577 1.699.577 2.748 0 1.041-.192 1.95-.577 2.73-.38.778-.914 1.383-1.601 1.816-.682.433-1.478.65-2.387.65Zm0-1.39c.691 0 1.259-.178 1.705-.532a3.14 3.14 0 0 0 .991-1.397 5.356 5.356 0 0 0 .321-1.877 5.41 5.41 0 0 0-.321-1.882 3.18 3.18 0 0 0-.991-1.41c-.446-.36-1.014-.538-1.705-.538-.691 0-1.26.179-1.706.537a3.17 3.17 0 0 0-.99 1.41 5.387 5.387 0 0 0-.322 1.883c0 .674.107 1.3.322 1.877a3.13 3.13 0 0 0 .99 1.397c.446.354 1.015.531 1.706.531Zm9.894 1.416c-.639 0-1.218-.12-1.739-.36a2.986 2.986 0 0 1-1.24-1.057c-.306-.463-.459-1.023-.459-1.68 0-.576.114-1.044.341-1.403a2.42 2.42 0 0 1 .912-.853c.381-.205.8-.358 1.26-.459.463-.105.929-.188 1.397-.25a62.428 62.428 0 0 1 1.489-.176c.385-.044.665-.116.84-.217.179-.1.269-.275.269-.525v-.052c0-.647-.178-1.15-.532-1.509-.35-.358-.881-.538-1.594-.538-.739 0-1.318.162-1.738.486-.42.323-.715.669-.886 1.036l-1.469-.525c.262-.612.612-1.089 1.049-1.43a3.935 3.935 0 0 1 1.444-.721 5.98 5.98 0 0 1 1.548-.21c.323 0 .695.04 1.115.118.424.074.833.23 1.227.466.397.236.728.592.99 1.069s.394 1.115.394 1.915v6.639h-1.548v-1.365h-.079c-.105.22-.28.453-.525.702-.245.25-.571.462-.977.637-.407.175-.903.262-1.489.262Zm.236-1.39c.612 0 1.128-.12 1.548-.361a2.457 2.457 0 0 0 1.286-2.132v-1.417c-.066.078-.21.15-.433.216a7.365 7.365 0 0 1-.761.164 33.955 33.955 0 0 1-1.483.197 5.927 5.927 0 0 0-1.128.256 1.941 1.941 0 0 0-.84.518c-.21.228-.315.538-.315.931 0 .538.199.945.597 1.22.403.272.912.407 1.529.407Zm11.012 1.364c-.84 0-1.581-.212-2.224-.636-.643-.429-1.146-1.033-1.509-1.811-.363-.783-.544-1.708-.544-2.775 0-1.058.181-1.977.544-2.755.363-.778.869-1.38 1.516-1.804.647-.424 1.395-.636 2.243-.636.656 0 1.174.11 1.555.328.385.214.678.459.879.734.205.272.365.495.479.67h.131v-4.96h1.548v13.435h-1.496v-1.548h-.183c-.114.183-.276.415-.486.695-.21.276-.509.523-.898.741-.39.215-.908.322-1.555.322Zm.21-1.39c.621 0 1.146-.163 1.574-.486.429-.328.755-.78.978-1.358.223-.582.334-1.253.334-2.014 0-.752-.109-1.41-.328-1.974-.218-.57-.542-1.01-.971-1.326-.428-.319-.957-.478-1.587-.478-.656 0-1.203.168-1.64.505-.433.332-.759.785-.977 1.358-.215.568-.322 1.206-.322 1.915 0 .717.109 1.369.328 1.955.223.581.551 1.045.984 1.39.437.342.98.512 1.627.512ZM515.147 71.37h-1.706l4.933-13.434h1.679l4.933 13.434h-1.705l-4.015-11.309h-.105l-4.014 11.31Zm.629-5.248h6.875v1.444h-6.875v-1.444Zm11.201 5.248V61.294h1.548V71.37h-1.548Zm.787-11.755a1.1 1.1 0 0 1-.78-.308.992.992 0 0 1-.322-.741c0-.29.108-.536.322-.742a1.1 1.1 0 0 1 .78-.308c.302 0 .56.103.774.308a.98.98 0 0 1 .328.742.98.98 0 0 1-.328.74 1.077 1.077 0 0 1-.774.31Zm3.597 11.755V61.294h1.496v1.522h.104c.184-.498.516-.903.998-1.213a2.933 2.933 0 0 1 1.626-.466c.114 0 .256.002.427.007.17.004.299.01.387.02v1.574a4.655 4.655 0 0 0-.361-.06 3.553 3.553 0 0 0-.584-.045c-.49 0-.927.102-1.312.308-.38.201-.682.481-.905.84a2.26 2.26 0 0 0-.328 1.213v6.376h-1.548Zm77.016 76.732v-13.434h4.539c1.05 0 1.911.179 2.585.538.673.354 1.172.841 1.495 1.462.324.621.486 1.328.486 2.119 0 .792-.162 1.494-.486 2.106-.323.612-.82 1.093-1.489 1.443-.669.346-1.524.518-2.565.518h-3.673v-1.469h3.621c.717 0 1.294-.105 1.732-.315.441-.21.761-.507.958-.892.201-.389.301-.853.301-1.391s-.1-1.008-.301-1.41c-.202-.402-.523-.713-.965-.932-.441-.223-1.025-.334-1.751-.334h-2.86v11.991h-1.627Zm6.324-6.035 3.306 6.035h-1.89l-3.253-6.035h1.837Zm9.267 6.245c-.91 0-1.708-.216-2.394-.649-.683-.433-1.216-1.039-1.601-1.817-.381-.779-.571-1.688-.571-2.729 0-1.05.19-1.966.571-2.749.385-.783.918-1.391 1.601-1.823.686-.433 1.484-.65 2.394-.65.91 0 1.705.217 2.388.65.686.432 1.22 1.04 1.6 1.823.385.783.578 1.699.578 2.749 0 1.041-.193 1.95-.578 2.729-.38.778-.914 1.384-1.6 1.817-.683.433-1.478.649-2.388.649Zm0-1.391c.691 0 1.259-.177 1.705-.531.447-.354.777-.82.991-1.397a5.356 5.356 0 0 0 .321-1.876c0-.674-.107-1.301-.321-1.883a3.158 3.158 0 0 0-.991-1.41c-.446-.359-1.014-.538-1.705-.538-.691 0-1.26.179-1.706.538a3.164 3.164 0 0 0-.99 1.41 5.412 5.412 0 0 0-.322 1.883c0 .673.108 1.299.322 1.876a3.13 3.13 0 0 0 .99 1.397c.446.354 1.015.531 1.706.531Zm9.894 1.417c-.639 0-1.218-.12-1.739-.36a2.98 2.98 0 0 1-1.239-1.057c-.307-.463-.46-1.023-.46-1.679 0-.577.114-1.045.342-1.404a2.4 2.4 0 0 1 .911-.852 4.805 4.805 0 0 1 1.26-.46c.463-.105.929-.188 1.397-.249a59.923 59.923 0 0 1 1.489-.177c.385-.044.665-.116.84-.217.179-.1.269-.275.269-.524v-.053c0-.647-.177-1.15-.532-1.509-.349-.358-.881-.537-1.594-.537-.739 0-1.318.161-1.738.485-.42.324-.715.669-.886 1.036l-1.469-.524c.262-.613.612-1.089 1.05-1.43a3.923 3.923 0 0 1 1.443-.722 5.992 5.992 0 0 1 1.548-.21c.324 0 .695.039 1.115.118.424.075.833.23 1.227.466.398.236.728.592.99 1.069.263.477.394 1.115.394 1.916v6.638h-1.548v-1.364h-.079c-.105.218-.28.452-.525.702-.245.249-.57.461-.977.636-.407.175-.903.262-1.489.262Zm.236-1.39c.612 0 1.128-.121 1.548-.361.424-.241.743-.551.958-.932.218-.38.328-.78.328-1.2v-1.417c-.066.079-.21.151-.433.216a7.082 7.082 0 0 1-.761.164c-.284.044-.562.084-.833.119-.267.03-.483.056-.65.078a5.965 5.965 0 0 0-1.128.256 1.963 1.963 0 0 0-.84.518c-.21.228-.314.538-.314.932 0 .538.199.944.596 1.22.403.271.912.407 1.529.407Zm11.012 1.364c-.839 0-1.581-.212-2.224-.636-.642-.429-1.145-1.032-1.508-1.811-.363-.783-.545-1.707-.545-2.775 0-1.058.182-1.976.545-2.755.363-.778.868-1.379 1.515-1.804.647-.424 1.395-.636 2.243-.636.656 0 1.175.109 1.555.328.385.214.678.459.879.735.206.271.365.494.479.669h.131v-4.959h1.548v13.434h-1.495v-1.548h-.184a9.697 9.697 0 0 1-.485.695c-.21.276-.51.523-.899.742-.389.214-.908.321-1.555.321Zm.21-1.391c.621 0 1.146-.161 1.574-.485.429-.328.755-.781.978-1.358.223-.582.334-1.253.334-2.014 0-.752-.109-1.41-.328-1.974-.218-.569-.542-1.01-.97-1.325-.429-.32-.958-.479-1.588-.479-.656 0-1.202.168-1.64.505-.433.332-.759.785-.977 1.358-.215.568-.322 1.207-.322 1.915 0 .717.11 1.369.328 1.955.223.582.551 1.045.984 1.391.438.341.98.511 1.627.511ZM226.135 395.349v-13.434h4.539c1.05 0 1.911.179 2.585.537.673.355 1.172.842 1.495 1.463.324.621.486 1.328.486 2.119 0 .792-.162 1.494-.486 2.106-.323.612-.82 1.093-1.489 1.443-.669.345-1.524.518-2.565.518h-3.673v-1.469h3.621c.717 0 1.294-.105 1.732-.315.441-.21.761-.507.957-.892.202-.389.302-.853.302-1.391s-.1-1.008-.302-1.41c-.201-.403-.522-.713-.964-.932-.442-.223-1.025-.334-1.751-.334h-2.861v11.991h-1.626Zm6.323-6.035 3.306 6.035h-1.889l-3.253-6.035h1.836Zm9.268 6.245c-.91 0-1.708-.217-2.395-.649-.682-.433-1.215-1.039-1.6-1.818-.381-.778-.571-1.688-.571-2.728 0-1.05.19-1.966.571-2.749.385-.783.918-1.391 1.6-1.824.687-.433 1.485-.649 2.395-.649.909 0 1.705.216 2.387.649.687.433 1.221 1.041 1.601 1.824.385.783.577 1.699.577 2.749 0 1.04-.192 1.95-.577 2.728-.38.779-.914 1.385-1.601 1.818-.682.432-1.478.649-2.387.649Zm0-1.391c.691 0 1.259-.177 1.705-.531.446-.354.777-.82.991-1.397a5.36 5.36 0 0 0 .321-1.876c0-.674-.107-1.301-.321-1.883a3.166 3.166 0 0 0-.991-1.41c-.446-.359-1.014-.538-1.705-.538-.691 0-1.26.179-1.706.538a3.164 3.164 0 0 0-.99 1.41 5.389 5.389 0 0 0-.322 1.883c0 .673.107 1.298.322 1.876a3.13 3.13 0 0 0 .99 1.397c.446.354 1.015.531 1.706.531Zm9.894 1.417a4.09 4.09 0 0 1-1.739-.361 2.994 2.994 0 0 1-1.24-1.056c-.306-.463-.459-1.023-.459-1.679 0-.577.114-1.045.341-1.404a2.42 2.42 0 0 1 .912-.853c.381-.205.8-.358 1.26-.459.463-.105.929-.188 1.397-.249a59.362 59.362 0 0 1 1.489-.177c.385-.044.665-.116.84-.217.179-.1.269-.275.269-.524v-.053c0-.647-.178-1.15-.532-1.509-.35-.358-.881-.538-1.594-.538-.739 0-1.318.162-1.738.486-.42.323-.715.669-.886 1.036l-1.469-.525c.262-.612.612-1.088 1.049-1.43a3.932 3.932 0 0 1 1.444-.721 5.98 5.98 0 0 1 1.548-.21c.323 0 .695.039 1.115.118.424.074.833.23 1.227.466.398.236.728.592.99 1.069s.394 1.115.394 1.915v6.639h-1.548v-1.364h-.079c-.105.218-.28.452-.525.701-.245.25-.571.462-.977.637-.407.175-.903.262-1.489.262Zm.236-1.39c.612 0 1.128-.121 1.548-.361.424-.241.743-.551.958-.932.218-.38.328-.78.328-1.2v-1.417c-.066.079-.21.151-.433.216a7.135 7.135 0 0 1-.761.164 33.955 33.955 0 0 1-1.483.197 5.965 5.965 0 0 0-1.128.256 1.948 1.948 0 0 0-.84.518c-.21.228-.315.538-.315.932 0 .538.199.944.597 1.22.403.271.912.407 1.529.407Zm11.012 1.364c-.84 0-1.581-.212-2.224-.636-.643-.429-1.146-1.032-1.509-1.811-.362-.783-.544-1.708-.544-2.775 0-1.058.182-1.976.544-2.755.363-.778.869-1.38 1.516-1.804.647-.424 1.395-.636 2.243-.636.656 0 1.174.109 1.555.328.385.214.678.459.879.735.206.271.365.494.479.669h.131v-4.959h1.548v13.434h-1.495v-1.548h-.184a9.996 9.996 0 0 1-.486.695c-.21.276-.509.523-.898.742-.39.214-.908.321-1.555.321Zm.21-1.391c.621 0 1.146-.162 1.574-.485.429-.328.755-.781.978-1.358.223-.582.334-1.253.334-2.014 0-.752-.109-1.41-.328-1.974-.218-.569-.542-1.011-.971-1.326-.428-.319-.957-.478-1.587-.478-.656 0-1.203.168-1.64.505-.433.332-.759.785-.977 1.358-.215.568-.322 1.207-.322 1.915 0 .717.109 1.369.328 1.955.223.582.551 1.045.984 1.391.437.341.98.511 1.627.511Zm-39.779 244.165v-13.434h4.539c1.05 0 1.911.179 2.585.537.673.355 1.172.842 1.495 1.463.324.621.486 1.328.486 2.119 0 .792-.162 1.494-.486 2.106-.323.612-.82 1.093-1.489 1.443-.669.345-1.524.518-2.565.518h-3.673v-1.469h3.621c.717 0 1.294-.105 1.732-.315.441-.21.761-.507.957-.892.202-.389.302-.853.302-1.391s-.1-1.008-.302-1.41c-.201-.403-.522-.713-.964-.932-.442-.223-1.025-.334-1.751-.334h-2.86v11.991h-1.627Zm6.323-6.035 3.307 6.035h-1.89l-3.253-6.035h1.836Zm9.268 6.245c-.91 0-1.708-.216-2.395-.649-.682-.433-1.215-1.039-1.6-1.818-.381-.778-.571-1.688-.571-2.728 0-1.05.19-1.966.571-2.749.385-.783.918-1.391 1.6-1.824.687-.433 1.485-.649 2.395-.649.909 0 1.705.216 2.388.649.686.433 1.22 1.041 1.6 1.824.385.783.577 1.699.577 2.749 0 1.04-.192 1.95-.577 2.728-.38.779-.914 1.385-1.6 1.818-.683.433-1.479.649-2.388.649Zm0-1.391c.691 0 1.259-.177 1.705-.531.446-.354.777-.82.991-1.397a5.36 5.36 0 0 0 .321-1.876c0-.674-.107-1.301-.321-1.883a3.166 3.166 0 0 0-.991-1.41c-.446-.359-1.014-.538-1.705-.538-.691 0-1.26.179-1.706.538a3.164 3.164 0 0 0-.99 1.41 5.389 5.389 0 0 0-.322 1.883c0 .673.107 1.298.322 1.876a3.13 3.13 0 0 0 .99 1.397c.446.354 1.015.531 1.706.531Zm9.894 1.417a4.09 4.09 0 0 1-1.739-.361 2.986 2.986 0 0 1-1.24-1.056c-.306-.463-.459-1.023-.459-1.679 0-.577.114-1.045.341-1.404a2.42 2.42 0 0 1 .912-.853 4.84 4.84 0 0 1 1.26-.459c.463-.105.929-.188 1.397-.249a59.923 59.923 0 0 1 1.489-.177c.385-.044.665-.116.84-.217.179-.1.269-.275.269-.524v-.053c0-.647-.177-1.15-.532-1.509-.35-.358-.881-.538-1.594-.538-.739 0-1.318.162-1.738.486-.42.323-.715.669-.886 1.036l-1.469-.524c.262-.613.612-1.089 1.049-1.431a3.932 3.932 0 0 1 1.444-.721 5.98 5.98 0 0 1 1.548-.21c.323 0 .695.039 1.115.118.424.074.833.23 1.227.466.398.236.728.592.99 1.069.263.477.394 1.115.394 1.916v6.638h-1.548v-1.364h-.079c-.105.218-.28.452-.525.702-.245.249-.571.461-.977.636-.407.175-.903.262-1.489.262Zm.236-1.39c.612 0 1.128-.121 1.548-.361.424-.241.743-.551.958-.932.218-.38.328-.78.328-1.2v-1.417c-.066.079-.21.151-.433.216a7.135 7.135 0 0 1-.761.164 33.955 33.955 0 0 1-1.483.197 5.965 5.965 0 0 0-1.128.256 1.948 1.948 0 0 0-.84.518c-.21.228-.315.538-.315.932 0 .538.199.944.597 1.22.403.271.912.407 1.529.407Zm11.012 1.364c-.84 0-1.581-.212-2.224-.636-.643-.429-1.145-1.032-1.508-1.811-.363-.783-.545-1.708-.545-2.775 0-1.058.182-1.976.545-2.755.363-.778.868-1.38 1.515-1.804.647-.424 1.395-.636 2.243-.636.656 0 1.175.109 1.555.328.385.214.678.459.879.735.206.271.365.494.479.669h.131v-4.959h1.548v13.434h-1.495v-1.548h-.184a9.996 9.996 0 0 1-.486.695c-.209.276-.509.523-.898.742-.389.214-.908.321-1.555.321Zm.21-1.391c.621 0 1.146-.162 1.574-.485.429-.328.755-.781.978-1.358.223-.582.334-1.253.334-2.014 0-.752-.109-1.41-.328-1.974-.218-.569-.542-1.011-.971-1.325-.428-.32-.957-.479-1.587-.479-.656 0-1.203.168-1.64.505-.433.332-.759.785-.977 1.358-.215.568-.322 1.207-.322 1.915 0 .717.11 1.369.328 1.955.223.582.551 1.045.984 1.391.437.341.98.511 1.627.511Zm349.557-99.707V524.01h4.539c1.05 0 1.911.18 2.585.538.673.355 1.172.842 1.495 1.463.324.621.486 1.327.486 2.119 0 .792-.162 1.493-.486 2.106-.323.612-.82 1.093-1.489 1.443-.669.345-1.524.518-2.565.518h-3.673v-1.469h3.621c.717 0 1.294-.105 1.732-.315.441-.21.761-.507.957-.892.202-.39.302-.853.302-1.391s-.1-1.008-.302-1.41c-.201-.403-.522-.713-.964-.932-.442-.223-1.025-.334-1.751-.334h-2.86v11.991h-1.627Zm6.323-6.035 3.307 6.035h-1.89l-3.253-6.035h1.836Zm9.268 6.245c-.91 0-1.708-.217-2.395-.65-.682-.433-1.215-1.038-1.6-1.817-.381-.778-.571-1.688-.571-2.729 0-1.049.19-1.965.571-2.748.385-.783.918-1.391 1.6-1.824.687-.433 1.485-.649 2.395-.649.909 0 1.705.216 2.388.649.686.433 1.22 1.041 1.6 1.824.385.783.577 1.699.577 2.748 0 1.041-.192 1.951-.577 2.729-.38.779-.914 1.384-1.6 1.817-.683.433-1.479.65-2.388.65Zm0-1.391c.691 0 1.259-.177 1.705-.531.446-.354.777-.82.991-1.397a5.362 5.362 0 0 0 .321-1.877c0-.673-.107-1.301-.321-1.882a3.174 3.174 0 0 0-.991-1.411c-.446-.358-1.014-.537-1.705-.537-.691 0-1.26.179-1.706.537a3.173 3.173 0 0 0-.99 1.411 5.383 5.383 0 0 0-.322 1.882c0 .674.107 1.299.322 1.877a3.13 3.13 0 0 0 .99 1.397c.446.354 1.015.531 1.706.531Zm9.894 1.417a4.09 4.09 0 0 1-1.739-.361 2.994 2.994 0 0 1-1.24-1.056c-.306-.463-.459-1.023-.459-1.679 0-.577.114-1.045.341-1.404a2.42 2.42 0 0 1 .912-.853 4.84 4.84 0 0 1 1.26-.459c.463-.105.929-.188 1.397-.249a59.923 59.923 0 0 1 1.489-.177c.385-.044.665-.116.84-.217.179-.1.269-.275.269-.525v-.052c0-.647-.177-1.15-.532-1.509-.35-.358-.881-.538-1.594-.538-.739 0-1.318.162-1.738.486-.42.323-.715.669-.886 1.036l-1.469-.525c.262-.612.612-1.089 1.049-1.43a3.932 3.932 0 0 1 1.444-.721 5.98 5.98 0 0 1 1.548-.21c.323 0 .695.039 1.115.118.424.074.833.23 1.227.466.398.236.728.592.99 1.069.263.477.394 1.115.394 1.915v6.639h-1.548v-1.364h-.079c-.105.218-.28.452-.525.701-.245.25-.571.462-.977.637-.407.175-.903.262-1.489.262Zm.236-1.391c.612 0 1.128-.12 1.548-.36.424-.241.743-.551.958-.932.218-.38.328-.78.328-1.2v-1.417c-.066.078-.21.151-.433.216a7.39 7.39 0 0 1-.761.164 33.955 33.955 0 0 1-1.483.197 5.965 5.965 0 0 0-1.128.256 1.948 1.948 0 0 0-.84.518c-.21.227-.315.538-.315.932 0 .537.199.944.597 1.22.403.271.912.406 1.529.406Zm11.012 1.365c-.84 0-1.581-.212-2.224-.636-.643-.429-1.145-1.033-1.508-1.811-.363-.783-.545-1.708-.545-2.775 0-1.058.182-1.976.545-2.755.363-.778.868-1.38 1.515-1.804.647-.424 1.395-.636 2.243-.636.656 0 1.175.109 1.555.328.385.214.678.459.879.735.206.271.365.494.479.669h.131v-4.96h1.548v13.435h-1.495v-1.548h-.184a9.996 9.996 0 0 1-.486.695c-.209.276-.509.523-.898.741-.389.215-.908.322-1.555.322Zm.21-1.391c.621 0 1.146-.162 1.574-.485.429-.328.755-.781.978-1.358.223-.582.334-1.253.334-2.014 0-.752-.109-1.41-.328-1.975-.218-.568-.542-1.01-.971-1.325-.428-.319-.957-.478-1.587-.478-.656 0-1.203.168-1.64.505-.433.332-.759.785-.977 1.358-.215.568-.322 1.207-.322 1.915 0 .717.11 1.369.328 1.955.223.581.551 1.045.984 1.391.437.341.98.511 1.627.511Zm-147.534 91.993a2.058 2.058 0 0 0-.958-1.548c-.559-.367-1.246-.551-2.059-.551-.595 0-1.115.096-1.562.289-.441.192-.787.457-1.036.793-.245.337-.367.72-.367 1.148 0 .359.085.667.255.925.175.254.398.466.67.637.271.166.555.304.852.413.298.105.571.19.82.256l1.365.367c.35.092.739.219 1.167.381.433.161.847.382 1.24.662.398.276.726.63.984 1.063.258.433.387.964.387 1.594a3.54 3.54 0 0 1-.57 1.968c-.377.586-.928 1.052-1.654 1.397-.721.345-1.598.518-2.63.518-.962 0-1.795-.155-2.499-.466-.7-.31-1.251-.743-1.653-1.298-.398-.556-.624-1.201-.676-1.936h1.679c.044.508.215.928.512 1.26.302.328.682.573 1.141.735.464.157.962.236 1.496.236.621 0 1.179-.101 1.673-.302.494-.205.885-.49 1.174-.853.289-.367.433-.796.433-1.285 0-.447-.125-.809-.374-1.089a2.74 2.74 0 0 0-.984-.683 10.285 10.285 0 0 0-1.319-.459l-1.653-.472c-1.049-.302-1.88-.733-2.492-1.292-.613-.56-.919-1.293-.919-2.198 0-.752.204-1.408.61-1.968.411-.564.962-1.001 1.653-1.312.696-.315 1.472-.472 2.329-.472.866 0 1.636.155 2.309.466.674.306 1.207.726 1.601 1.259.398.534.608 1.139.63 1.817h-1.575Zm8.448 10.286c-.971 0-1.809-.214-2.513-.643a4.315 4.315 0 0 1-1.62-1.81c-.376-.779-.564-1.684-.564-2.716 0-1.032.188-1.942.564-2.729.38-.792.91-1.408 1.587-1.85.683-.446 1.479-.669 2.388-.669.525 0 1.043.087 1.555.262.512.175.977.46 1.397.853.42.389.754.905 1.004 1.548.249.643.374 1.435.374 2.375v.656h-7.767v-1.338h6.192c0-.569-.113-1.076-.341-1.522a2.567 2.567 0 0 0-.958-1.056c-.411-.258-.896-.387-1.456-.387-.616 0-1.15.153-1.6.459-.446.302-.79.695-1.03 1.181a3.459 3.459 0 0 0-.361 1.561v.892c0 .761.131 1.406.394 1.935.266.525.636.925 1.108 1.201.472.271 1.021.406 1.647.406.406 0 .774-.057 1.102-.17.332-.118.618-.293.859-.525.241-.236.426-.529.558-.879l1.495.42a3.32 3.32 0 0 1-.793 1.338c-.372.38-.831.678-1.378.892-.547.21-1.161.315-1.843.315Zm9.492.026a4.09 4.09 0 0 1-1.739-.361 2.977 2.977 0 0 1-1.239-1.056c-.307-.463-.46-1.023-.46-1.679 0-.577.114-1.045.341-1.404a2.42 2.42 0 0 1 .912-.853 4.84 4.84 0 0 1 1.26-.459c.463-.105.929-.188 1.397-.249a59.923 59.923 0 0 1 1.489-.177c.385-.044.665-.116.84-.217.179-.1.269-.275.269-.524v-.053c0-.647-.177-1.15-.532-1.509-.35-.358-.881-.538-1.594-.538-.739 0-1.318.162-1.738.486-.42.323-.715.669-.886 1.036l-1.469-.524c.262-.613.612-1.089 1.05-1.431a3.92 3.92 0 0 1 1.443-.721 5.992 5.992 0 0 1 1.548-.21c.323 0 .695.039 1.115.118.424.074.833.23 1.227.466.398.236.728.592.99 1.069.263.477.394 1.115.394 1.916v6.638h-1.548v-1.364h-.079c-.105.218-.28.452-.525.702-.245.249-.571.461-.977.636-.407.175-.903.262-1.489.262Zm.236-1.39c.612 0 1.128-.121 1.548-.361.424-.241.743-.551.958-.932.218-.38.328-.78.328-1.2v-1.417c-.066.079-.21.151-.433.216a7.135 7.135 0 0 1-.761.164 33.284 33.284 0 0 1-1.483.197 5.965 5.965 0 0 0-1.128.256 1.954 1.954 0 0 0-.84.518c-.21.228-.315.538-.315.932 0 .538.199.944.597 1.22.403.271.912.407 1.529.407ZM369.146 15.865l-.155 11.367-1.377-.019.136-9.923-.066-.001-2.801 1.804.019-1.398 2.868-1.848 1.376.018Zm3.114 11.412.013-1 3.808-4.055c.447-.475.816-.888 1.105-1.24.29-.354.506-.688.647-1 .145-.317.22-.649.225-.997.005-.4-.086-.747-.275-1.042a1.87 1.87 0 0 0-.768-.687 2.517 2.517 0 0 0-1.106-.254c-.437-.006-.819.08-1.147.256a1.87 1.87 0 0 0-.76.739c-.178.32-.27.696-.276 1.129l-1.31-.018c.009-.666.171-1.249.485-1.748a3.199 3.199 0 0 1 1.27-1.16 3.784 3.784 0 0 1 1.799-.396c.666.009 1.254.157 1.764.446.511.288.909.673 1.195 1.154.285.481.424 1.014.416 1.599a3.439 3.439 0 0 1-.244 1.223c-.154.394-.419.833-.795 1.316-.373.48-.89 1.065-1.551 1.755l-2.59 2.696-.002.089 5.284.072-.017 1.221-7.17-.098Zm13.168.336c-.836-.012-1.546-.249-2.128-.712-.582-.467-1.022-1.137-1.321-2.011-.299-.878-.44-1.934-.423-3.17.017-1.229.187-2.275.51-3.14.326-.87.787-1.53 1.381-1.98.598-.454 1.312-.676 2.141-.665.829.012 1.534.253 2.116.723.586.467 1.028 1.14 1.327 2.017.302.874.445 1.925.428 3.153-.016 1.236-.186 2.288-.509 3.157-.323.866-.781 1.524-1.376 1.974-.595.448-1.31.665-2.146.654Zm.017-1.221c.828.011 1.478-.38 1.947-1.172.47-.793.715-1.93.735-3.41.014-.984-.08-1.824-.281-2.518-.198-.695-.491-1.227-.878-1.595a1.984 1.984 0 0 0-1.397-.563c-.821-.011-1.468.385-1.942 1.19-.474.8-.721 1.938-.741 3.414-.013.984.079 1.822.277 2.513.197.691.488 1.219.872 1.583.387.364.856.55 1.408.558Zm6.245 1.151.156-11.366 1.377.018-.078 5.64.134.001 5.183-5.569 1.798.025-4.843 5.063 4.687 6.304-1.665-.023-3.879-5.338-1.443 1.579-.05 3.685-1.377-.019Zm10.352-11.227 1.643.023 3.733 9.488.133.002 3.993-9.382 1.642.022-.155 11.367-1.288-.018.118-8.636-.111-.001-3.67 8.587-1.243-.017-3.434-8.685-.111-.001-.118 8.636-1.288-.018.156-11.367Zm48.21 366.101.014-.999 3.808-4.056a26.32 26.32 0 0 0 1.105-1.239c.29-.355.505-.689.647-1.001.145-.317.22-.649.224-.997a1.842 1.842 0 0 0-.274-1.041 1.871 1.871 0 0 0-.768-.688 2.519 2.519 0 0 0-1.107-.254c-.436-.006-.819.079-1.147.256-.324.173-.577.42-.759.739-.178.32-.271.696-.277 1.129l-1.309-.018c.009-.666.17-1.249.484-1.748a3.201 3.201 0 0 1 1.271-1.159c.536-.274 1.136-.406 1.798-.397.666.009 1.255.158 1.765.446.51.288.909.673 1.194 1.154a2.99 2.99 0 0 1 .417 1.599 3.444 3.444 0 0 1-.244 1.224c-.154.393-.419.832-.796 1.315a23.5 23.5 0 0 1-1.55 1.755l-2.591 2.696-.001.089 5.284.072-.017 1.221-7.171-.098Zm13.169.336c-.837-.011-1.546-.249-2.128-.712-.582-.467-1.022-1.137-1.321-2.011-.299-.877-.44-1.934-.423-3.17.017-1.228.187-2.275.509-3.14.327-.869.787-1.529 1.382-1.98.598-.454 1.312-.676 2.141-.664.828.011 1.534.252 2.116.723.585.466 1.028 1.139 1.327 2.016.302.874.445 1.925.428 3.153-.017 1.236-.187 2.289-.509 3.158-.323.865-.782 1.523-1.376 1.974-.595.447-1.31.664-2.146.653Zm.016-1.221c.829.011 1.478-.379 1.948-1.172.47-.793.715-1.93.735-3.41.014-.984-.08-1.823-.282-2.518-.197-.695-.49-1.226-.877-1.594a1.988 1.988 0 0 0-1.397-.564c-.821-.011-1.469.386-1.942 1.19-.474.8-.721 1.938-.741 3.414-.014.985.079 1.822.276 2.513.198.691.489 1.219.872 1.583.388.365.857.55 1.408.558Zm9.752 1.355c-.837-.012-1.546-.249-2.128-.712-.582-.467-1.022-1.137-1.321-2.011-.299-.877-.44-1.934-.423-3.17.017-1.228.187-2.275.509-3.14.327-.869.787-1.529 1.382-1.98.598-.454 1.312-.676 2.141-.664.829.011 1.534.252 2.116.722.586.467 1.028 1.14 1.327 2.017.302.874.445 1.925.428 3.153-.017 1.236-.186 2.289-.509 3.158-.323.865-.782 1.523-1.376 1.974-.595.447-1.31.664-2.146.653Zm.016-1.221c.829.011 1.479-.38 1.948-1.172.47-.793.715-1.93.735-3.41.014-.984-.08-1.824-.282-2.518-.197-.695-.49-1.227-.877-1.594a1.987 1.987 0 0 0-1.397-.564c-.821-.011-1.469.385-1.942 1.189-.474.801-.721 1.939-.741 3.415-.013.985.079 1.822.276 2.513.198.691.489 1.219.873 1.583.387.364.856.55 1.407.558Zm6.246 1.151.156-11.366 1.377.019-.078 5.639.133.001 5.184-5.569 1.798.025-4.843 5.063 4.687 6.304-1.665-.023-3.879-5.338-1.443 1.579-.05 3.685-1.377-.019Zm10.352-11.226 1.643.022 3.733 9.488.133.002 3.992-9.382 1.643.022-.156 11.367-1.287-.018.118-8.636-.111-.001-3.67 8.587-1.243-.017-3.434-8.685-.111-.001-.119 8.636-1.287-.018.156-11.366Zm204.574-163.342 11.234.896.082-.033-2.219-5.425 1.13-.463 2.758 6.74-1.192.488-11.246-.868-.547-1.335Zm4.415 11.2c-.317-.774-.376-1.52-.177-2.237.202-.718.646-1.386 1.333-2.003.691-.618 1.608-1.161 2.752-1.629 1.137-.466 2.167-.719 3.089-.761.928-.039 1.715.126 2.362.497.653.373 1.136.943 1.45 1.71.314.767.368 1.511.163 2.23-.201.722-.646 1.392-1.337 2.011-.685.62-1.597 1.163-2.734 1.628-1.144.468-2.179.724-3.105.767-.922.041-1.707-.123-2.355-.494-.644-.372-1.124-.945-1.441-1.719Zm1.13-.463c.314.767.928 1.212 1.841 1.334.914.122 2.056-.097 3.426-.658.911-.373 1.646-.788 2.207-1.245.562-.454.936-.931 1.124-1.431a1.985 1.985 0 0 0-.029-1.506c-.311-.76-.929-1.201-1.854-1.322-.922-.123-2.066.095-3.433.655-.911.372-1.645.785-2.204 1.237-.559.453-.93.927-1.115 1.422a2.02 2.02 0 0 0 .037 1.514Zm2.57 9.504c-.317-.774-.376-1.519-.178-2.236.202-.718.647-1.386 1.334-2.003.69-.619 1.608-1.162 2.751-1.63 1.137-.465 2.167-.719 3.09-.76.927-.04 1.715.126 2.362.497.652.372 1.135.942 1.449 1.709.314.768.369 1.511.163 2.231-.2.721-.646 1.392-1.336 2.01-.686.62-1.597 1.163-2.734 1.629-1.144.468-2.179.723-3.105.766-.923.042-1.708-.123-2.355-.494-.644-.372-1.125-.945-1.441-1.719Zm1.13-.462c.314.767.928 1.211 1.841 1.333.914.122 2.055-.097 3.425-.657.911-.373 1.647-.788 2.208-1.245.562-.454.936-.931 1.123-1.432a1.985 1.985 0 0 0-.028-1.506c-.311-.76-.929-1.201-1.855-1.322-.921-.122-2.066.096-3.432.655-.911.373-1.646.785-2.204 1.238-.559.452-.931.926-1.116 1.422a2.026 2.026 0 0 0 .038 1.514Zm1.385 6.198 10.521-4.305.521 1.274-5.219 2.136.05.123 7.153 2.591.681 1.664-6.554-2.476-3.967 6.781-.63-1.541 3.394-5.659-2.018-.71-3.411 1.396-.521-1.274Zm14.382 5.132.622 1.521-7.27 7.149.051.123 10.196.002.622 1.521-10.521 4.305-.488-1.192 7.994-3.271-.042-.103-9.339-.017-.471-1.151 6.648-6.558-.042-.103-7.993 3.271-.488-1.192 10.521-4.305ZM576.671 62.436l-6.617 9.244-1.119-.802 5.776-8.07-.054-.039-3.329-.116.814-1.138 3.409.12 1.12.8Zm-2.818 9.096.659-.921 8.663-3.52.668.478-1.021 1.426-.451-.323-6.546 2.66-.051.072 5.47 3.916-.711.993-6.68-4.781Zm2.994 5.01 1.558-2.176.306-.429 4.753-6.64 1.065.763-6.616 9.244-1.066-.762Zm6.819 5.071c-.529-.379-.931-.826-1.205-1.34a3.273 3.273 0 0 1-.399-1.596c.007-.55.166-1.07.478-1.556l1.083.776c-.257.448-.315.93-.174 1.445.146.514.455.94.928 1.278.379.272.78.424 1.202.458.424.035.832-.041 1.222-.23a2.676 2.676 0 0 0 1.017-.877c.289-.404.457-.827.506-1.27a2.397 2.397 0 0 0-.183-1.27 2.504 2.504 0 0 0-.851-1.033 3.563 3.563 0 0 0-.965-.493 2.973 2.973 0 0 0-.978-.188l-.957-.876 3.816-4.149 4.803 3.438-.711.993-3.864-2.766-2.276 2.494.054.039c.298-.015.625.03.982.135.357.106.69.27 1 .491.566.405.973.901 1.221 1.489.254.586.34 1.203.259 1.85-.078.65-.331 1.274-.76 1.873-.422.59-.931 1.022-1.528 1.295a3.57 3.57 0 0 1-1.865.317c-.65-.064-1.268-.307-1.855-.727Zm7.859 5.626c-.68-.487-1.126-1.087-1.34-1.8-.211-.715-.19-1.517.063-2.405.256-.89.743-1.839 1.462-2.844.715-.999 1.452-1.762 2.211-2.288.764-.527 1.519-.806 2.265-.837.75-.031 1.463.195 2.137.677.674.482 1.115 1.083 1.325 1.801.214.718.193 1.522-.062 2.414-.251.89-.733 1.834-1.448 2.833-.72 1.005-1.46 1.773-2.221 2.302-.759.526-1.511.804-2.256.835-.744.028-1.456-.202-2.136-.689Zm.711-.993c.674.482 1.43.532 2.269.149.838-.383 1.688-1.176 2.549-2.38.573-.8.975-1.543 1.207-2.229.234-.683.297-1.286.189-1.81a1.986 1.986 0 0 0-.825-1.26c-.668-.477-1.426-.521-2.274-.132-.846.387-1.698 1.18-2.557 2.381-.573.8-.976 1.541-1.208 2.221-.232.68-.294 1.28-.187 1.798.11.52.389.94.837 1.262Zm4.471 4.51 6.617-9.244 1.119.802-3.282 4.585.108.078 7.435-1.614 1.462 1.047-6.867 1.392.251 7.852-1.354-.97-.138-6.596-2.086.472-2.145 2.997-1.12-.8Zm14.908-3.309 1.336.956-2.351 9.922.109.077 8.633-5.424 1.336.956-6.616 9.244-1.047-.75 5.027-7.023-.091-.064-7.915 4.955-1.011-.723 2.138-9.091-.09-.065-5.027 7.023-1.047-.75 6.616-9.243Z"/><path fill="#BEBEBE" d="m692.011 354.614-7.105-4.102v8.204l7.105-4.102Zm-383.659 0v.71h2.821v-1.421h-2.821v.711Zm8.463 0v.71h5.642v-1.421h-5.642v.711Zm11.284 0v.71h5.642v-1.421h-5.642v.711Zm11.284 0v.71h5.642v-1.421h-5.642v.711Zm11.284 0v.71h5.642v-1.421h-5.642v.711Zm11.284 0v.71h5.642v-1.421h-5.642v.711Zm11.284 0v.71h5.642v-1.421h-5.642v.711Zm11.284 0v.71h5.642v-1.421h-5.642v.711Zm11.284 0v.71h5.642v-1.421h-5.642v.711Zm11.284 0v.71h5.642v-1.421h-5.642v.711Zm11.284 0v.71h5.642v-1.421h-5.642v.711Zm11.285 0v.71h5.642v-1.421h-5.642v.711Zm11.284 0v.71h5.642v-1.421h-5.642v.711Zm11.284 0v.71h5.642v-1.421h-5.642v.711Zm11.284 0v.71h5.642v-1.421h-5.642v.711Zm11.284 0v.71h5.642v-1.421h-5.642v.711Zm11.284 0v.71h5.642v-1.421h-5.642v.711Zm11.284 0v.71h5.642v-1.421h-5.642v.711Zm11.284 0v.71h5.642v-1.421h-5.642v.711Zm11.284 0v.71h5.642v-1.421h-5.642v.711Zm11.284 0v.71h5.642v-1.421h-5.642v.711Zm11.284 0v.71h5.642v-1.421h-5.642v.711Zm11.284 0v.71h5.643v-1.421h-5.643v.711Zm11.285 0v.71h5.642v-1.421h-5.642v.711Zm11.284 0v.71h5.642v-1.421h-5.642v.711Zm11.284 0v.71h5.642v-1.421h-5.642v.711Zm11.284 0v.71h5.642v-1.421h-5.642v.711Zm11.284 0v.71h5.642v-1.421h-5.642v.711Zm11.284 0v.71h5.642v-1.421h-5.642v.711Zm11.284 0v.71h5.642v-1.421h-5.642v.711Zm11.284 0v.71h5.642v-1.421h-5.642v.711Zm11.284 0v.71h5.642v-1.421h-5.642v.711Zm11.284 0v.71h5.642v-1.421h-5.642v.711Zm11.284 0v.71h5.642v-1.421h-5.642v.711Zm-469.024 0-7.105-4.102v8.204l7.105-4.102Zm-99.467 0v.71h2.763v-1.421h-2.763v.711Zm8.289 0v.71h5.526v-1.421h-5.526v.711Zm11.052 0v.71h5.526v-1.421h-5.526v.711Zm11.052 0v.71h5.526v-1.421h-5.526v.711Zm11.052 0v.71h5.526v-1.421h-5.526v.711Zm11.052 0v.71h5.526v-1.421h-5.526v.711Zm11.052 0v.71h5.525v-1.421h-5.525v.711Zm11.051 0v.71h5.526v-1.421h-5.526v.711Zm11.052 0v.71h5.526v-1.421h-5.526v.711Z"/><path fill="#7B7B7B" d="m286.941 41.058-3.476-9.31c-.182-.488-.604-.805-1.071-.805h-9.324V18.448c0-.727-.521-1.317-1.163-1.317h-54.76c-.642 0-1.163.59-1.163 1.317v28.24c0 .727.521 1.317 1.163 1.317h5.556v3.462c0 .727.521 1.317 1.163 1.317h2.635a7.868 7.868 0 0 0-.243 1.947c0 3.869 2.78 7.016 6.196 7.016 3.417 0 6.197-3.147 6.197-7.016 0-.675-.085-1.329-.243-1.947h1.406a7.868 7.868 0 0 0-.243 1.947c0 3.869 2.78 7.016 6.197 7.016 3.417 0 6.196-3.147 6.196-7.016 0-.675-.085-1.329-.243-1.947h17.381a7.868 7.868 0 0 0-.243 1.947c0 3.869 2.779 7.016 6.196 7.016 3.344 0 6.077-3.014 6.193-6.768h4.621c.643 0 1.163-.59 1.163-1.317V41.571c0-.176-.031-.35-.091-.513Zm-13.871-7.482h8.553l2.395 6.417-10.948 1.61v-8.027ZM227.765 50.15h-2.736v-2.145h5.664c-1.15.387-2.163 1.142-2.928 2.145Zm4.689 8.964c-2.134 0-3.87-1.966-3.87-4.383 0-2.416 1.736-4.382 3.87-4.382 2.135 0 3.871 1.966 3.871 4.382 0 2.417-1.736 4.383-3.871 4.383Zm8.624-8.964h-3.934c-.766-1.003-1.778-1.758-2.928-2.145h9.791c-1.151.387-2.163 1.142-2.929 2.145Zm4.69 8.964c-2.135 0-3.871-1.966-3.871-4.383 0-2.416 1.736-4.382 3.871-4.382 2.134 0 3.87 1.966 3.87 4.382 0 2.417-1.736 4.383-3.87 4.383Zm24.976-9.416a6.714 6.714 0 0 0-.378.452h-19.909c-.765-1.003-1.777-1.758-2.928-2.145h23.215v1.692Zm0-17.438v13.11H218.31V19.764h52.434V32.26Zm4.311 26.854c-2.134 0-3.87-1.966-3.87-4.383 0-2.416 1.736-4.382 3.87-4.382 2.135 0 3.871 1.966 3.871 4.382 0 2.417-1.736 4.383-3.871 4.383Zm9.651-6.769h-3.823c-.864-2.697-3.15-4.63-5.828-4.63-.694 0-1.362.13-1.985.37v-3.827l11.636-1.71v9.797Zm2.235 621.815-3.476-9.312c-.182-.487-.604-.804-1.071-.804h-9.324v-12.495c0-.727-.521-1.317-1.163-1.317h-54.76c-.642 0-1.163.59-1.163 1.317v28.24c0 .728.521 1.317 1.163 1.317h5.556v3.462c0 .727.521 1.317 1.163 1.317h2.635a7.87 7.87 0 0 0-.243 1.948c0 3.868 2.78 7.015 6.196 7.015 3.417 0 6.197-3.147 6.197-7.015a7.87 7.87 0 0 0-.243-1.948h1.406a7.87 7.87 0 0 0-.243 1.948c0 3.868 2.78 7.015 6.197 7.015 3.417 0 6.196-3.147 6.196-7.015a7.87 7.87 0 0 0-.243-1.948h17.381a7.87 7.87 0 0 0-.243 1.948c0 3.868 2.779 7.015 6.196 7.015 3.344 0 6.077-3.014 6.193-6.768h4.621c.643 0 1.163-.589 1.163-1.317v-12.091c0-.176-.031-.35-.091-.512Zm-13.871-7.482h8.553l2.395 6.416-10.948 1.61v-8.026Zm-45.305 16.574h-2.736v-2.146h5.664c-1.15.387-2.163 1.142-2.928 2.146Zm4.689 8.963c-2.134 0-3.87-1.966-3.87-4.382 0-2.417 1.736-4.383 3.87-4.383 2.135 0 3.871 1.966 3.871 4.383 0 2.416-1.736 4.382-3.871 4.382Zm8.624-8.963h-3.934c-.766-1.004-1.778-1.759-2.928-2.146h9.791c-1.151.387-2.163 1.142-2.929 2.146Zm4.69 8.963c-2.135 0-3.871-1.966-3.871-4.382 0-2.417 1.736-4.383 3.871-4.383 2.134 0 3.87 1.966 3.87 4.383 0 2.416-1.736 4.382-3.87 4.382Zm24.976-9.416a6.385 6.385 0 0 0-.378.453h-19.909c-.765-1.004-1.777-1.759-2.928-2.146h23.215v1.693Zm0-17.438v13.112H218.31v-25.607h52.434v12.495Zm4.311 26.854c-2.134 0-3.87-1.966-3.87-4.382 0-2.417 1.736-4.383 3.87-4.383 2.135 0 3.871 1.966 3.871 4.383 0 2.416-1.736 4.382-3.871 4.382Zm9.651-6.768h-3.823c-.864-2.698-3.15-4.63-5.828-4.63-.694 0-1.362.13-1.985.369v-3.827l11.636-1.711v9.799Zm451.258-540.302-3.476-9.311c-.181-.488-.603-.804-1.071-.804h-9.324v-12.496c0-.727-.52-1.316-1.163-1.316h-54.759c-.642 0-1.163.589-1.163 1.316v28.241c0 .727.521 1.316 1.163 1.316h5.556v3.463c0 .727.52 1.316 1.162 1.316h2.635a7.87 7.87 0 0 0-.243 1.948c0 3.868 2.78 7.016 6.197 7.016 3.417 0 6.197-3.148 6.197-7.016 0-.676-.085-1.329-.244-1.948h1.407a7.87 7.87 0 0 0-.244 1.948c0 3.868 2.78 7.016 6.197 7.016 3.417 0 6.197-3.148 6.197-7.016a7.87 7.87 0 0 0-.243-1.948h17.38a7.87 7.87 0 0 0-.243 1.948c0 3.868 2.78 7.016 6.197 7.016 3.344 0 6.077-3.014 6.192-6.769h4.622c.642 0 1.163-.589 1.163-1.316v-12.092c0-.176-.031-.35-.092-.512Zm-13.871-7.482h8.553l2.395 6.416-10.948 1.61v-8.026Zm-45.305 16.574h-2.736v-2.146h5.665c-1.151.387-2.163 1.143-2.929 2.146Zm4.69 8.963c-2.135 0-3.871-1.966-3.871-4.382 0-2.416 1.736-4.382 3.871-4.382 2.134 0 3.871 1.966 3.871 4.382 0 2.416-1.737 4.382-3.871 4.382Zm8.624-8.963h-3.935c-.765-1.003-1.777-1.759-2.928-2.146h9.791c-1.151.387-2.163 1.143-2.928 2.146Zm4.689 8.963c-2.134 0-3.871-1.966-3.871-4.382 0-2.416 1.737-4.382 3.871-4.382 2.135 0 3.871 1.966 3.871 4.382 0 2.416-1.736 4.382-3.871 4.382Zm24.976-9.416a7.195 7.195 0 0 0-.378.453h-19.908c-.766-1.003-1.778-1.759-2.929-2.146h23.215v1.693Zm0-17.438v13.112h-52.433v-25.607h52.433v12.495Zm4.312 26.854c-2.135 0-3.871-1.966-3.871-4.382 0-2.416 1.736-4.382 3.871-4.382 2.134 0 3.871 1.966 3.871 4.382 0 2.416-1.737 4.382-3.871 4.382Zm9.651-6.768h-3.824c-.864-2.697-3.15-4.63-5.827-4.63-.694 0-1.362.13-1.986.37v-3.827l11.637-1.711v9.798Zm3.656 382.136-3.476-9.311c-.182-.488-.604-.804-1.071-.804h-9.324v-12.496c0-.727-.521-1.316-1.163-1.316h-54.759c-.643 0-1.163.589-1.163 1.316v28.241c0 .727.52 1.316 1.163 1.316h5.555v3.463c0 .727.521 1.316 1.163 1.316h2.635a7.87 7.87 0 0 0-.243 1.948c0 3.868 2.78 7.016 6.197 7.016 3.417 0 6.196-3.148 6.196-7.016a7.87 7.87 0 0 0-.243-1.948h1.407a7.823 7.823 0 0 0-.244 1.948c0 3.868 2.78 7.016 6.197 7.016 3.417 0 6.197-3.148 6.197-7.016a7.87 7.87 0 0 0-.243-1.948h17.38a7.87 7.87 0 0 0-.243 1.948c0 3.868 2.78 7.016 6.197 7.016 3.343 0 6.077-3.014 6.192-6.769h4.622c.642 0 1.163-.589 1.163-1.316V539.08c0-.176-.032-.35-.092-.512Zm-13.871-7.482h8.553l2.395 6.416-10.948 1.61v-8.026ZM678.21 547.66h-2.736v-2.146h5.665c-1.151.387-2.163 1.143-2.929 2.146Zm4.69 8.963c-2.135 0-3.871-1.966-3.871-4.382 0-2.416 1.736-4.382 3.871-4.382 2.134 0 3.87 1.966 3.87 4.382 0 2.416-1.736 4.382-3.87 4.382Zm8.624-8.963h-3.935c-.765-1.003-1.777-1.759-2.928-2.146h9.791c-1.151.387-2.163 1.143-2.928 2.146Zm4.689 8.963c-2.134 0-3.871-1.966-3.871-4.382 0-2.416 1.737-4.382 3.871-4.382s3.871 1.966 3.871 4.382c0 2.416-1.737 4.382-3.871 4.382Zm24.976-9.416a6.868 6.868 0 0 0-.378.453h-19.908c-.766-1.003-1.778-1.759-2.929-2.146h23.215v1.693Zm0-17.438v13.112h-52.433v-25.607h52.433v12.495Zm4.312 26.854c-2.135 0-3.871-1.966-3.871-4.382 0-2.416 1.736-4.382 3.871-4.382 2.134 0 3.87 1.966 3.87 4.382 0 2.416-1.736 4.382-3.87 4.382Zm9.651-6.768h-3.824c-.864-2.697-3.15-4.63-5.827-4.63-.694 0-1.362.13-1.986.37v-3.827l11.637-1.711v9.798ZM286.941 354.632l-3.476-9.311c-.182-.487-.604-.804-1.071-.804h-9.324v-12.495c0-.727-.521-1.317-1.163-1.317h-54.76c-.642 0-1.163.59-1.163 1.317v28.24c0 .727.521 1.317 1.163 1.317h5.556v3.462c0 .727.521 1.317 1.163 1.317h2.635a7.864 7.864 0 0 0-.243 1.948c0 3.868 2.78 7.015 6.196 7.015 3.417 0 6.197-3.147 6.197-7.015 0-.676-.085-1.33-.243-1.948h1.406a7.864 7.864 0 0 0-.243 1.948c0 3.868 2.78 7.015 6.197 7.015 3.417 0 6.196-3.147 6.196-7.015 0-.676-.085-1.33-.243-1.948h17.381a7.864 7.864 0 0 0-.243 1.948c0 3.868 2.779 7.015 6.196 7.015 3.344 0 6.077-3.014 6.193-6.768h4.621c.643 0 1.163-.59 1.163-1.317v-12.091c0-.176-.031-.35-.091-.513Zm-13.871-7.481h8.553l2.395 6.416-10.948 1.61v-8.026Zm-45.305 16.573h-2.736v-2.145h5.664c-1.15.387-2.163 1.142-2.928 2.145Zm4.689 8.964c-2.134 0-3.87-1.966-3.87-4.382 0-2.417 1.736-4.383 3.87-4.383 2.135 0 3.871 1.966 3.871 4.383 0 2.416-1.736 4.382-3.871 4.382Zm8.624-8.964h-3.934c-.766-1.003-1.778-1.758-2.928-2.145h9.791c-1.151.387-2.163 1.142-2.929 2.145Zm4.69 8.964c-2.135 0-3.871-1.966-3.871-4.382 0-2.417 1.736-4.383 3.871-4.383 2.134 0 3.87 1.966 3.87 4.383 0 2.416-1.736 4.382-3.87 4.382Zm24.976-9.416a6.6 6.6 0 0 0-.378.452h-19.909c-.765-1.003-1.777-1.758-2.928-2.145h23.215v1.693Zm0-17.438v13.112H218.31v-25.607h52.434v12.495Zm4.311 26.854c-2.134 0-3.87-1.966-3.87-4.382 0-2.417 1.736-4.383 3.87-4.383 2.135 0 3.871 1.966 3.871 4.383 0 2.416-1.736 4.382-3.871 4.382Zm9.651-6.768h-3.823c-.864-2.698-3.15-4.63-5.828-4.63-.694 0-1.362.13-1.985.369v-3.827l11.636-1.711v9.799ZM506.098 47.019a13.5 13.5 0 0 1-1.001-.035c-1.039-.077-2.433-.312-3.126-1.395l-11.182-10.01a1.734 1.734 0 0 1-.554-1.264 1.752 1.752 0 0 1 .511-1.288l4.303-4.165c.452-.438 1.093-.521 1.62-.211l11.503 6.751c1.61-.81 4.726-2.16 7.997-3.578a674.308 674.308 0 0 0 3.863-1.683l-12.609-9.296c-.372-.275-.614-.727-.656-1.228a1.779 1.779 0 0 1 .44-1.347l4.425-4.832c.41-.448 1.013-.585 1.544-.351l22.114 9.748 6.873-3.323c5.389-2.607 9.907-3.677 13.43-3.183 3.128.439 4.788 2.041 5.298 3.394.399 1.057.492 2.038.284 3-.234 1.08-.844 2.114-1.867 3.16-1.985 2.03-5.787 4.367-11.966 7.355-6.391 3.09-18.731 8.582-24.919 10.554-4.276 1.362-8.841 2.43-12.525 2.928-1.469.199-2.742.299-3.8.299Zm-1.837-3.517c.342.128 1.79.489 6.197-.196 3.366-.523 7.438-1.506 11.174-2.696 5.8-1.848 17.992-7.234 24.563-10.412 5.792-2.801 9.442-5.015 11.156-6.768.558-.571.9-1.088.988-1.493.04-.185.051-.422-.129-.905-.033-.058-.692-1.148-3.138-1.444-2.057-.248-5.767.064-11.762 2.963l-7.421 3.59a1.309 1.309 0 0 1-1.103.02l-21.799-9.61-2.433 2.657 13.422 9.896c.452.333.704.92.658 1.528-.047.608-.386 1.137-.881 1.377-1.349.652-3.87 1.745-6.54 2.902-3.432 1.488-7.323 3.175-8.408 3.804a1.31 1.31 0 0 1-1.338-.003l-11.268-6.614-2.207 2.135 9.996 8.948c.104.093.195.2.273.321Zm56.834 634.237c-.241-.463-.681-.747-1.156-.747h-11.021v-4.362c0-.84-.602-1.52-1.343-1.52h-34.04c-.741 0-1.342.68-1.342 1.52v13.454h-1.827v-22.94c0-.839-.601-1.52-1.342-1.52h-.805l2.127-13.683a1.667 1.667 0 0 0-.294-1.241 1.286 1.286 0 0 0-1.028-.543h-10.355c-.742 0-1.343.681-1.343 1.52v13.947h-1.276c-.741 0-1.343.681-1.343 1.52v22.94h-3.13c-.46 0-.887.266-1.134.706a1.696 1.696 0 0 0-.081 1.462l5.637 13.555c.221.533.695.873 1.215.873h51.728c.49 0 .941-.302 1.177-.788l10.997-22.647a1.693 1.693 0 0 0-.021-1.506Zm-18.985-3.589h4.122v2.842h-1.974c-.38 0-.742.183-.997.502l-1.151 1.445v-4.789Zm-6.808 0h4.122v8.16l-3.007 3.774h-1.115V674.15Zm-6.808 0h4.122v11.934h-4.122V674.15Zm-6.808 0h4.122v11.934h-4.122V674.15Zm-6.808 0h4.123v11.934h-4.123V674.15Zm-14.866-24.952h7.412l-1.932 12.426h-5.48v-12.426Zm-2.619 15.467h10.288v2.535h-7.587c-.741 0-1.343.68-1.343 1.52 0 .839.602 1.52 1.343 1.52h7.587v15.844h-10.288v-21.419Zm50.755 34.974h-50.082l-4.372-10.514h43.32c.38 0 .742-.183.997-.502l3.347-4.201c.308-.171.55-.472.67-.84l2.827-3.549h12.814l-9.521 19.606Zm-5.844-12.035c0 .84.602 1.521 1.343 1.521h5.819c.741 0 1.343-.681 1.343-1.521 0-.839-.602-1.52-1.343-1.52h-5.819c-.741 0-1.343.681-1.343 1.52Z"/><path fill="#7B7B7B" d="M540.761 681.587h-26.129c-.742 0-1.343-.681-1.343-1.52 0-.84.601-1.521 1.343-1.521h26.129c.742 0 1.343.681 1.343 1.521 0 .839-.601 1.52-1.343 1.52Z"/><circle cx="49.734" cy="356.035" r="49.023" fill="#F9F9F9" stroke="#BEBEBE" stroke-dasharray="5.68 5.68" stroke-width="1.421"/><g clip-path="url(#a)"><path fill="#212121" d="m72.047 347.663-21.792-14.209a.943.943 0 0 0-1.036 0l-21.788 14.209a.95.95 0 0 0-.254 1.297.949.949 0 0 0 1.29.289l2.321-1.515v28.194a2.842 2.842 0 0 0 2.842 2.842h32.215a2.841 2.841 0 0 0 2.842-2.842v-28.194c.368.175 2.444 1.765 2.842 1.67a.95.95 0 0 0 .895-.681.952.952 0 0 0-.377-1.06Zm-9.998 29.212h-3.784v-6.631a.949.949 0 0 0-.947-.947H54.47v-6.631a.949.949 0 0 0-.947-.947h-7.579a.945.945 0 0 0-.947.947v6.631h-2.842a.95.95 0 0 0-.947.947v6.631h-3.79 24.63Zm-15.157-7.578v-5.684h5.684v5.684h-5.684Zm-3.789 1.895h5.684v5.683h-5.684v-5.683Zm7.579 5.683v-5.683h5.684v5.683h-5.684Zm16.104-.947a.949.949 0 0 1-.947.947H33.63a.945.945 0 0 1-.947-.947v-29.43l17.051-11.12 17.052 11.12v29.43Zm-9.473-23.682a.944.944 0 0 1-.947.947H43.103a.946.946 0 0 1 0-1.895h13.263a.965.965 0 0 1 .672.276.95.95 0 0 1 .28.672h-.005Zm-14.21-5.684h13.263a.945.945 0 0 1 .67 1.617.95.95 0 0 1-.67.277H43.103a.95.95 0 0 1-.947-.947.949.949 0 0 1 .947-.947Z"/></g><circle cx="750.265" cy="356.035" r="49.023" fill="#F9F9F9" stroke="#BEBEBE" stroke-dasharray="5.68 5.68" stroke-width="1.421"/><path fill="#212121" d="M769.014 342.076h-1.044v-2.316c0-2.021-1.452-3.665-3.237-3.665h-28.932c-1.785 0-3.238 1.644-3.238 3.665v2.316h-1.044c-2.199 0-3.988 2.025-3.988 4.514v2.561c0 .443.317.802.708.802.809 0 1.238.476 1.782 1.079.582.645 1.3 1.439 2.542 1.527v21.691c0 .443.317.802.708.802h33.991c.391 0 .708-.359.708-.802v-21.684c1.358-.026 2.07-.872 2.643-1.555.515-.614.888-1.058 1.681-1.058.391 0 .708-.359.708-.802v-2.561c0-2.489-1.789-4.514-3.988-4.514Zm-35.035-2.316c0-1.137.817-2.062 1.822-2.062h28.932c1.004 0 1.821.925 1.821 2.062v2.316h-32.575v-2.316Zm28.796 3.919v4.76c-.935.239-1.498.908-1.967 1.468-.516.614-.888 1.058-1.682 1.058-.793 0-1.165-.444-1.681-1.058-.485-.579-1.071-1.276-2.065-1.491v-4.737h7.395Zm-8.811 0v4.769c-.915.246-1.47.906-1.934 1.459-.516.614-.888 1.058-1.681 1.058-.794 0-1.166-.444-1.682-1.058-.491-.586-1.083-1.292-2.098-1.498v-4.73h7.395Zm-8.811 0v4.778c-.896.252-1.443.903-1.901 1.45-.515.614-.888 1.058-1.681 1.058-.794 0-1.166-.444-1.681-1.058-.497-.592-1.097-1.306-2.132-1.504v-4.724h7.395Zm-12.36 7.286c-.808 0-1.238-.476-1.782-1.079-.503-.558-1.107-1.227-2.064-1.455v-1.841c0-1.605 1.154-2.911 2.572-2.911h4.823v4.788c-.876.258-1.415.9-1.868 1.44-.515.614-.888 1.058-1.681 1.058Zm33.761 22.484h-32.575v-3.482h32.575v3.482Zm0-5.086h-32.575v-16.041c.678-.307 1.132-.847 1.522-1.311.515-.614.888-1.058 1.681-1.058s1.166.444 1.681 1.058c.582.693 1.307 1.557 2.708 1.557 1.401 0 2.125-.864 2.708-1.557.515-.614.887-1.058 1.681-1.058.793 0 1.165.444 1.681 1.058.582.693 1.306 1.557 2.708 1.557 1.401 0 2.125-.864 2.707-1.557.516-.614.888-1.058 1.682-1.058.793 0 1.165.444 1.681 1.058.582.693 1.306 1.557 2.707 1.557 1.402 0 2.126-.864 2.708-1.557.516-.614.888-1.058 1.681-1.058.794 0 1.166.444 1.682 1.058.357.426.769.915 1.357 1.23v16.122Zm5.032-19.932c-.955.231-1.525.91-2 1.476-.515.614-.888 1.058-1.681 1.058-.794 0-1.166-.444-1.682-1.058-.48-.573-1.058-1.26-2.032-1.483v-4.745h4.823c1.418 0 2.572 1.306 2.572 2.911v1.841Z"/><defs><clipPath id="a"><path fill="#fff" d="M27 333.299h45.471v45.471H27z"/></clipPath></defs></svg>