<svg xmlns="http://www.w3.org/2000/svg" width="117" height="30" fill="none"><mask id="a" width="117" height="28" x="0" y="1" maskUnits="userSpaceOnUse" style="mask-type:luminance"><path fill="#fff" d="M116.215 1H.171v28h116.044V1Z"/></mask><g fill="#686868" mask="url(#a)"><path d="M59.162 5.356A34.246 34.246 0 0 0 53.3 9.694a152.546 152.546 0 0 0-5.363 5.03 97.68 97.68 0 0 0-2.93 2.954l-2.869 3.018a31.346 31.346 0 0 1-1.62 1.76 33.977 33.977 0 0 0-1.622 1.761 25.89 25.89 0 0 0 2.556-.754 70.063 70.063 0 0 1 2.37-.755 23.098 23.098 0 0 0 1.995-.503 19.42 19.42 0 0 1 2.12-.503 9.156 9.156 0 0 1 2.12-.251c.748-.042 1.434.063 2.058.314.79.293 1.268.796 1.434 1.509a1.81 1.81 0 0 1-.125 1.32c.707-.21 1.393-.44 2.058-.691.707-.252 1.371-.482 1.995-.692l3.617-1.131a28.097 28.097 0 0 1 3.678-1.006 4.896 4.896 0 0 1 1.185-.126c.499-.042.935 0 1.31.125.374.126.644.357.81.692.208.293.229.734.062 1.32-.124.378-.374.692-.748.943-.374.21-.81.378-1.31.503-.498.126-.997.23-1.496.315-.499.042-.893.105-1.185.188-1.413.42-2.805.86-4.177 1.32l-4.115 1.258c-.707.21-1.476.42-2.307.629-.832.251-1.622.293-2.37.125-.29-.041-.602-.167-.935-.377-.707-.545-1.04-1.048-.998-1.509.042-.46.229-.922.561-1.383h-.748a57.043 57.043 0 0 0-4.49.943 72.798 72.798 0 0 0-3.678 1.132 16.11 16.11 0 0 1-3.741.817 2.666 2.666 0 0 1-1.372-.251c-.457-.168-.79-.524-.998-1.069-.166-.461-.166-.901 0-1.32.167-.461.395-.901.686-1.32a39.713 39.713 0 0 1-3.429 1.823c-1.04.46-1.829.796-2.37 1.006-1.08.46-2.244.943-3.491 1.446-1.247.503-2.494.733-3.741.691-1.372-.084-2.203-.46-2.494-1.132-.291-.67-.229-1.508.187-2.514.374-1.048.977-2.159 1.808-3.332a44.148 44.148 0 0 1 2.619-3.458 63.867 63.867 0 0 1 2.619-2.83c.79-.838 1.309-1.383 1.558-1.634l.873-.88h-3.554c-1.164 0-2.348.02-3.554.063-2.41.083-4.801.21-7.17.377a139.7 139.7 0 0 0-7.233.566c-.873.125-1.725.251-2.557.377a18.97 18.97 0 0 0-2.619.44 5.73 5.73 0 0 0-.685.189.965.965 0 0 1-.686 0c-.458-.168-.665-.462-.624-.88 0-.462.208-.755.624-.88a81.426 81.426 0 0 1 15.4-2.453c5.28-.377 10.497-.607 15.651-.691a206.64 206.64 0 0 1 3.242-2.955 238.111 238.111 0 0 1 3.305-2.892 39.548 39.548 0 0 0 1.87-1.886c.749-.797 1.497-1.3 2.245-1.51.416-.125.77-.104 1.06.064.333.125.583.356.749.691.166.294.228.629.187 1.006a1.661 1.661 0 0 1-.5 1.006 309.287 309.287 0 0 0-3.803 3.27 89.373 89.373 0 0 0-3.678 3.269c.623 0 1.205.083 1.746.251.498.126.935.335 1.309.629.416.293.707.733.873 1.32.124.503.062.943-.187 1.32-.25.336-.561.587-.935.755-.375.126-.77.146-1.185.063-.374-.126-.665-.399-.873-.818a7.677 7.677 0 0 0-1.87-.44 11.41 11.41 0 0 0-1.996-.188l-.623.566a540.3 540.3 0 0 0-5.425 5.28c-1.87 1.887-3.346 3.92-4.427 6.099a33.01 33.01 0 0 0 4.49-1.258 60.62 60.62 0 0 0 4.55-1.823 86.13 86.13 0 0 0 4.428-2.137 52.07 52.07 0 0 0 4.053-2.452c1.58-1.635 3.18-3.228 4.801-4.778a127.934 127.934 0 0 1 5.05-4.59 98.58 98.58 0 0 1 3.18-2.703 44.938 44.938 0 0 1 3.305-2.452 3.375 3.375 0 0 1 1.499-.63c.582-.126 1.06.105 1.434.692.208.377.25.796.125 1.257a1.54 1.54 0 0 1-.686 1.006Z"/><path d="M95.632 24.28c-.956.084-1.912.252-2.868.503-.915.21-1.85.42-2.806.629a610.327 610.327 0 0 1-7.42 1.697c-2.453.503-4.947.88-7.482 1.132-.665.084-1.372.147-2.12.189-.707.041-1.434.02-2.183-.063a8.694 8.694 0 0 1-2.057-.503 5.142 5.142 0 0 1-1.808-1.006 4.008 4.008 0 0 1-1.06-1.32 3.665 3.665 0 0 1-.5-1.572 3.338 3.338 0 0 1 .125-1.572 3.223 3.223 0 0 1 .935-1.446c.292-.294.749-.524 1.372-.692a11.18 11.18 0 0 1 2.183-.44c.79-.083 1.58-.104 2.37-.063.789.042 1.475.189 2.057.44.582.252.977.608 1.184 1.07.25.418.23.963-.062 1.634-.25.503-.624.86-1.122 1.069-.499.21-1.06.356-1.684.44a14.84 14.84 0 0 1-1.933 0 43.505 43.505 0 0 1-1.746-.252c.167.168.5.315.998.44.499.084 1.019.147 1.559.189.582.042 1.102.063 1.559.063h.935a48.913 48.913 0 0 0 6.048-.88c2.037-.42 4.053-.86 6.048-1.32 1.455-.336 2.89-.671 4.303-1.006 1.455-.378 2.91-.65 4.364-.818.624-.042 1.144.105 1.56.44.415.336.685.734.81 1.195.124.419.062.817-.187 1.194-.208.378-.665.587-1.372.63Z"/><path d="M114.452 24.28c-2.12.042-4.282.105-6.485.19a24.085 24.085 0 0 1-6.484-.755 1.1 1.1 0 0 1-.499-.126 7.829 7.829 0 0 1-1.122 2.075 8.293 8.293 0 0 1-1.559 1.634 5.695 5.695 0 0 1-1.933 1.006c-.665.21-1.33.23-1.995.063-.624-.168-1.08-.482-1.372-.943a2.995 2.995 0 0 1-.561-1.572 4.316 4.316 0 0 1 .25-1.76c.166-.587.415-1.11.748-1.572a4.988 4.988 0 0 1 2.057-1.509c.832-.335 1.663-.377 2.495-.125.083-.587.415-1.048.997-1.384.582-.335 1.205-.293 1.87.126a8.56 8.56 0 0 0 1.995.88c.749.168 1.518.273 2.308.315.789.041 1.558.063 2.306.063.79-.042 1.539-.063 2.245-.063a30.8 30.8 0 0 0 2.681-.126c.957-.126 1.829-.063 2.619.189.458.167.769.44.935.817.208.377.271.754.188 1.131a1.663 1.663 0 0 1-.499 1.006c-.291.294-.686.44-1.185.44Zm-18.643.818c.125-.126.374-.189.748-.189v-.566a3.635 3.635 0 0 1-.374.315c-.166.083-.29.23-.374.44Z"/></g></svg>