<svg xmlns="http://www.w3.org/2000/svg" width="22" height="22" fill="none"><path fill="#212121" d="M10.825 7.026a3.976 3.976 0 0 0 0 7.952A3.984 3.984 0 0 0 14.803 11a3.98 3.98 0 0 0-3.978-3.974Z"/><path fill="#212121" d="M16.823.167H4.828A4.844 4.844 0 0 0-.008 5.003v11.995a4.84 4.84 0 0 0 4.836 4.836h11.995a4.838 4.838 0 0 0 4.836-4.836V5.003A4.84 4.84 0 0 0 16.823.167Zm-5.998 17.854c-3.87 0-7.02-3.15-7.02-7.02 0-3.87 3.15-7.016 7.02-7.016 3.87 0 7.02 3.146 7.02 7.016s-3.15 7.02-7.02 7.02Zm7.168-12.762a1.485 1.485 0 0 1-1.486-1.482c0-.819.667-1.486 1.486-1.486s1.486.667 1.486 1.486c0 .82-.667 1.482-1.486 1.482Z"/></svg>