<svg xmlns="http://www.w3.org/2000/svg" width="18" height="18" fill="none"><g fill="#000" clip-path="url(#a)"><path d="m10.683 13.148-.072-.038a1.039 1.039 0 0 1-.51-.986v-.316a1.041 1.041 0 0 1 .554-.955l.072-.036a.276.276 0 0 0 .136-.35l-.449-1.179a.277.277 0 0 0-.335-.169l-.052.02a1.044 1.044 0 0 1-1.064-.341 3.413 3.413 0 0 0-.216-.23 1.033 1.033 0 0 1-.277-1.074l.025-.078a.277.277 0 0 0-.146-.343l-1.147-.515a.277.277 0 0 0-.354.119l-.036.066a1.039 1.039 0 0 1-.995.51H5.5a1.044 1.044 0 0 1-.958-.574l-.036-.069a.277.277 0 0 0-.35-.141l-1.179.454a.277.277 0 0 0-.169.335l.022.072a1.041 1.041 0 0 1-.335 1.058 3.45 3.45 0 0 0-.23.219 1.044 1.044 0 0 1-1.082.277l-.072-.022a.277.277 0 0 0-.338.152l-.526 1.144a.277.277 0 0 0 .116.365l.072.042a1.033 1.033 0 0 1 .51.972v.318a1.04 1.04 0 0 1-.554.958l-.072.036a.277.277 0 0 0-.136.346l.449 1.183a.277.277 0 0 0 .335.166l.075-.02a1.044 1.044 0 0 1 1.063.341c.07.078.141.155.216.23a1.03 1.03 0 0 1 .277 1.072l-.025.077a.277.277 0 0 0 .147.344l1.157.518a.277.277 0 0 0 .355-.122l.036-.064a1.043 1.043 0 0 1 .988-.512h.316a1.047 1.047 0 0 1 .958.57l.036.072a.277.277 0 0 0 .344.133l1.182-.451a.277.277 0 0 0 .169-.335l-.044-.058a1.044 1.044 0 0 1 .337-1.061c.08-.07.158-.141.23-.216a1.043 1.043 0 0 1 1.083-.277l.075.025a.277.277 0 0 0 .338-.15l.523-1.157a.277.277 0 0 0-.119-.355Zm-3.021-.357a2.346 2.346 0 1 1-4.282-1.919 2.346 2.346 0 0 1 4.282 1.92Zm-.118-7.878-.044.022a.277.277 0 0 0-.139.346l.294.764a.277.277 0 0 0 .332.17l.047-.015a.573.573 0 0 1 .587.191c.047.053.097.103.147.153a.554.554 0 0 1 .152.592l-.016.05a.277.277 0 0 0 .15.344l.747.332a.277.277 0 0 0 .354-.108l.023-.042a.578.578 0 0 1 .553-.277h.214a.581.581 0 0 1 .526.319l.022.047a.277.277 0 0 0 .246.15.312.312 0 0 0 .1-.017l.762-.294a.277.277 0 0 0 .169-.332l-.014-.05a.57.57 0 0 1 .188-.584c.054-.046.106-.095.155-.147a.576.576 0 0 1 .598-.158l.05.014a.277.277 0 0 0 .338-.15l.335-.744a.277.277 0 0 0-.116-.355l-.045-.025a.579.579 0 0 1-.277-.554v-.21a.577.577 0 0 1 .31-.532l.048-.022a.277.277 0 0 0 .136-.346l-.289-.762a.277.277 0 0 0-.337-.169l-.05.014a.573.573 0 0 1-.587-.19 3.79 3.79 0 0 0-.144-.153.567.567 0 0 1-.155-.593l.016-.047a.277.277 0 0 0-.146-.346l-.748-.332a.277.277 0 0 0-.357.119l-.02.041a.573.573 0 0 1-.554.277 1.384 1.384 0 0 0-.213 0A.579.579 0 0 1 10.36.99l-.022-.047A.277.277 0 0 0 9.992.81l-.753.299a.277.277 0 0 0-.166.332v.05a.582.582 0 0 1-.189.584 1.563 1.563 0 0 0-.155.147.576.576 0 0 1-.598.15h-.05a.277.277 0 0 0-.324.121l-.335.745a.277.277 0 0 0 .114.363l.047.025a.57.57 0 0 1 .277.554v.213a.576.576 0 0 1-.316.52Zm1.905-1.21a1.615 1.615 0 1 1 1.47 2.276 1.617 1.617 0 0 1-1.482-2.276h.012Z"/><path d="m17.67 14.4-.044-.025a.578.578 0 0 1-.277-.554v-.21a.579.579 0 0 1 .31-.532l.047-.022a.277.277 0 0 0 .136-.346l-.291-.764a.277.277 0 0 0-.332-.17h-.05a.576.576 0 0 1-.587-.19 3.77 3.77 0 0 0-.144-.153.567.567 0 0 1-.155-.592l.019-.05a.277.277 0 0 0-.15-.344l-.747-.332a.277.277 0 0 0-.357.12l-.02.04a.573.573 0 0 1-.554.277h-.213a.579.579 0 0 1-.523-.307l-.022-.047a.277.277 0 0 0-.347-.133l-.764.294a.277.277 0 0 0-.166.332l.014.05a.576.576 0 0 1-.189.584 1.953 1.953 0 0 0-.155.147.575.575 0 0 1-.598.15h-.05a.277.277 0 0 0-.338.149l-.32.742a.277.277 0 0 0 .113.355l.047.024a.57.57 0 0 1 .277.554v.214a.576.576 0 0 1-.313.531l-.044.022a.276.276 0 0 0-.139.347l.294.764a.277.277 0 0 0 .332.169l.05-.014a.577.577 0 0 1 .587.191c.044.053.094.103.144.152a.554.554 0 0 1 .152.593l-.016.047a.277.277 0 0 0 .15.346l.747.332a.277.277 0 0 0 .354-.118l.022-.042a.582.582 0 0 1 .554-.277h.213a.582.582 0 0 1 .532.316l.022.047a.277.277 0 0 0 .247.15.313.313 0 0 0 .1-.017l.739-.308a.276.276 0 0 0 .169-.332v-.05a.57.57 0 0 1 .188-.584l.155-.147a.574.574 0 0 1 .598-.15l.05.014a.277.277 0 0 0 .321-.135l.335-.745a.277.277 0 0 0-.113-.363Zm-1.91-.105a1.615 1.615 0 1 1-2.948-1.325 1.615 1.615 0 0 1 2.947 1.325Z"/></g><defs><clipPath id="a"><path fill="#fff" d="M0 0h18v18H0z"/></clipPath></defs></svg>