<svg xmlns="http://www.w3.org/2000/svg" width="18" height="18" fill="none"><path fill="#000" d="M15 18a2.25 2.25 0 0 0 2.25-2.25h-4.5A2.25 2.25 0 0 0 15 18ZM3.375 18a2.25 2.25 0 0 0 2.25-2.25h-4.5A2.25 2.25 0 0 0 3.375 18Zm0-13.5h-2.25C.506 4.5 0 5.006 0 5.625v3C0 9.244.506 9.75 1.125 9.75h2.25V4.5Zm4.5-2.625a1.876 1.876 0 1 1-3.751-.002 1.876 1.876 0 0 1 3.751.002Z"/><path fill="#000" d="M14.352 10.56 13.832 9H15V7.875l-1.654-.331L12.831 6V3.375h-2.25l-.375 1.5h1.5V6H10.5L6 4.5H4.5v5.25h3.06l1.376 4.125 1.422-.475L8.88 8.962c-.131-.392-.575-.712-.987-.712H6V6.08l4.257 1.42h1.493l1.232 3.696L10.447 15H8.125L6.75 10.875H1.5c-.928.767-1.5 1.827-1.5 3v.75h6.418l.626 1.875h4.206l1.25-1.875H18V12.75l-3.648-2.19Z"/></svg>