<svg xmlns="http://www.w3.org/2000/svg" width="52" height="52" fill="none"><rect width="51" height="51" x=".5" y=".5" stroke="#fff" stroke-dasharray="2.6 2.6" stroke-miterlimit="8.229" rx="25.5"/><g clip-path="url(#a)"><path fill="#BEBEBE" d="M33 25.25a.75.75 0 0 1 0 1.5v-1.5Zm-15.53 1.28a.75.75 0 0 1 0-1.06l4.773-4.773a.75.75 0 0 1 1.06 1.06L19.061 26l4.242 4.243a.75.75 0 0 1-1.06 1.06L17.47 26.53ZM33 26v.75H18v-1.5h15V26Z"/></g><defs><clipPath id="a"><path fill="#fff" d="M17 20h17v12H17z"/></clipPath></defs></svg>