<svg xmlns="http://www.w3.org/2000/svg" width="18" height="18" fill="none"><g fill="#000" clip-path="url(#a)"><path d="M14.797 3.727C14.797 1.69 13.14 0 11.105 0c-.793 0-1.534.34-2.109.95C8.421.34 7.68 0 6.886 0c-2.035 0-3.69 1.691-3.69 3.727 0 2.047 1.501 3.103 3.241 4.327.717.505 1.46 1.027 2.214 1.681l.345.3.345-.3c.852-.737 1.663-1.314 2.378-1.823 1.72-1.224 3.078-2.191 3.078-4.185Zm-4.219 1.582H9.523v1.054H8.47V5.31H7.414V4.254H8.47V3.199h1.054v1.055h1.055v1.055Zm6.785-.486c-1.075 0-1.353 5-1.374 5.105-.107.733-.623 1.817-1.495 2.47l-2.284 1.658-.633-.844 2.285-1.658c.905-.679 1.317-1.837.186-1.837-1.013 0-2.906 1.173-3.467 1.638a2.924 2.924 0 0 0-1.058 2.251V18h3.165c0-.506.274-1.058.696-1.586.443-.58 1.075-1.17 1.73-1.772 1.244-1.17 2.534-2.372 2.703-3.596.1-.822.183-2.231.18-3.487-.006-1.407-.125-2.69-.634-2.736ZM7.287 11.257c-1.487-1.023-2.615-1.54-3.343-1.54-1.13 0-.718 1.158.187 1.837l2.284 1.658-.633.844-2.284-1.658c-.871-.653-1.387-1.737-1.495-2.47-.02-.105-.298-5.105-1.374-5.105-.59.053-.654 1.772-.622 3.418.02 1.202.116 2.373.168 2.805.17 1.224 1.46 2.426 2.704 3.597.654.6 1.287 1.191 1.73 1.771.421.528.696 1.08.696 1.586h3.164v-4.373c0-.932-.438-1.81-1.182-2.37Z"/></g><defs><clipPath id="a"><path fill="#fff" d="M0 0h18v18H0z"/></clipPath></defs></svg>