<svg xmlns="http://www.w3.org/2000/svg" width="36" height="32" fill="none"><path fill="#7EEA57" d="M20.962 17.422v-.636a3.845 3.845 0 0 0 3.248-3.793V8.837a2.07 2.07 0 0 0 1.772-2.045 2.07 2.07 0 0 0-2.067-2.067h-1.772V.59a.59.59 0 1 0-1.181 0v4.134h-6.497V.59a.59.59 0 1 0-1.18 0v4.134h-1.773a2.07 2.07 0 0 0-2.067 2.067 2.07 2.07 0 0 0 1.772 2.045v4.156a3.845 3.845 0 0 0 3.248 3.793v.636a2.365 2.365 0 0 0 2.363 2.363h.295v7.382a.59.59 0 0 0 1.181 0v-7.383h.295a2.365 2.365 0 0 0 2.363-2.362ZM10.627 6.792c0-.489.397-.886.885-.886h12.403a.887.887 0 0 1 0 1.772H11.512a.887.887 0 0 1-.886-.886Zm1.771 6.2V8.86h10.63v4.134a2.66 2.66 0 0 1-2.657 2.657h-5.315a2.66 2.66 0 0 1-2.658-2.657Zm3.248 4.43v-.59h4.134v.59c0 .651-.53 1.181-1.18 1.181h-1.772c-.652 0-1.182-.53-1.182-1.18Zm19.201-1.772h-2.362c-7.164 0-12.993 5.829-12.993 12.993 0 .55.004 1.102-.024 1.651-.021.414-.133 1.023.161 1.371.285.337.83.299 1.224.274a24.625 24.625 0 0 1 1.592-.048c7.165 0 12.993-5.828 12.993-12.992V16.24a.59.59 0 0 0-.59-.59Zm-.59 3.248c0 6.514-5.299 11.812-11.812 11.812h-.936l5.488-5.488a.59.59 0 0 0-.835-.835l-5.488 5.488v-1.232c0-6.513 5.298-11.812 11.811-11.812h1.772v2.067ZM15.764 31.6c.303-.387.255-.952.223-1.411a22.068 22.068 0 0 1-.041-1.546c0-7.164-5.829-12.993-12.993-12.993H.59a.59.59 0 0 0-.591.59v2.66C0 26.063 5.828 31.89 12.993 31.89c.72 0 1.466.21 2.18.048.284-.064.47-.183.591-.338ZM1.181 18.898v-2.067h1.772c6.513 0 11.812 5.3 11.812 11.812v1.232l-5.489-5.488a.59.59 0 0 0-.835.835l5.488 5.488h-.936C6.48 30.71 1.18 25.411 1.18 18.898Z"/></svg>