<svg xmlns="http://www.w3.org/2000/svg" width="35" height="38" fill="none"><path fill="#212121" d="M30.081 20.855c.09-.61.135-1.234.135-1.855 0-7.01-5.703-12.712-12.713-12.712a12.63 12.63 0 0 0-7.337 2.33 12.683 12.683 0 0 0-4.584 5.959.557.557 0 0 0 1.044.388 11.574 11.574 0 0 1 4.184-5.438 11.521 11.521 0 0 1 6.693-2.125c6.396 0 11.599 5.203 11.599 11.598 0 .567-.042 1.137-.123 1.694a.557.557 0 0 0 1.102.162Zm-1.008 1.92a.557.557 0 0 0-.718.324 11.577 11.577 0 0 1-4.188 5.393 11.523 11.523 0 0 1-6.666 2.106c-6.395 0-11.598-5.203-11.598-11.598 0-.54.038-1.084.112-1.615a.557.557 0 1 0-1.104-.154A12.867 12.867 0 0 0 4.79 19c0 7.01 5.703 12.712 12.713 12.712 2.633 0 5.16-.798 7.306-2.308a12.687 12.687 0 0 0 4.589-5.91.557.557 0 0 0-.324-.719ZM17.503 4.929c.307 0 .557-.25.557-.557V.557a.557.557 0 1 0-1.115 0v3.815c0 .308.25.557.558.557Zm0 28.142a.557.557 0 0 0-.558.557v3.815a.557.557 0 1 0 1.115 0v-3.815a.557.557 0 0 0-.557-.557ZM9.705 6.61a.557.557 0 1 0 .965-.557l-.818-1.416a.557.557 0 1 0-.965.557l.818 1.416Zm15.593 24.78a.557.557 0 0 0-.965.557l.817 1.416a.557.557 0 1 0 .965-.557l-.817-1.416ZM2.872 19.557a.557.557 0 0 0 0-1.114H1.237a.557.557 0 1 0 0 1.114h1.635Zm30.891-1.114h-1.636a.557.557 0 1 0 0 1.114h1.636a.557.557 0 0 0 0-1.114ZM10.466 31.186a.557.557 0 0 0-.761.204l-.818 1.416a.557.557 0 1 0 .965.557l.818-1.416a.557.557 0 0 0-.204-.761ZM24.537 6.814a.554.554 0 0 0 .76-.204l.818-1.416a.557.557 0 1 0-.965-.557l-.817 1.416a.557.557 0 0 0 .204.761Zm-23.29 3.447 3.304 1.907a.554.554 0 0 0 .761-.204.557.557 0 0 0-.204-.76L1.805 9.295a.557.557 0 1 0-.558.965Zm32.502 17.478-3.304-1.907a.557.557 0 1 0-.557.965l3.304 1.907a.554.554 0 0 0 .76-.204.557.557 0 0 0-.203-.761ZM4.551 25.832l-3.304 1.907a.557.557 0 0 0 .558.965l3.303-1.907a.557.557 0 1 0-.557-.965Zm25.616-13.589a.55.55 0 0 0 .278-.075l3.304-1.907a.557.557 0 0 0-.557-.965l-3.304 1.907a.557.557 0 0 0 .28 1.04Z"/></svg>