<svg xmlns="http://www.w3.org/2000/svg" width="18" height="18" fill="none"><path fill="#000" fill-rule="evenodd" d="M17.056 8.418v8.286c0 .716-.52 1.296-1.16 1.296h-4.523v-6.413c0-.292-.212-.53-.473-.53H7.11c-.262 0-.474.238-.474.53V18H2.113c-.64 0-1.16-.58-1.16-1.296V8.417c.153.036.312.054.473.054.775 0 1.462-.416 1.895-1.06.432.644 1.119 1.06 1.893 1.06.777 0 1.464-.416 1.895-1.06.434.644 1.12 1.06 1.896 1.06.774 0 1.461-.416 1.895-1.06.067.1.14.194.22.286a2.247 2.247 0 0 0 1.675.774c.774 0 1.461-.416 1.893-1.06.433.644 1.12 1.06 1.895 1.06.16 0 .32-.018.473-.053ZM0 4.235v1.589C0 6.7.636 7.412 1.42 7.412c.786 0 1.422-.711 1.422-1.588V4.235H0Z" clip-rule="evenodd"/><path fill="#000" fill-rule="evenodd" d="M3.79 4.235v1.589c0 .877.635 1.588 1.42 1.588.785 0 1.42-.711 1.42-1.588V4.235H3.79Zm3.788 0v1.589c0 .877.636 1.588 1.421 1.588S10.42 6.7 10.42 5.824V4.235H7.578Zm7.578 0v1.589c0 .877.636 1.588 1.421 1.588s1.421-.711 1.421-1.588V4.235h-2.842Zm-3.789 0v1.589c0 .421.15.825.416 1.123a1.35 1.35 0 0 0 1.005.465c.785 0 1.421-.711 1.421-1.588V4.235h-2.842ZM16.61.716l1.1 2.46H.297l1.1-2.46C1.594.277 1.995 0 2.434 0h13.138c.44 0 .84.277 1.037.716Z" clip-rule="evenodd"/></svg>