<svg xmlns="http://www.w3.org/2000/svg" width="278" height="137" fill="none"><g fill="#BEBEBE" clip-path="url(#a)"><path d="M217.43 112.184H112.594v.973H217.43v-.973Zm58.444-19.444c0-7.68-1.118-13.266-3.239-16.546-3.997-6.277-13.41-10.481-23.34-14.93a139.044 139.044 0 0 1-16.377-8.184c-3.316-2.063-7.916-5.713-13.245-9.937-15.492-12.282-38.9-30.841-57.378-30.841-38.9 0-71.518.32-77.508 4.214C79.428 20 68.692 36.603 61.242 55.776l-.914-.36c7.527-19.338 18.478-36.146 23.924-39.708 6.234-4.058 37.636-4.38 78.043-4.38 18.77 0 42.343 18.686 57.942 31.056 5.368 4.166 9.9 7.806 13.148 9.869a137.537 137.537 0 0 0 16.251 8.116c10.104 4.516 19.644 8.76 23.797 15.3 2.227 3.484 3.365 9.236 3.394 17.109l-.953-.039ZM52.907 88.564a59.137 59.137 0 0 1 .69-9.285 55.09 55.09 0 0 1 .973-4.963l.972.204a93.427 93.427 0 0 0-.914 4.915 58.241 58.241 0 0 0-.67 9.129h-1.051Zm221.844 24.798-9.939-.117v-.973l9.929.117a.728.728 0 0 0 .681-.575 124.842 124.842 0 0 0 1.614-17.294.666.666 0 0 0-.204-.486.658.658 0 0 0-.486-.205H259.93v-.973h16.416a1.664 1.664 0 0 1 1.186.496c.309.318.48.744.477 1.188a126.356 126.356 0 0 1-1.625 17.43 1.652 1.652 0 0 1-1.633 1.392Zm-209.017-.282c-3.695-.283-6.097-1.373-8.042-3.65-4.464-5.207-5.67-13.187-5.894-18.959a1.648 1.648 0 0 1 .457-1.206 1.682 1.682 0 0 1 1.197-.506h30.915v.973H53.471a.691.691 0 0 0-.496.204.672.672 0 0 0-.185.496c.214 5.626 1.381 13.373 5.66 18.365 1.76 2.064 3.968 3.056 7.372 3.309l-.088.974Z"/><path d="M267.632 112.671h-.972c0-12.74-7.907-26.462-25.285-26.462-16.591 0-25.285 13.313-25.285 26.462h-.973c0-13.625 9.015-27.436 26.258-27.436 17.242 0 26.257 13.8 26.257 27.436ZM89.178 136.593a23.911 23.911 0 0 1-22.085-14.768 23.937 23.937 0 0 1 5.182-26.07 23.888 23.888 0 0 1 26.05-5.186 23.93 23.93 0 0 1 14.757 22.101 23.955 23.955 0 0 1-7.007 16.911 23.915 23.915 0 0 1-16.897 7.012Zm0-46.861A22.92 22.92 0 0 0 76.436 93.6a22.963 22.963 0 0 0-3.47 35.31 22.923 22.923 0 0 0 35.283-3.488 22.956 22.956 0 0 0-2.863-28.97 22.931 22.931 0 0 0-16.208-6.72Z"/><path d="M89.18 129.566a16.877 16.877 0 0 1-15.598-10.43 16.904 16.904 0 0 1 3.66-18.412 16.88 16.88 0 0 1 18.398-3.662 16.887 16.887 0 0 1 10.422 15.609 16.92 16.92 0 0 1-4.95 11.941 16.898 16.898 0 0 1-11.932 4.954Zm0-32.808a15.902 15.902 0 0 0-14.7 9.832 15.932 15.932 0 0 0 3.453 17.353 15.907 15.907 0 0 0 17.342 3.445 15.929 15.929 0 0 0 9.815-14.717 15.95 15.95 0 0 0-4.669-11.247 15.926 15.926 0 0 0-11.242-4.666Zm152.208 39.835a23.91 23.91 0 0 1-22.084-14.768 23.934 23.934 0 0 1 5.182-26.07 23.897 23.897 0 0 1 26.05-5.185 23.93 23.93 0 0 1 14.757 22.101 23.964 23.964 0 0 1-7.01 16.907 23.928 23.928 0 0 1-16.895 7.015Zm0-46.861a22.923 22.923 0 0 0-21.186 14.169 22.963 22.963 0 0 0 4.975 25.01 22.922 22.922 0 0 0 35.283-3.488 22.956 22.956 0 0 0 3.86-12.752 22.978 22.978 0 0 0-6.725-16.215 22.946 22.946 0 0 0-16.207-6.724Z"/><path d="M241.383 129.566a16.88 16.88 0 0 1-15.598-10.43 16.907 16.907 0 0 1 3.66-18.412 16.878 16.878 0 0 1 18.398-3.662 16.887 16.887 0 0 1 10.422 15.609 16.911 16.911 0 0 1-4.947 11.944 16.885 16.885 0 0 1-11.935 4.951Zm0-32.808a15.906 15.906 0 0 0-14.7 9.832 15.928 15.928 0 0 0 3.453 17.353 15.907 15.907 0 0 0 17.342 3.445 15.929 15.929 0 0 0 9.815-14.717 15.944 15.944 0 0 0-4.666-11.25 15.916 15.916 0 0 0-11.244-4.663Zm-8.661-40.525-6.146-.671c-33.814-3.689-88.877-6.21-110.982-7.115l-1.828-.087.262-1.82c.973-6.813 3.161-19.786 6.574-30.287l.36-1.12h1.177c13.615-.301 28.99-.301 40.193-.301 17.506 0 40.534 18.219 55.754 30.287 3.521 2.793 6.808 5.43 9.657 7.474l4.979 3.64Zm-117.867-8.759h.758c22.115.915 77.208 3.436 111.051 7.124l2.548.273-2.072-1.509c-2.82-2.063-6.156-4.7-9.725-7.503-15.113-11.98-37.928-30.073-55.151-30.073-11.193 0-26.53 0-40.164.301h-.486l-.156.468c-3.384 10.433-5.543 23.357-6.535 30.121l-.068.798Z"/><path d="M197.208 109.673h-68.853a11.859 11.859 0 0 1-8.626-4.019c-9.56-9.859-12.468-34.842-12.05-48.282h.973c-.409 13.275 2.421 37.956 11.777 47.581a10.898 10.898 0 0 0 7.926 3.747h68.853c7.527 0 14.062-19.97 17.943-54.793l.972.107c-2.324 20.76-7.858 55.659-18.915 55.659Zm-87.982-59.289-.973-.156a242.247 242.247 0 0 1 7.741-33.985l.973.292c-1.692 5.13-4.882 16.36-7.741 33.82v.03Zm-11.439-2.628h-1.041c-11.466-.408-21.103-.661-26.452-.72h-2.606l1.137-2.355c6.808-14.083 13.878-23.747 17.35-26.005 1.624-1.06 5.835-2.374 24.478-3.143l2.596-.107-.972 2.403c-4.017 9.645-10.484 22.385-13.975 29.061l-.516.866Zm-.973-.973h.418l.204-.38c3.492-6.695 9.939-19.376 13.946-28.992l.409-.973h-1.07c-13.936.574-21.784 1.547-23.982 2.978-3.365 2.19-10.29 11.679-17.01 25.625l-.466.973h1.08c5.348.059 14.995.321 26.461.72l.01.05ZM58.77 64.827c-2.208 0-2.208-2.112-2.208-3.377 0-1.266 0-3.377 2.208-3.377 1.313 0 8.062 1.177 8.062 3.377 0 2.2-6.749 3.377-8.062 3.377Zm0-5.781c-.972 0-1.235.516-1.235 2.404s.253 2.404 1.235 2.404c2.062 0 7.09-1.45 7.09-2.404s-5.028-2.385-7.09-2.385v-.02Zm-2.385 12.817c-2.197 0-2.197-2.121-2.197-3.386 0-1.266 0-3.378 2.197-3.378 1.313 0 8.062 1.178 8.062 3.377 0 2.2-6.71 3.387-8.062 3.387Zm0-5.79c-.972 0-1.225.515-1.225 2.404 0 1.888.263 2.413 1.225 2.413 2.062 0 7.09-1.45 7.09-2.413 0-.964-4.989-2.404-7.09-2.404Z"/><path d="M122.909 61.09c-3.822 0-6.925-1.538-6.925-3.416 0-1.879 3.103-3.416 6.925-3.416 3.822 0 6.924 1.527 6.924 3.416 0 1.888-3.102 3.416-6.924 3.416Zm0-5.84c-3.638 0-5.952 1.44-5.952 2.443 0 1.003 2.314 2.443 5.952 2.443 3.637 0 5.951-1.45 5.951-2.443 0-.993-2.314-2.462-5.951-2.462v.02Zm149.51 23.28c-4.795 0-11.418-4.496-14.024-6.861-2.353-2.141-3.209-3.592-2.781-4.71.428-1.12 1.945-1.568 4.687-1.568v.974c-3.083 0-3.666.661-3.783.973-.175.457.127 1.46 2.529 3.64 3.131 2.842 10.697 7.63 14.83 6.413l.273.973a6.577 6.577 0 0 1-1.731.166ZM79.111 69.77a5.172 5.172 0 0 1-4.78-3.198 5.181 5.181 0 0 1 1.125-5.643 5.173 5.173 0 0 1 8.829 3.674 5.17 5.17 0 0 1-5.174 5.168Zm0-9.371a4.199 4.199 0 0 0-3.881 2.595 4.207 4.207 0 0 0 3.062 5.733 4.199 4.199 0 0 0 5.02-4.124 4.204 4.204 0 0 0-4.2-4.234v.03Zm124.763-8.146h-1.119c-1.585-.068-6.807-.458-7.332-2.745a3.648 3.648 0 0 1 .972-3.056 14.71 14.71 0 0 1 10.046-4.807 6.268 6.268 0 0 1 5.125 2.53 5.9 5.9 0 0 1 .749 5.372c-.642 1.927-4.629 2.706-8.441 2.706Zm2.538-9.664a13.738 13.738 0 0 0-9.278 4.438 2.81 2.81 0 0 0-.768 2.228c.243.973 2.917 1.85 6.428 1.995 4.376.185 8.15-.71 8.587-2.034a4.858 4.858 0 0 0 .252-2.329 4.86 4.86 0 0 0-.864-2.177 5.352 5.352 0 0 0-4.338-2.121h-.019Zm41.237 24.437c0 .623-1.138 1.13-2.548 1.13-1.41 0-2.539-.507-2.539-1.13 0-.623 1.138-1.119 2.539-1.119 1.4 0 2.548.496 2.548 1.12ZM30.98 128.301H5.813V25.508a3.213 3.213 0 0 1 3.21-3.211h1.313v.973H9.022a2.236 2.236 0 0 0-2.237 2.238v101.82h23.243V25.508a2.24 2.24 0 0 0-2.237-2.238h-1.313v-.973h1.313a3.208 3.208 0 0 1 3.21 3.211l-.02 102.793Z"/><path d="M26.952 43.494H9.836V19.6h17.116v23.893Zm-16.144-.974H25.98V20.574H10.808V42.52Zm16.144 7.68H9.836v-5.013h17.116V50.2Zm-16.144-.974H25.98V46.16H10.808v3.066Zm4.307 27.562c1.03 5.84 9.229 6.55 5.28 11.776-.515-.633-1.108-1.314-1.672-2.005-.8-.94-1.501-1.961-2.091-3.046a7.87 7.87 0 0 1-.496-1.12l-.156-.447s0 .165.098.457c.091.404.211.801.36 1.188a18.28 18.28 0 0 0 1.74 3.357c.496.789.973 1.548 1.43 2.229-6.779 1.732-4.93-6.647-4.493-12.39Z"/><path d="m19.987 89.07.408-.506c.263.311.506.623.72.905.214.282.301.399.418.594.116.194.243.37.32.506l.224.409v.077a.671.671 0 0 1-.379.876.69.69 0 0 1-.875-.38l-.165-.427c-.059-.137-.127-.273-.205-.438-.078-.166-.204-.37-.31-.584-.108-.215-.36-.594-.565-.915l.409-.117Zm-2.324 21.995a.67.67 0 0 0 .671-.672c0-2.15 1.274-4.574 2.51-6.909 1.643-3.125 3.345-6.356 2.333-9.402a.663.663 0 0 0-.846-.428.67.67 0 0 0-.428.847c.827 2.5-.67 5.343-2.256 8.36-1.303 2.481-2.655 5.051-2.655 7.532a.666.666 0 0 0 .197.475.667.667 0 0 0 .474.197Z"/><path d="M14.969 113.897h5.436c0-1.946-1.206-3.504-2.694-3.504s-2.742 1.567-2.742 3.504Z"/><path d="M19.009 116.583a.67.67 0 0 0 .67-.671v-2.015h-1.35v2.015a.671.671 0 0 0 .68.671Zm-2.689 0a.671.671 0 0 0 .67-.671v-2.015h-1.342v2.015a.669.669 0 0 0 .672.671Zm2.07-82.15a3.889 3.889 0 0 1-3.594-2.403 3.896 3.896 0 0 1 2.835-5.308 3.888 3.888 0 0 1 4.649 3.818 3.895 3.895 0 0 1-3.89 3.893Zm0-6.735a2.916 2.916 0 0 0-2.861 3.49 2.92 2.92 0 0 0 3.977 2.127 2.919 2.919 0 0 0 .947-4.762 2.916 2.916 0 0 0-2.063-.855Z"/><path d="M43.052 110.987a9.511 9.511 0 0 1-1.896-.194c-20.666-4.283-23.03-77.401-23.117-80.506h.973c0 .75 2.421 75.454 22.367 79.581 9.725 2.024 22.232-13.148 37.14-45.07l.885.408C65.137 95.6 52.971 110.987 43.052 110.987Zm142.865-69.514-3.355 9.052.912.338 3.355-9.052-.912-.338Zm-149.143 95.12H-.016v-9.265h36.77l.02 9.265ZM.976 135.62h34.826v-7.319H.957l.02 7.319ZM102.454 13.372a.48.48 0 0 1-.409-.224L93.983.75a.486.486 0 0 1 .146-.671.476.476 0 0 1 .671.146l8.062 12.399a.49.49 0 0 1-.408.75Z"/></g><defs><clipPath id="a"><path fill="#fff" d="M0 0h278v136.593H0z"/></clipPath></defs></svg>