<svg xmlns="http://www.w3.org/2000/svg" width="101" height="22" fill="none"><g clip-path="url(#a)"><mask id="b" width="101" height="22" x="0" y="0" maskUnits="userSpaceOnUse" style="mask-type:luminance"><path fill="#fff" d="M100.315.5H.215v21h100.1V.5Z"/></mask><g fill="#686868" mask="url(#b)"><path d="M7.828 21.026c-2.049-.067-3.597-.53-4.645-1.388-1.047-.881-1.804-1.863-2.27-2.947a8.577 8.577 0 0 1-.698-3.353A8.88 8.88 0 0 1 .878 9.95c.466-1.107 1.223-2.09 2.27-2.947C4.22 6.124 5.57 5.672 7.2 5.649h11.315c1.63.023 2.969.474 4.017 1.355 1.07.858 1.827 1.84 2.27 2.947a8.498 8.498 0 0 1 .698 3.387 8.58 8.58 0 0 1-.698 3.353c-.466 1.084-1.223 2.066-2.27 2.947-1.048.858-2.597 1.32-4.645 1.388H7.828ZM7.06 10.188c-.442 0-.827.18-1.152.542a3.26 3.26 0 0 0-.734 1.219c-.14.452-.21.903-.21 1.355 0 .474.07.948.21 1.422.163.452.408.858.733 1.22.326.339.71.52 1.153.542h11.595a1.673 1.673 0 0 0 1.152-.542c.326-.361.56-.768.699-1.22.163-.474.244-.948.244-1.422 0-.452-.081-.903-.244-1.355a2.917 2.917 0 0 0-.699-1.22c-.326-.36-.71-.541-1.152-.541H7.06Zm44.633-2.575c0 .565-.233 1.039-.698 1.423-.442.361-.99.542-1.642.542H34.58c-.302 0-.547.056-.733.17a1.337 1.337 0 0 0-.42.372c-.092.113-.139.214-.139.305 0 .112.047.237.14.372.093.113.233.226.419.339.186.09.43.147.733.17H46c1.467.022 2.678.304 3.633.846.954.52 1.63 1.14 2.025 1.863.42.7.629 1.411.629 2.134 0 .7-.21 1.411-.629 2.134-.419.7-1.105 1.32-2.06 1.862-.931.52-2.13.78-3.597.78a7.151 7.151 0 0 1-.56.033h-13.55c-.652 0-1.21-.18-1.676-.542-.442-.383-.664-.846-.664-1.388 0-.565.233-1.039.699-1.423.442-.361.99-.542 1.641-.542H46.28c.35.023.628-.022.838-.135.233-.113.408-.237.524-.373.117-.135.175-.27.175-.406 0-.068-.058-.18-.175-.339a1.052 1.052 0 0 0-.524-.406c-.21-.113-.489-.181-.838-.204H34.825c-1.35-.022-2.468-.293-3.353-.813-.885-.542-1.513-1.162-1.886-1.863-.372-.7-.559-1.4-.559-2.1 0-.7.187-1.388.56-2.066.395-.7 1.024-1.298 1.885-1.795.885-.52 2.002-.801 3.353-.847a6.07 6.07 0 0 1 .524-.033h14.004c.652 0 1.2.192 1.642.575.465.362.698.813.698 1.355ZM58.574.5a2.351 2.351 0 0 1 1.606.678 2.1 2.1 0 0 1 .699 1.524V19.3c-.14 1.355-.908 2.088-2.305 2.201a2.596 2.596 0 0 1-1.711-.61 2.078 2.078 0 0 1-.699-1.591V2.702a2.084 2.084 0 0 1 .734-1.558A2.387 2.387 0 0 1 58.574.5Zm13.969 20.526c-2.049-.067-3.597-.53-4.645-1.388-1.047-.881-1.804-1.863-2.27-2.947a8.576 8.576 0 0 1-.698-3.353 8.88 8.88 0 0 1 .663-3.387c.466-1.107 1.223-2.09 2.27-2.947 1.071-.88 2.422-1.332 4.052-1.355H83.23c1.63.023 2.969.474 4.016 1.355 1.071.858 1.828 1.84 2.27 2.947a8.497 8.497 0 0 1 .699 3.387 8.58 8.58 0 0 1-.699 3.353c-.465 1.084-1.222 2.066-2.27 2.947-1.047.858-2.596 1.32-4.645 1.388H72.543Zm-.768-10.838c-.442 0-.827.18-1.153.541-.326.34-.57.746-.733 1.22a4.56 4.56 0 0 0-.21 1.355c0 .474.07.948.21 1.422.163.452.407.858.733 1.22.326.338.71.519 1.153.542H83.37a1.673 1.673 0 0 0 1.152-.542c.326-.362.56-.768.699-1.22.163-.474.244-.948.244-1.422a3.97 3.97 0 0 0-.244-1.355 2.917 2.917 0 0 0-.699-1.22c-.326-.36-.71-.541-1.152-.541H71.775Zm25.94 11.313a2.5 2.5 0 1 0 0-5 2.5 2.5 0 0 0 0 5Z"/></g></g><defs><clipPath id="a"><path fill="#fff" d="M0 .5h101v21H0z"/></clipPath></defs></svg>