<svg xmlns="http://www.w3.org/2000/svg" width="44" height="46" fill="none"><path fill="#212121" fill-rule="evenodd" d="M7.975 43.35c-3.604 1.585-5.995 2.044-5.995 2.044A1.565 1.565 0 0 1 .146 44.16a1.564 1.564 0 0 1 1.234-1.833s1.954-.39 4.958-1.675c.002.791.033 1.237.033 1.237.054.76.652 1.371 1.41 1.444.065.006.13.01.194.017Z" clip-rule="evenodd"/><path fill="#7EEA57" fill-rule="evenodd" d="M12.738 15.535c-2.934 3.548-4.863 7.427-6.13 11.098-3.656-4.831-4.043-10.579-3.345-15.406.8-5.54 3.02-9.806 3.02-9.806A1.558 1.558 0 0 1 8.104.64c6.08 1.758 10.459 4.377 13.604 7.38a32.982 32.982 0 0 0-6.635 4.982 43.227 43.227 0 0 1-.498-1.32 1.563 1.563 0 0 0-2.942 1.055c.344.955.713 1.888 1.105 2.798Z" clip-rule="evenodd"/><path fill="#212121" fill-rule="evenodd" d="M6.336 40.652c-.01-4.115.78-17.592 10.923-26.83 5.158-4.7 12.738-8.337 23.906-9.022a1.563 1.563 0 0 1 1.607 1.162s1.927 7.273.775 15.392c-.786 5.538-3 11.444-8.096 15.798-5.323 4.55-13.867 7.458-27.477 6.198 5.85-2.573 14.898-8.115 22.108-19.486a1.563 1.563 0 0 0-2.64-1.675c-6.958 10.975-15.72 16.157-21.106 18.463Z" clip-rule="evenodd"/></svg>