<svg xmlns="http://www.w3.org/2000/svg" width="24" height="33" fill="none"><path fill="#7B7B7B" d="M22.735 10.63C21.4 8.092 17.403.48 17.403.48a.546.546 0 0 0-.968 0l-3.736 7.106C11.65 5.656 10.907 4.3 10.907 4.3a.546.546 0 0 0-.959 0c-.064.115-6.376 11.62-8.214 15.332-1.614 3.262-1.625 6.605-.03 9.175C3.36 31.472 6.539 33 10.428 33c3.89 0 7.069-1.529 8.723-4.193 1.596-2.57 1.585-5.913-.03-9.176l-.048-.095a6.356 6.356 0 0 0 3.831-3.358 6.194 6.194 0 0 0-.168-5.549Zm-4.514 17.6c-1.45 2.336-4.291 3.676-7.794 3.676-3.502 0-6.343-1.34-7.793-3.676-1.392-2.241-1.362-5.198.08-8.113 1.53-3.091 6.198-11.646 7.713-14.415.384.703.973 1.783 1.66 3.05-.39.747-.735 1.403-.984 1.878a6.191 6.191 0 0 0 .14 6.129 6.54 6.54 0 0 0 5.676 3.116 7.096 7.096 0 0 0 1.055-.087c.06.115.114.226.166.33 1.443 2.914 1.472 5.871.08 8.112Zm3.692-12.515a5.311 5.311 0 0 1-3.747 2.936 5.94 5.94 0 0 1-1.247.13 5.455 5.455 0 0 1-4.74-2.588 5.04 5.04 0 0 1-.108-5.055c.279-.53.672-1.28 1.12-2.137l3.728-7.09c1.105 2.103 3.799 7.233 4.848 9.227a5.044 5.044 0 0 1 .146 4.577Zm-5.658 9.761a5.344 5.344 0 0 1-5.453 4.243.547.547 0 0 1 0-1.094 4.254 4.254 0 0 0 4.392-3.414.547.547 0 0 1 1.06.265Z"/></svg>