<svg xmlns="http://www.w3.org/2000/svg" width="91" height="30" fill="none"><mask id="a" width="91" height="28" x="0" y="1" maskUnits="userSpaceOnUse" style="mask-type:luminance"><path fill="#fff" d="M90.555 1H.955v28h89.6V1Z"/></mask><g fill="#686868" mask="url(#a)"><path d="m49.072 23.035-6.09-7.616 5.702-6.735H44.92l-5.078 6.412V8.684h-3.055v14.351h3.055v-4.41l1.12-1.334 4.346 5.744h3.764Z"/><path d="M56.255 23.293c4.346 0 7.51-3.098 7.51-7.423 0-4.324-3.164-7.423-7.51-7.423-4.325 0-7.487 3.099-7.487 7.423 0 4.325 3.162 7.423 7.487 7.423Zm0-2.71c-2.646 0-4.346-2.045-4.346-4.713 0-2.69 1.7-4.712 4.346-4.712 2.647 0 4.368 2.023 4.368 4.712 0 2.668-1.721 4.712-4.368 4.712Zm17.442 2.452c2.732 0 4.174-1.721 4.174-3.873 0-1.807-1.226-3.292-2.754-3.528 1.356-.28 2.474-1.485 2.474-3.292 0-1.915-1.398-3.658-4.13-3.658h-7.553v14.351h7.789Zm-.904-8.606h-3.83v-3.12h3.83c1.033 0 1.679.667 1.679 1.57 0 .904-.646 1.55-1.679 1.55Zm.108 5.96h-3.938v-3.335h3.938c1.205 0 1.85.774 1.85 1.678 0 1.033-.688 1.657-1.85 1.657Zm17.429 2.646v-2.69h-7.1v-3.248h6.95v-2.69h-6.95v-3.033h7.1v-2.69H80.175v14.351H90.33Zm-62.18-14.7V4.876H16.312V1h-3.787v3.876H.955v3.46h11.6v3.13H3.758v13.926h3.578V14.926h5.219V29h3.697V14.925h5.696v6.56c0 .329-.15.478-.627.478s-2.236 0-3.727-.06c.507.954 1.044 2.475 1.193 3.489 2.326 0 4.025-.06 5.278-.596 1.222-.537 1.58-1.551 1.58-3.25v-10.08h-9.393v-3.13H28.15Z"/></g></svg>