<svg xmlns="http://www.w3.org/2000/svg" width="36" height="29" fill="none"><path fill="#7B7B7B" d="M33.814 10.97a5.798 5.798 0 0 0-4.454-1.753.143.143 0 0 1-.114-.037c-.1-.367-.02-.8-.126-1.193-.613-4.013-5.63-6.095-8.878-3.643-.098.053-.16.04-.208-.064a5.666 5.666 0 0 0-10.8.306.122.122 0 0 1-.138.077 4.874 4.874 0 0 0-5.38 5.691.12.12 0 0 1-.076.14A4.858 4.858 0 0 0 .503 14.95c-.112 2.962 2.745 5.325 5.643 4.968a5.59 5.59 0 0 0 3.345 2.665 3.985 3.985 0 0 0 3.917 4.644c.692-.034 2.275-.158 1.923-1.173a.625.625 0 0 0-.828-.307 2.728 2.728 0 1 1-1.095-5.227c.668-.105 1.499.719 1.923-.075.329-1.03-1.21-1.131-1.923-1.174A3.98 3.98 0 0 0 9.89 21.4a4.355 4.355 0 0 1-2.656-2.094 1.334 1.334 0 0 0-1.365-.659c-4.219.442-5.772-5.404-1.78-6.986a1.365 1.365 0 0 0 .857-1.526 3.624 3.624 0 0 1 4.002-4.231 1.37 1.37 0 0 0 1.486-.975 4.417 4.417 0 0 1 8.421-.236 1.378 1.378 0 0 0 2.116.666 4.34 4.34 0 0 1 2.804-.814A4.447 4.447 0 0 1 27.89 8.2c.05.28.071.563.065.846a1.39 1.39 0 0 0 1.461 1.419c5.475-.158 6.658 7.502 1.399 9.024a4.624 4.624 0 0 1-3.988-.787 1.359 1.359 0 0 0-2.04.437 4.407 4.407 0 0 1-1.767 1.839 3.987 3.987 0 0 0-7.24 2.271c.184 5.26 7.77 5.268 7.956 0 0-.384-.056-.766-.167-1.134a5.663 5.663 0 0 0 2.333-2.412c.025-.041.093-.065.168-.008 5.818 4.223 12.664-3.423 7.744-8.726ZM19.758 25.977a2.73 2.73 0 0 1 0-5.458 2.729 2.729 0 0 1 0 5.458Z"/><path fill="#7B7B7B" d="M28.577 24.23c-.882-2.072-3.956-1.151-3.913.987a.625.625 0 0 0 1.25 0 .913.913 0 0 1 .907-.912.66.66 0 0 1 .467 1.12l-2.245 2.308A.751.751 0 0 0 25.578 29h2.485a.625.625 0 0 0 0-1.249h-1.294l1.415-1.454a1.883 1.883 0 0 0 .393-2.067Z"/></svg>