<svg xmlns="http://www.w3.org/2000/svg" width="108" height="30" fill="none"><mask id="a" width="108" height="28" x="0" y="1" maskUnits="userSpaceOnUse" style="mask-type:luminance"><path fill="#fff" d="M107.956 1H0v28h107.956V1Z"/></mask><g fill="#686868" mask="url(#a)"><path d="M42.262 23.77c-1.714 0-3.16-.242-4.337-.726-1.16-.485-2.034-1.17-2.622-2.052-.589-.9-.883-1.956-.883-3.168v-.156h2.804v.416c0 .692.156 1.272.468 1.74.311.45.83.796 1.558 1.038.727.225 1.731.338 3.012.338 1.108 0 1.991-.078 2.649-.234.658-.173 1.125-.433 1.402-.78.295-.363.442-.813.442-1.35 0-.761-.242-1.315-.727-1.662-.485-.346-1.273-.623-2.363-.83l-4.26-.702c-.969-.19-1.834-.467-2.596-.83-.762-.381-1.36-.884-1.792-1.507-.416-.64-.623-1.437-.623-2.389 0-.623.138-1.238.415-1.844.277-.606.71-1.151 1.299-1.636.588-.485 1.35-.865 2.285-1.142.952-.295 2.112-.442 3.48-.442 1.696 0 3.09.26 4.18.78 1.092.519 1.896 1.228 2.416 2.129.536.883.805 1.895.805 3.038v.156h-2.779v-.338c0-.71-.156-1.298-.467-1.766-.312-.484-.823-.84-1.532-1.064-.71-.243-1.671-.364-2.883-.364-1.056 0-1.913.087-2.57.26-.641.173-1.109.432-1.403.779-.295.329-.442.761-.442 1.298 0 .485.104.883.312 1.195.208.311.528.563.96.753.433.173.988.338 1.663.493l4.233.727c1.16.208 2.12.52 2.882.935.78.416 1.36.944 1.74 1.584.38.641.572 1.385.572 2.234 0 .883-.251 1.714-.754 2.493-.502.779-1.29 1.41-2.363 1.896-1.073.467-2.467.7-4.18.7Zm15.47-.259h-3.48l-3.87-12.907h2.909l2.155 7.324.597 3.324h.208l.96-3.584 2.702-7.064h3.583l2.727 7.064.96 3.584h.209l.597-3.324 2.155-7.324h2.857L69.08 23.511H65.6l-2.83-7.427-.988-3.168h-.207l-.987 3.168-2.857 7.427Zm19.498 0h-2.805V10.604h2.805v12.907Zm0-14.413h-2.805V6.112h2.805v2.986Zm8.7 14.673c-2.078 0-3.688-.399-4.83-1.195-1.125-.796-1.688-1.939-1.688-3.428v-.078h2.804v.208c0 .848.278 1.437.831 1.766.572.311 1.532.467 2.883.467 1.264 0 2.12-.13 2.57-.39.468-.276.702-.7.702-1.272 0-.536-.182-.917-.545-1.142-.347-.225-.987-.399-1.922-.52l-3.532-.467c-1.229-.156-2.19-.502-2.882-1.039-.693-.554-1.04-1.376-1.04-2.467 0-.762.226-1.428.676-2 .45-.588 1.125-1.047 2.026-1.376.9-.329 2.008-.493 3.324-.493 1.316 0 2.44.173 3.376.52.952.345 1.68.865 2.181 1.557.52.693.78 1.55.78 2.571v.078h-2.78v-.156c0-.502-.103-.926-.311-1.272-.208-.347-.58-.606-1.117-.78-.52-.19-1.255-.285-2.207-.285-1.195 0-2.026.139-2.493.416-.468.277-.701.718-.701 1.324 0 .502.173.866.52 1.09.345.226.994.408 1.947.546l2.986.415c1.524.19 2.649.563 3.376 1.117.727.554 1.09 1.368 1.09 2.441 0 .797-.25 1.49-.752 2.078-.502.571-1.203 1.013-2.104 1.324-.9.294-1.956.442-3.168.442Zm14.151 0c-2.077 0-3.688-.399-4.83-1.195-1.125-.796-1.688-1.939-1.688-3.428v-.078h2.805v.208c0 .848.276 1.437.83 1.766.572.311 1.533.467 2.883.467 1.264 0 2.121-.13 2.571-.39.467-.276.701-.7.701-1.272 0-.536-.182-.917-.545-1.142-.346-.225-.987-.399-1.922-.52l-3.532-.467c-1.229-.156-2.19-.502-2.882-1.039-.693-.554-1.039-1.376-1.039-2.467 0-.762.225-1.428.675-2 .45-.588 1.126-1.047 2.026-1.376.9-.329 2.008-.493 3.324-.493 1.316 0 2.441.173 3.376.52.952.345 1.679.865 2.181 1.557.519.693.779 1.55.779 2.571v.078h-2.778v-.156c0-.502-.104-.926-.312-1.272-.208-.347-.58-.606-1.117-.78-.519-.19-1.255-.285-2.207-.285-1.195 0-2.026.139-2.493.416-.468.277-.701.718-.701 1.324 0 .502.173.866.52 1.09.345.226.995.408 1.947.546l2.986.415c1.524.19 2.649.563 3.376 1.117.727.554 1.091 1.368 1.091 2.441a3.1 3.1 0 0 1-.753 2.078c-.502.571-1.203 1.013-2.104 1.324-.9.294-1.956.442-3.168.442ZM16.81 1.001H11v11l5.809-5.5v-5.5ZM.001 17.81v-5.808h11l-5.5 5.808h-5.5Zm27.809-5.808v5.809h-11l5.5-5.809h5.5Z"/><path d="M16.832 11.979h-5.855v16.833h5.855V11.979Z"/></g></svg>