<svg xmlns="http://www.w3.org/2000/svg" width="446" height="92" fill="none"><g clip-path="url(#a)"><path fill="#BEBEBE" d="M445.643 85.967h-115.69a2.564 2.564 0 0 1-1.838-.768 2.584 2.584 0 0 1-.748-1.847l.213-15.815a2.605 2.605 0 0 1 2.586-2.555h3.109V8.12a.365.365 0 0 1 .119-.267.357.357 0 0 1 .276-.09l41.756 4.344a43.851 43.851 0 0 1 33.172 21.37 792.564 792.564 0 0 1 9.61 16.923l9.223 3.874c9.349 3.927 16.032 12.565 17.445 22.543.946 6.686 1.118 8.742 1.12 8.763a.36.36 0 0 1-.353.387Zm-115.477-20.27a1.876 1.876 0 0 0-1.87 1.85l-.213 15.815a1.857 1.857 0 0 0 .541 1.333 1.85 1.85 0 0 0 1.329.556H445.25c-.09-.857-.36-3.252-1.08-8.335-1.377-9.729-7.896-18.152-17.012-21.983l-9.339-3.922a.356.356 0 0 1-.173-.163c-.048-.083-4.619-8.408-9.663-17.013a43.117 43.117 0 0 0-32.638-21.016L333.99 8.522v56.823a.357.357 0 0 1-.357.358l-3.467-.005Z"/><path fill="#BEBEBE" d="M439.902 84.752a.357.357 0 0 1-.353-.304 66.988 66.988 0 0 0-2.554-10.833 10.939 10.939 0 0 0-10.423-7.543h-90.074a.36.36 0 0 1-.357-.358.357.357 0 0 1 .357-.358h90.07a11.653 11.653 0 0 1 11.103 8.036 67.653 67.653 0 0 1 2.582 10.95.36.36 0 0 1-.3.407l-.051.003ZM432.55 64.33a.357.357 0 0 1-.187-.052 10.965 10.965 0 0 0-5.773-1.639h-45.709a.358.358 0 0 1 0-.716h45.709a11.689 11.689 0 0 1 6.152 1.745.36.36 0 0 1 .117.488.361.361 0 0 1-.309.174Z"/><path fill="#BEBEBE" d="M438.713 78.708h-2.44a5.994 5.994 0 0 1-5.712-4.269l-1.937-6.556c-.013-.045-.018-.092-.013-.139a.361.361 0 0 1 .527-.276.365.365 0 0 1 .173.213l1.936 6.555a5.273 5.273 0 0 0 5.026 3.756h2.44a.358.358 0 0 1 .33.221.359.359 0 0 1-.33.495Zm-33.556-48.756-71.529-.561a.359.359 0 0 1-.355-.36.36.36 0 0 1 .358-.356l71.528.561a.355.355 0 0 1 .354.361.356.356 0 0 1-.356.355Z"/><path stroke="#BEBEBE" stroke-miterlimit="10" stroke-width=".325" d="M413.625 50.68h-32.742V31.232h15.044a11.599 11.599 0 0 1 10.118 5.927l7.58 13.523Z"/><path fill="#BEBEBE" d="M372.061 63.748a.354.354 0 0 1-.331-.22.358.358 0 0 1-.027-.138V30.838a.359.359 0 0 1 .221-.331.352.352 0 0 1 .274 0 .36.36 0 0 1 .221.33V63.39a.358.358 0 0 1-.358.358Zm-30.758 0a.354.354 0 0 1-.331-.22.358.358 0 0 1-.027-.138V30.838a.359.359 0 0 1 .221-.331.352.352 0 0 1 .274 0 .356.356 0 0 1 .219.33V63.39a.348.348 0 0 1-.104.253.356.356 0 0 1-.252.105Zm68.646 27.466a9.544 9.544 0 0 1-9.535-9.537 9.549 9.549 0 0 1 9.535-9.535 9.548 9.548 0 0 1 9.537 9.535 9.547 9.547 0 0 1-9.537 9.537Zm0-18.357a8.828 8.828 0 0 0-8.819 8.82 8.83 8.83 0 0 0 8.819 8.822 8.832 8.832 0 0 0 8.822-8.822 8.834 8.834 0 0 0-8.822-8.82Z"/><path fill="#BEBEBE" d="M409.951 88.067a6.398 6.398 0 0 1-6.389-6.39 6.396 6.396 0 0 1 6.389-6.389 6.399 6.399 0 0 1 6.391 6.389 6.399 6.399 0 0 1-6.391 6.39Zm0-12.063a5.681 5.681 0 0 0-5.675 5.673 5.683 5.683 0 0 0 5.675 5.675 5.68 5.68 0 0 0 5.675-5.675 5.676 5.676 0 0 0-5.675-5.673Zm-95.328 15.21a9.545 9.545 0 0 1-9.537-9.537 9.547 9.547 0 0 1 9.537-9.535 9.547 9.547 0 0 1 9.535 9.535 9.546 9.546 0 0 1-9.535 9.537Zm0-18.357a8.829 8.829 0 0 0-8.822 8.82 8.832 8.832 0 0 0 8.822 8.822 8.828 8.828 0 0 0 8.82-8.822 8.833 8.833 0 0 0-8.82-8.82Z"/><path fill="#BEBEBE" d="M314.625 88.067a6.398 6.398 0 0 1-6.391-6.39 6.402 6.402 0 0 1 6.391-6.389 6.396 6.396 0 0 1 6.39 6.389 6.394 6.394 0 0 1-6.39 6.39Zm0-12.063a5.679 5.679 0 0 0-5.675 5.673 5.678 5.678 0 0 0 5.675 5.675 5.683 5.683 0 0 0 5.675-5.675 5.68 5.68 0 0 0-5.675-5.673Zm-19.416 15.21a9.549 9.549 0 0 1-9.537-9.537 9.547 9.547 0 0 1 9.537-9.535 9.547 9.547 0 0 1 9.535 9.535 9.546 9.546 0 0 1-9.535 9.537Zm0-18.357a8.829 8.829 0 0 0-8.822 8.82 8.832 8.832 0 0 0 8.822 8.822 8.83 8.83 0 0 0 8.82-8.822 8.833 8.833 0 0 0-8.82-8.82Z"/><path fill="#BEBEBE" d="M295.203 88.067a6.398 6.398 0 0 1-6.391-6.39 6.402 6.402 0 0 1 6.391-6.389 6.396 6.396 0 0 1 6.389 6.389 6.397 6.397 0 0 1-6.389 6.39Zm0-12.063a5.68 5.68 0 0 0-5.675 5.673 5.679 5.679 0 0 0 5.675 5.675 5.68 5.68 0 0 0 5.675-5.675 5.68 5.68 0 0 0-5.675-5.673Zm-55.986 15.587c-5.159 0-9.358-4.362-9.358-9.724 0-5.36 4.199-9.725 9.358-9.725 5.16 0 9.36 4.362 9.36 9.725 0 5.363-4.198 9.724-9.36 9.724Zm0-18.72c-4.772 0-8.655 4.035-8.655 8.996 0 4.962 3.883 8.996 8.655 8.996 4.773 0 8.658-4.036 8.658-8.996 0-4.96-3.883-8.995-8.658-8.995Z"/><path fill="#BEBEBE" d="M239.215 88.383c-3.457 0-6.27-2.927-6.27-6.516 0-3.588 2.813-6.517 6.27-6.517 3.457 0 6.272 2.927 6.272 6.517 0 3.59-2.813 6.516-6.272 6.516Zm0-12.303c-3.07 0-5.569 2.602-5.569 5.787 0 3.186 2.499 5.788 5.569 5.788s5.57-2.602 5.57-5.788c0-3.185-2.498-5.787-5.57-5.787Zm-19.052 15.511c-5.16 0-9.358-4.362-9.358-9.724 0-5.36 4.198-9.725 9.358-9.725 5.159 0 9.359 4.362 9.359 9.725 0 5.363-4.198 9.724-9.359 9.724Zm0-18.72c-4.773 0-8.657 4.035-8.657 8.996 0 4.962 3.884 8.996 8.657 8.996 4.772 0 8.657-4.036 8.657-8.996 0-4.96-3.886-8.995-8.657-8.995Z"/><path fill="#BEBEBE" d="M220.162 88.383c-3.458 0-6.271-2.927-6.271-6.516 0-3.588 2.813-6.517 6.271-6.517 3.459 0 6.272 2.927 6.272 6.517 0 3.59-2.813 6.516-6.272 6.516Zm0-12.303c-3.071 0-5.569 2.602-5.569 5.787 0 3.186 2.498 5.788 5.569 5.788 3.072 0 5.57-2.602 5.57-5.788 0-3.185-2.498-5.787-5.57-5.787Zm-56.703 15.134a9.545 9.545 0 0 1-9.537-9.537 9.547 9.547 0 0 1 9.537-9.535 9.547 9.547 0 0 1 9.535 9.535 9.546 9.546 0 0 1-9.535 9.537Zm0-18.357a8.829 8.829 0 0 0-8.822 8.82 8.832 8.832 0 0 0 8.822 8.822 8.83 8.83 0 0 0 8.82-8.822 8.833 8.833 0 0 0-8.82-8.82Z"/><path fill="#BEBEBE" d="M163.453 88.067a6.398 6.398 0 0 1-6.391-6.39 6.402 6.402 0 0 1 6.391-6.389 6.396 6.396 0 0 1 6.39 6.389 6.394 6.394 0 0 1-6.39 6.39Zm0-12.063a5.68 5.68 0 0 0-5.675 5.673 5.682 5.682 0 0 0 5.675 5.675 5.68 5.68 0 0 0 5.675-5.675 5.68 5.68 0 0 0-5.675-5.673Zm-19.408 15.21a9.549 9.549 0 0 1-9.537-9.537 9.547 9.547 0 0 1 9.537-9.535 9.547 9.547 0 0 1 9.535 9.535 9.547 9.547 0 0 1-9.535 9.537Zm0-18.357a8.833 8.833 0 0 0-8.822 8.82 8.832 8.832 0 0 0 8.822 8.822 8.83 8.83 0 0 0 8.82-8.822 8.83 8.83 0 0 0-8.82-8.82Z"/><path fill="#BEBEBE" d="M144.039 88.067a6.398 6.398 0 0 1-6.391-6.39 6.402 6.402 0 0 1 6.391-6.389 6.396 6.396 0 0 1 6.39 6.389 6.394 6.394 0 0 1-6.39 6.39Zm0-12.063a5.679 5.679 0 0 0-5.675 5.673 5.679 5.679 0 0 0 5.675 5.675 5.683 5.683 0 0 0 5.675-5.675 5.68 5.68 0 0 0-5.675-5.673Z"/><path stroke="#BEBEBE" stroke-miterlimit="10" stroke-width=".163" d="M323.802.67H124.641v65.044h199.161V.67Z"/><path stroke="#BEBEBE" stroke-miterlimit="10" stroke-width=".163" d="M323.801 66.072H124.639a.357.357 0 0 1-.358-.358V.67a.357.357 0 0 1 .358-.356h199.162a.35.35 0 0 1 .253.103.358.358 0 0 1 .104.253v65.043a.357.357 0 0 1-.357.358Zm-198.804-.716h198.446V1.027H124.997v64.33Z"/><path fill="#BEBEBE" d="M323.801 69.72H124.639a.354.354 0 0 1-.331-.22.358.358 0 0 1 .331-.495h199.162a.357.357 0 1 1 0 .716ZM164.95 25.145h-19.654a2.763 2.763 0 0 1-1.955-4.72 2.763 2.763 0 0 1 1.955-.809h19.654a.358.358 0 0 1 .358.358v4.808a.364.364 0 0 1-.103.256.363.363 0 0 1-.255.107Zm-19.654-4.823a2.055 2.055 0 0 0-1.452 3.505c.385.385.907.602 1.452.602h19.296v-4.107h-19.296Zm19.357 21.148h-19.654a2.765 2.765 0 1 1 0-5.528h19.654a.356.356 0 0 1 .358.356v4.825a.359.359 0 0 1-.358.348Zm-19.654-4.817a2.057 2.057 0 0 0-2.052 2.055 2.052 2.052 0 0 0 2.052 2.054h19.296v-4.11h-19.296Zm41.762 9.717h-13.944a.36.36 0 0 1-.252-.105.356.356 0 0 1-.104-.253V15.065a.357.357 0 0 1 .356-.358h13.944a15.847 15.847 0 0 1 15.825 15.832 15.85 15.85 0 0 1-15.825 15.831Zm-13.586-.715h13.586a15.12 15.12 0 0 0 15.109-15.123 15.12 15.12 0 0 0-15.109-15.122h-13.586v30.245Zm-4.841 5.839a.357.357 0 0 1-.357-.358V9.941a.357.357 0 1 1 .715 0v41.195a.359.359 0 0 1-.358.358Z"/><path fill="#BEBEBE" d="M311.51 56.779H132.248a.357.357 0 1 1 0-.716h178.901V30.896H208.25a.36.36 0 0 1-.331-.494.347.347 0 0 1 .078-.116.35.35 0 0 1 .253-.105h103.255a.357.357 0 0 1 .358.358V56.42a.361.361 0 0 1-.353.358ZM144.041 91.214H.358a.356.356 0 0 1-.254-.611.355.355 0 0 1 .254-.104H144.04a.357.357 0 1 1 0 .715Z"/><path stroke="#BEBEBE" stroke-miterlimit="10" stroke-width=".325" d="M14.148 27.189s41.14 59.456 77.605 46.922c.005 0 18.742-59.633-77.605-46.922Z"/><path fill="#BEBEBE" d="M99.591 91.214a.358.358 0 0 1-.343-.257c-.02-.065-2-6.652-7.867-15.02-5.415-7.72-15.34-18.581-31.886-26.479a.358.358 0 0 1-.162-.476.358.358 0 0 1 .476-.163c16.7 7.968 26.718 18.94 32.182 26.74 5.927 8.456 7.93 15.136 7.95 15.203a.354.354 0 0 1-.119.38.355.355 0 0 1-.124.064.362.362 0 0 1-.107.008Z"/></g><defs><clipPath id="a"><path fill="#fff" d="M0 .232h446v91.36H0z"/></clipPath></defs></svg>