<svg xmlns="http://www.w3.org/2000/svg" width="33" height="32" fill="none"><g fill="#7EEA57" clip-path="url(#a)"><path d="M30.624 13.235a2.696 2.696 0 0 0-2.309-1.315h-1.324c.002-.03.012-.057.012-.087V10.08a1.19 1.19 0 0 0-.995-1.16l-1.215-.194a8.958 8.958 0 0 0-.988-2.379l.722-1a1.18 1.18 0 0 0-.117-1.52l-1.245-1.245a1.18 1.18 0 0 0-1.516-.113l-.995.723a8.9 8.9 0 0 0-2.384-.984L18.076.995A1.172 1.172 0 0 0 16.916 0h-1.753c-.58 0-1.068.418-1.16.994l-.194 1.214a8.783 8.783 0 0 0-2.378.983l-1-.726a1.193 1.193 0 0 0-1.522.122L7.664 3.83a1.178 1.178 0 0 0-.113 1.515l.723 1.001a8.802 8.802 0 0 0-.983 2.379l-1.222.194c-.563.092-.986.59-.986 1.16v1.753c0 .03.009.058.011.087H3.66a2.51 2.51 0 0 0-2.15 1.224L.26 15.25c-.724 1.222.155 2.769 1.577 2.769h.187V29.5c0 1.379 1.121 2.5 2.5 2.5h23.04c1.378 0 2.5-1.121 2.5-2.5V18.019h.18c1.421 0 2.303-1.545 1.577-2.769l-1.196-2.015Zm-19.288-1.608c0-2.592 2.111-4.7 4.707-4.7 2.591 0 4.7 2.108 4.7 4.7 0 .099-.016.195-.022.293h-9.363c-.006-.098-.022-.194-.022-.293ZM6.083 10.08c0-.084.064-.16.145-.173L7.78 9.66a.5.5 0 0 0 .411-.392 7.81 7.81 0 0 1 1.104-2.67.5.5 0 0 0-.015-.564L8.36 4.76a.176.176 0 0 1 .015-.226L9.61 3.299a.186.186 0 0 1 .238-.021l1.266.92a.5.5 0 0 0 .566.015 7.805 7.805 0 0 1 2.67-1.103.5.5 0 0 0 .392-.411l.247-1.547A.179.179 0 0 1 15.163 1h1.753c.084 0 .16.065.173.152l.247 1.547a.5.5 0 0 0 .392.41 7.902 7.902 0 0 1 2.677 1.105.5.5 0 0 0 .565-.016l1.266-.92a.176.176 0 0 1 .226.016l1.236 1.234a.18.18 0 0 1 .02.232l-.92 1.274a.5.5 0 0 0-.015.565 7.955 7.955 0 0 1 1.11 2.672.5.5 0 0 0 .41.39l1.546.246c.085.014.154.091.154.173v1.753a.164.164 0 0 1-.026.087h-4.256c.005-.099.022-.194.022-.293 0-3.143-2.557-5.7-5.7-5.7-3.147 0-5.707 2.557-5.707 5.7 0 .099.017.194.022.293H6.103c-.038-.073-.013-.021-.02-1.84ZM1.12 15.76l1.25-2.106a1.506 1.506 0 0 1 1.289-.734h7.206l-2.19 3.69a.837.837 0 0 1-.716.409H1.836a.833.833 0 0 1-.716-1.259ZM3.023 29.5V18.019h4.936a1.84 1.84 0 0 0 1.576-.898l1.708-2.877V31h-6.72c-.827 0-1.5-.673-1.5-1.5Zm26.04 0c0 .827-.673 1.5-1.5 1.5h-15.32V14.24l1.709 2.881c.329.554.933.898 1.577.898h13.534V29.5Zm1.18-12.481H15.53a.837.837 0 0 1-.717-.408l-2.19-3.69h15.693c.592 0 1.147.315 1.45.824l1.195 2.015a.833.833 0 0 1-.716 1.259Z"/><path d="M21.128 28.62h4.34c.644 0 1.167-.524 1.167-1.168v-1.847c0-.643-.523-1.166-1.166-1.166h-4.341c-.644 0-1.167.523-1.167 1.166v1.848c0 .643.523 1.166 1.167 1.166Zm-.167-3.015c0-.092.075-.166.167-.166h4.34c.093 0 .167.074.167.166v1.848a.167.167 0 0 1-.166.166h-4.341a.167.167 0 0 1-.167-.166v-1.848Z"/></g><defs><clipPath id="a"><path fill="#fff" d="M0 0h33v32H0z"/></clipPath></defs></svg>