<svg xmlns="http://www.w3.org/2000/svg" width="326" height="136" fill="none"><g clip-path="url(#a)"><mask id="b" width="326" height="136" x="0" y="0" maskUnits="userSpaceOnUse" style="mask-type:luminance"><path fill="#fff" d="M-.001 0h325.267v136H-.001V0Z"/></mask><g fill="#BEBEBE" mask="url(#b)"><path d="M100.789 52.348a.677.677 0 0 0 .685-.685.69.69 0 0 0-.685-.7h-2.55a.707.707 0 0 0-.7.7.693.693 0 0 0 .7.685h2.55Zm18.787 29.027a.676.676 0 0 0 .422.634.68.68 0 0 0 .263.05.696.696 0 0 0 .7-.684V66.366a.702.702 0 0 0-.7-.684h-8.841a.692.692 0 0 0-.686.684v15.215a.678.678 0 0 0 .686.685.69.69 0 0 0 .699-.685V67.068h7.457v14.307Z"/><path d="M76.03 67.068h34.698v13.813H76.03V67.068Zm35.38-1.386H75.341a.69.69 0 0 0-.685.684v15.215a.677.677 0 0 0 .685.685h36.073a.698.698 0 0 0 .492-.198.695.695 0 0 0 .207-.487V66.366a.702.702 0 0 0-.699-.685h-.004Z"/><path d="M107.391 79.288a.693.693 0 0 0 .701.685.682.682 0 0 0 .634-.422.677.677 0 0 0 .05-.263v-9.813a.678.678 0 0 0-.684-.686.695.695 0 0 0-.701.686v9.813Zm-5.797 0a.69.69 0 0 0 .686.655.688.688 0 0 0 .685-.655v-9.813a.682.682 0 0 0-.415-.662.688.688 0 0 0-.956.662v9.813Zm-5.813 0a.685.685 0 0 0 1.37 0v-9.813a.685.685 0 0 0-1.37 0v9.813Zm-5.811 0a.686.686 0 0 0 1.37 0v-9.813a.684.684 0 0 0-.955-.662.686.686 0 0 0-.416.662v9.813Zm-5.813 0a.685.685 0 0 0 1.37 0v-9.813a.684.684 0 0 0-.954-.662.686.686 0 0 0-.416.662v9.813Zm-5.813 0a.686.686 0 0 0 1.371 0v-9.813a.686.686 0 1 0-1.37 0v9.813Zm-61.307-1.387h37.087v5.847H17.037v-5.847Zm37.772-1.386H16.357a.716.716 0 0 0-.7.702v7.232a.693.693 0 0 0 .7.684h38.452a.678.678 0 0 0 .684-.684v-7.232a.694.694 0 0 0-.684-.702Z"/><path d="M21.75 84.784a.688.688 0 0 0-.255-.94.7.7 0 0 0-.94.254L11.03 100.73a.714.714 0 0 0-.096.318L8.62 134.645a.68.68 0 0 0 .638.734h1.975a.72.72 0 0 0 .702-.638l4.349-31.097L29.57 84.846a.703.703 0 0 0-.16-.971.687.687 0 0 0-.956.174l-13.388 18.942a.717.717 0 0 0-.127.303l-4.286 30.698h-.606l2.262-32.721 9.442-16.488Zm28.94-.686a.695.695 0 0 0-1.143-.078.685.685 0 0 0-.05.764l9.446 16.488 2.262 32.721h-.606l-4.287-30.698a.734.734 0 0 0-.13-.303L42.805 84.046a.693.693 0 0 0-1.17.012.692.692 0 0 0 .04.785l13.301 18.798 4.344 31.101a.679.679 0 0 0 .685.638h1.975a.69.69 0 0 0 .473-.233.678.678 0 0 0 .165-.501l-2.31-33.597a.563.563 0 0 0-.097-.318l-9.52-16.633Z"/><path d="M11.163 107.341a.717.717 0 0 0-.702.702.687.687 0 0 0 .209.488.704.704 0 0 0 .493.197h49.003a.696.696 0 0 0 .486-.199.686.686 0 0 0 .198-.486.692.692 0 0 0-.684-.702H11.163Zm0-5.161a.71.71 0 0 0-.702.701.687.687 0 0 0 .209.487.691.691 0 0 0 .493.197h49.003a.676.676 0 0 0 .684-.684.692.692 0 0 0-.684-.701H11.163Zm39.844-32.148a.682.682 0 0 0 1.083.828L99.87 8.682c1.53-1.862 1.976-3.904 1.642-5.528a3.978 3.978 0 0 0-.957-1.96 3.506 3.506 0 0 0-1.88-1.1c-1.337-.302-3.06.097-4.938 1.546-.016 0-.032.016-.049.032L35.652 56.245a.687.687 0 0 0 .94 1.003L94.603 2.7c1.513-1.163 2.803-1.481 3.775-1.259.449.094.857.328 1.164.669.32.38.54.835.636 1.323.255 1.242-.127 2.85-1.37 4.38a.016.016 0 0 1-.004.012.016.016 0 0 1-.011.004L51.007 70.032ZM111.42 80.88a.695.695 0 0 0-.263 1.335.678.678 0 0 0 .263.05h8.841a.696.696 0 0 0 .7-.684.704.704 0 0 0-.7-.7h-8.841ZM99.297 53.75a.693.693 0 0 0-1.385 0v1.354a.717.717 0 0 0 .7.702h.049a.618.618 0 0 1 .51.222c.19.191.27.51.286.859.032.51-.192.796-.462.924a.84.84 0 0 1-.383.096.852.852 0 0 1-.398-.049c-.222-.063-.398-.206-.398-.398a.691.691 0 0 0-.977-.59.679.679 0 0 0-.393.653c.032.86.62 1.432 1.386 1.657.279.08.57.113.859.096.297-.015.588-.085.86-.208.765-.335 1.339-1.068 1.289-2.247a2.854 2.854 0 0 0-.638-1.719 1.954 1.954 0 0 0-.908-.588l.003-.764Z"/><path fill-rule="evenodd" d="M97.086 50.198h2.946l-.253 3.727H97.42l-.335-3.727Z" clip-rule="evenodd"/><path d="M97.833 50.898h1.466l-.176 2.342H98.04l-.207-2.342Zm2.198-1.385h-3.008a.683.683 0 0 0-.621.748l.32 3.712a.716.716 0 0 0 .7.654h2.357a.707.707 0 0 0 .686-.638l.254-3.697a.204.204 0 0 0 .017-.094.688.688 0 0 0-.436-.636.696.696 0 0 0-.266-.049h-.003Z"/><path d="M96.906 50.23a.695.695 0 0 0 .685.701.716.716 0 0 0 .702-.702V10.594a.695.695 0 0 0-.702-.686.682.682 0 0 0-.685.686v39.635Zm1.72 0a.685.685 0 1 0 1.37 0V9.191a.686.686 0 0 0-1.37 0v41.037ZM77.86 65.746a.687.687 0 0 0-.319.908.68.68 0 0 0 .909.334l19.675-9.44 18.798 9.424a.69.69 0 0 0 .924-.302.694.694 0 0 0-.319-.924l-19.085-9.575a.717.717 0 0 0-.622-.016L77.86 65.746Zm-55.092 4.461a.693.693 0 1 0 1.387 0V56.313h9.925c2.246 1.13 3.968 2.914 5.194 5.24 1.338 2.533 2.087 5.687 2.292 9.351a.693.693 0 1 0 1.385-.079c-.224-3.856-1.036-7.2-2.453-9.909-1.386-2.628-3.346-4.62-5.91-5.873a.695.695 0 0 0-.368-.096H23.468a.695.695 0 0 0-.702.685l.003 14.575Z"/><path d="M16.357 77.901h38.452a.69.69 0 0 0 .684-.684v-6.261a.694.694 0 0 0-.684-.702H16.357a.717.717 0 0 0-.7.702v6.26a.705.705 0 0 0 .7.685Zm37.773-1.386H17.043v-4.87h37.081l.006 4.87Zm15.799 59.057a.693.693 0 1 0 0-1.387H.693a.693.693 0 1 0 0 1.387H69.93ZM37.952 57.797a.695.695 0 0 0-.562 1.007.682.682 0 0 0 .674.362l24.326-2.07a.685.685 0 0 0 .622-.75.645.645 0 0 0-.273-.493L50.564 45.179l23.133-2.772a.717.717 0 0 0 .605-.765.806.806 0 0 0-.222-.43l-9.21-9.781 20.186-3.776a.688.688 0 0 0 .557-.797.65.65 0 0 0-.24-.398l-7.933-6.898 17.475-4.667a.703.703 0 0 0 .494-.845.87.87 0 0 0-.192-.318l-5.463-5.815 11.326-2.852a.68.68 0 0 0 .424-.314.676.676 0 0 0 .078-.522.689.689 0 0 0-.836-.502L88.272 6.865a.811.811 0 0 0-.303.16.698.698 0 0 0-.031.972l5.517 5.863-17.618 4.7v.015a.664.664 0 0 0-.35.206.702.702 0 0 0 .08.973l7.837 6.818-19.977 3.724a.68.68 0 0 0-.414 1.146l9.16 9.75L48.87 44a.676.676 0 0 0-.566.456.685.685 0 0 0 .2.74L60.66 55.853l-22.708 1.944Zm248.6 77.925c1.832-2.148 5.928-4.788 10.849-7.964 9.241-5.921 21.396-13.726 27.789-24.372a.695.695 0 0 0-.241-.942.615.615 0 0 0-.364-.112H222.898a.683.683 0 0 0-.511.239l-8.379 8.212H71.794a.69.69 0 0 0-.684.688c-.05.766-.526 11.013 2.548 16.807 1.163 2.202 2.102 3.703 3.568 4.899 1.465 1.166 3.395 1.979 6.564 2.793a.45.45 0 0 0 .207.016H286.01a.686.686 0 0 0 .542-.271v.007Zm10.189-9.104c-4.86 3.107-8.922 5.719-10.978 7.981l-201.637.016c-2.915-.765-4.683-1.481-5.958-2.517-1.275-1.035-2.135-2.405-3.234-4.46-2.548-4.812-2.485-13.079-2.422-15.438h141.834a.63.63 0 0 0 .477-.207l8.428-8.22h100.158c-6.372 9.829-17.859 17.188-26.668 22.845Z"/><path d="M210.894 111.293a.682.682 0 0 0 .69.685.69.69 0 0 0 .646-.42.692.692 0 0 0 .056-.265v-15.98a.708.708 0 0 0-.702-.7h-9.415a.705.705 0 0 0-.7.7V111.5a.706.706 0 0 0 .7.701.692.692 0 0 0 .686-.701V95.998h8.045l-.006 15.295Z"/><path d="M164.416 95.998h37.056v14.816h-37.056V95.998Zm37.756-1.385h-38.44a.695.695 0 0 0-.685.7V111.5a.693.693 0 0 0 .685.701h38.44a.692.692 0 0 0 .637-.435.73.73 0 0 0 .05-.266V95.313a.706.706 0 0 0-.422-.645.693.693 0 0 0-.265-.055Z"/><path d="M197.93 109.063a.708.708 0 0 0 .701.7.693.693 0 0 0 .684-.7V98.606a.678.678 0 0 0-.684-.686.693.693 0 0 0-.701.686v10.457Zm-6.196 0a.703.703 0 0 0 .701.7.695.695 0 0 0 .685-.7V98.606a.678.678 0 0 0-.685-.686.692.692 0 0 0-.701.686v10.457Zm-6.179 0a.693.693 0 0 0 .686.717.697.697 0 0 0 .496-.212.675.675 0 0 0 .189-.505V98.606a.682.682 0 0 0-.415-.662.688.688 0 0 0-.956.662v10.457Zm-6.187 0a.684.684 0 0 0 .955.662.696.696 0 0 0 .373-.39.702.702 0 0 0 .043-.272V98.606a.696.696 0 0 0-.416-.662.685.685 0 0 0-.955.662v10.457Zm-6.212 0a.695.695 0 0 0 .685.7.708.708 0 0 0 .7-.7V98.606a.694.694 0 0 0-.963-.635.691.691 0 0 0-.372.372.678.678 0 0 0-.05.263v10.457Zm-6.195 0a.693.693 0 0 0 .684.7.704.704 0 0 0 .701-.7V98.606a.69.69 0 0 0-.208-.488.689.689 0 0 0-.493-.198.684.684 0 0 0-.634.423.678.678 0 0 0-.05.263v10.457Zm35.209 1.751a.697.697 0 0 0-.725.693.695.695 0 0 0 .725.693h9.421a.7.7 0 0 0 .669-.42.694.694 0 0 0-.669-.966h-9.421Zm-11.35-16.201a.69.69 0 0 0-.637.434.692.692 0 0 0-.05.266.679.679 0 0 0 .2.486.686.686 0 0 0 .487.199h6.641a.685.685 0 0 0 .487-.199.679.679 0 0 0 .2-.486.692.692 0 0 0-.687-.7h-6.641Zm18.666.478a.682.682 0 0 0 .416.663.685.685 0 0 0 .955-.663v-15.98a.691.691 0 0 0-.423-.634.682.682 0 0 0-.263-.05h-9.431a.677.677 0 0 0-.685.685v16.201a.696.696 0 0 0 .199.486.685.685 0 0 0 .486.199.696.696 0 0 0 .702-.685V79.798h8.044V95.09Z"/><path d="M162.996 79.798h37.056v14.815h-37.056V79.798Zm37.741-1.371h-38.42a.692.692 0 0 0-.7.685v16.201a.69.69 0 0 0 .7.685h38.42a.696.696 0 0 0 .702-.685V79.112a.709.709 0 0 0-.21-.488.694.694 0 0 0-.492-.197Z"/><path d="M196.508 92.877a.69.69 0 0 0 1.175.485.704.704 0 0 0 .212-.485V82.409a.708.708 0 0 0-.209-.488.709.709 0 0 0-.756-.146.688.688 0 0 0-.371.371.695.695 0 0 0-.051.263v10.468Zm-6.188 0a.69.69 0 0 0 1.174.484.707.707 0 0 0 .211-.484V82.409a.693.693 0 0 0-.7-.685.682.682 0 0 0-.685.685v10.468Zm-6.203 0a.692.692 0 1 0 1.387 0V82.409a.693.693 0 1 0-1.387 0v10.468Zm-6.187 0a.704.704 0 0 0 .701.684.69.69 0 0 0 .684-.684V82.409a.676.676 0 0 0-.684-.685.693.693 0 0 0-.701.685v10.468Zm-6.211 0a.704.704 0 0 0 .702.684.69.69 0 0 0 .685-.684V82.409a.69.69 0 0 0-.422-.634.686.686 0 0 0-.263-.05.693.693 0 0 0-.702.684v10.468Zm-6.172 0a.686.686 0 0 0 1.169.484.686.686 0 0 0 .2-.484V82.409a.686.686 0 1 0-1.369 0v10.468Zm35.193 1.736a.695.695 0 0 0-.263 1.334.68.68 0 0 0 .263.051h9.43a.685.685 0 0 0 .487-.199.679.679 0 0 0 .2-.486.706.706 0 0 0-.422-.645.693.693 0 0 0-.265-.055h-9.43Zm64.918 16.68a.685.685 0 0 0 1.37 0v-15.98a.694.694 0 0 0-.684-.7h-9.415a.705.705 0 0 0-.702.7V111.5a.693.693 0 1 0 1.386 0V95.998h8.045v15.295Z"/><path d="M219.166 95.998h37.056v14.816h-37.056V95.998Zm37.758-1.385h-38.442a.69.69 0 0 0-.685.7V111.5a.696.696 0 0 0 .685.701h38.442a.703.703 0 0 0 .685-.701V95.313a.704.704 0 0 0-.685-.7Z"/><path d="M252.688 109.063a.692.692 0 0 0 1.182.49.693.693 0 0 0 .204-.49V98.606a.695.695 0 0 0-1.184-.49.693.693 0 0 0-.202.49v10.457Zm-6.195 0a.7.7 0 0 0 .42.669.708.708 0 0 0 .545 0 .699.699 0 0 0 .42-.669V98.606a.692.692 0 0 0-1.385 0v10.457Zm-6.204 0a.707.707 0 0 0 .702.7.691.691 0 0 0 .685-.7V98.606a.679.679 0 0 0-.685-.686.696.696 0 0 0-.702.686v10.457Zm-6.172 0a.684.684 0 0 0 1.369 0V98.606a.686.686 0 0 0-.684-.684.683.683 0 0 0-.685.684v10.457Zm-6.194 0a.683.683 0 0 0 .955.662.696.696 0 0 0 .372-.39.667.667 0 0 0 .043-.272V98.606a.678.678 0 0 0-.415-.662.688.688 0 0 0-.913.39.681.681 0 0 0-.042.272v10.457Zm-6.212 0c0 .181.072.355.2.484a.688.688 0 0 0 .969 0 .688.688 0 0 0 .2-.484V98.606a.686.686 0 0 0-1.169-.484.686.686 0 0 0-.2.484v10.457Zm35.208 1.751a.692.692 0 0 0-.51.192.695.695 0 0 0-.159.774.685.685 0 0 0 .395.376.692.692 0 0 0 .274.044h9.415a.692.692 0 0 0 .662-.693.695.695 0 0 0-.662-.693h-9.415Zm-11.336-16.201a.693.693 0 0 0-.685.7.696.696 0 0 0 .199.486.685.685 0 0 0 .486.199h6.644a.675.675 0 0 0 .634-.422.677.677 0 0 0 .05-.263.694.694 0 0 0-.684-.7h-6.644Zm18.644.478a.715.715 0 0 0 .702.7.695.695 0 0 0 .684-.7v-15.98a.676.676 0 0 0-.684-.684h-9.431a.677.677 0 0 0-.685.685v16.201a.683.683 0 0 0 .685.685.685.685 0 0 0 .685-.685V79.798h8.044V95.09Z"/><path d="M217.753 79.798h37.056v14.815h-37.056V79.798Zm37.741-1.371h-38.442a.687.687 0 0 0-.685.685v16.201a.69.69 0 0 0 .685.685h38.443a.679.679 0 0 0 .685-.685V79.112a.695.695 0 0 0-.199-.486.688.688 0 0 0-.486-.199h-.001Z"/><path d="M251.266 92.877a.687.687 0 0 0 .685.684.683.683 0 0 0 .685-.684V82.409a.683.683 0 0 0-.685-.685.685.685 0 0 0-.685.685v10.468Zm-6.196 0a.683.683 0 0 0 .685.684.685.685 0 0 0 .685-.684V82.409a.685.685 0 0 0-1.37 0v10.468Zm-6.195 0a.694.694 0 0 0 .686.684.702.702 0 0 0 .701-.684V82.409a.69.69 0 0 0-.701-.685.686.686 0 0 0-.634.422.678.678 0 0 0-.052.263v10.468Zm-6.203 0a.692.692 0 0 0 1.385 0V82.409a.693.693 0 0 0-1.385 0v10.468Zm-6.18 0a.704.704 0 0 0 .7.685.687.687 0 0 0 .685-.685V82.409a.677.677 0 0 0-.422-.634.682.682 0 0 0-.263-.05.696.696 0 0 0-.7.684v10.468Zm-6.203 0a.709.709 0 0 0 .702.684.692.692 0 0 0 .685-.684V82.409a.696.696 0 0 0-.199-.485.688.688 0 0 0-.486-.2.693.693 0 0 0-.702.685v10.468Zm35.209 1.736a.69.69 0 0 0-.685.7.678.678 0 0 0 .685.685h9.431a.684.684 0 0 0 .634-.422.677.677 0 0 0 .05-.263.694.694 0 0 0-.684-.7h-9.431ZM239.111 78.89a.704.704 0 0 0 .701.7.696.696 0 0 0 .685-.7V62.91a.677.677 0 0 0-.685-.685h-9.43a.678.678 0 0 0-.686.685v16.202a.681.681 0 0 0 .685.717.686.686 0 0 0 .685-.717V63.596h8.045V78.89Z"/><path d="M192.643 63.596h37.056v14.831h-37.056v-14.83Zm37.742-1.37h-38.442a.678.678 0 0 0-.685.684v16.202a.673.673 0 0 0 .422.635.675.675 0 0 0 .263.05h38.442a.685.685 0 0 0 .634-.422.677.677 0 0 0 .05-.263V62.91a.675.675 0 0 0-.684-.685Z"/><path d="M226.165 76.675a.688.688 0 0 0 .685.655.686.686 0 0 0 .686-.655V66.22a.696.696 0 0 0-.416-.662.685.685 0 0 0-.955.662v10.456Zm-6.204 0a.673.673 0 0 0 .2.484.69.69 0 0 0 .484.2.684.684 0 0 0 .685-.684V66.22a.693.693 0 0 0-.2-.484.682.682 0 0 0-.747-.149.689.689 0 0 0-.422.633v10.456Zm-6.195 0a.676.676 0 0 0 .422.634.677.677 0 0 0 .263.05.696.696 0 0 0 .645-.42.689.689 0 0 0 .056-.264V66.22a.704.704 0 0 0-.701-.7.696.696 0 0 0-.685.7v10.456Zm-6.196 0a.676.676 0 0 0 .422.634.68.68 0 0 0 .263.05.696.696 0 0 0 .7-.684V66.22a.708.708 0 0 0-.7-.7.696.696 0 0 0-.685.7v10.456Zm-6.203 0a.694.694 0 0 0 1.387 0V66.22a.693.693 0 1 0-1.387 0v10.456Zm-6.195 0a.692.692 0 0 0 .701.685.676.676 0 0 0 .485-.2.674.674 0 0 0 .201-.485V66.22a.696.696 0 0 0-.686-.7.708.708 0 0 0-.701.7v10.456Zm23.89-14.45a.685.685 0 0 0-.272 1.328.685.685 0 0 0 .272.043h6.626a.685.685 0 0 0 .272-1.328.685.685 0 0 0-.272-.043h-6.626Zm18.635.479a.679.679 0 0 0 .686.686.698.698 0 0 0 .645-.422.707.707 0 0 0 .055-.264V46.708a.693.693 0 0 0-.7-.684h-9.415a.692.692 0 0 0-.702.684V62.91a.692.692 0 0 0 .702.686.678.678 0 0 0 .633-.423.66.66 0 0 0 .051-.263v-15.5h8.045v15.294Z"/><path d="M191.213 47.41h37.056v14.815h-37.056V47.41Zm37.758-1.386h-38.442a.677.677 0 0 0-.685.684V62.91a.678.678 0 0 0 .685.686h38.442a.686.686 0 0 0 .485-.2.673.673 0 0 0 .199-.486V46.708a.672.672 0 0 0-.422-.634.678.678 0 0 0-.262-.05Z"/><path d="M224.734 60.472a.693.693 0 1 0 1.386 0v-10.45a.693.693 0 1 0-1.386 0v10.45Zm-6.203 0a.7.7 0 0 0 1.186.486.674.674 0 0 0 .199-.486v-10.45a.691.691 0 0 0-1.179-.495.706.706 0 0 0-.206.496v10.45Zm-6.195 0a.696.696 0 0 0 1.336.263.696.696 0 0 0 .051-.263v-10.45a.692.692 0 0 0-1.18-.494.707.707 0 0 0-.207.495v10.45Zm-6.195 0a.687.687 0 0 0 .685.685.683.683 0 0 0 .685-.685v-10.45a.683.683 0 0 0-.685-.684.685.685 0 0 0-.685.685v10.45Zm-6.179 0a.678.678 0 0 0 .415.662.688.688 0 0 0 .913-.39.682.682 0 0 0 .042-.272v-10.45a.681.681 0 0 0-.685-.716.688.688 0 0 0-.685.717v10.45Zm-6.204 0a.678.678 0 0 0 .684.686.693.693 0 0 0 .701-.686v-10.45a.707.707 0 0 0-.701-.7.687.687 0 0 0-.488.208.704.704 0 0 0-.196.493v10.45Zm35.209 1.753a.688.688 0 0 0-.662.956.68.68 0 0 0 .662.415h9.409a.69.69 0 0 0 .663-.415.694.694 0 0 0 0-.54.696.696 0 0 0-.39-.373.69.69 0 0 0-.273-.043h-9.409Zm-82.206 49.274a.692.692 0 0 0 .2.484.683.683 0 0 0 1.169-.484V61.874l3.84-1.02a.698.698 0 0 0 .511-.668v-4.787a.717.717 0 0 0-.701-.702h-46.39a.707.707 0 0 0-.702.702.688.688 0 0 0 .702.684h45.703v3.581l-3.791 1.02a.681.681 0 0 0-.541.669v50.146Zm-42.343-23.322a.679.679 0 0 0-.686-.686.694.694 0 0 0-.701.686V111.5a.709.709 0 0 0 .701.701.692.692 0 0 0 .686-.701V88.177Z"/><path d="M103.732 87.491h-10.61a.68.68 0 0 0-.684.686V111.5a.692.692 0 0 0 .684.701h10.61a.692.692 0 0 0 .686-.701V88.177a.679.679 0 0 0-.686-.686Zm-9.908 1.37h9.207v21.954h-9.207V88.862Zm48.991-24.009a.677.677 0 0 0 .685-.684.694.694 0 0 0-.685-.7h-2.31a.707.707 0 0 0-.7.7.693.693 0 0 0 .7.684h2.31Zm-7.382 0a.696.696 0 0 0 .702-.684.71.71 0 0 0-.702-.7h-2.309a.693.693 0 0 0-.686.7.678.678 0 0 0 .686.684h2.309Zm-7.195 0a.696.696 0 0 0 .702-.684.71.71 0 0 0-.702-.7h-2.309a.706.706 0 0 0-.702.7.688.688 0 0 0 .436.635.71.71 0 0 0 .266.05h2.309Zm14.578 7.616a.686.686 0 0 0 .484-1.169.686.686 0 0 0-.484-.2h-2.311a.683.683 0 0 0-.484 1.169c.128.128.302.2.484.2h2.311Zm-7.377 0a.686.686 0 0 0 .484-1.169.686.686 0 0 0-.484-.2h-2.31a.686.686 0 0 0-.484 1.169c.129.128.303.2.484.2h2.31Zm-7.204 0a.687.687 0 0 0 .685-.684.686.686 0 0 0-.685-.685h-2.309a.686.686 0 0 0-.484 1.169c.129.128.303.2.484.2h2.309Zm14.581 8.444a.686.686 0 0 0 .684-.684.686.686 0 0 0-.684-.685h-2.311a.684.684 0 1 0 0 1.37h2.311Zm-7.377 0a.692.692 0 0 0 .484-.2.685.685 0 0 0-.484-1.17h-2.31a.692.692 0 0 0-.484.201.685.685 0 0 0 .484 1.17h2.31Zm-7.204 0a.684.684 0 1 0 0-1.37h-2.309a.684.684 0 1 0 0 1.37h2.309Zm14.582 8.864a.687.687 0 0 0 .465-1.16.687.687 0 0 0-.465-.211h-2.31a.682.682 0 0 0-.663.416.694.694 0 0 0 0 .54.696.696 0 0 0 .391.372.682.682 0 0 0 .272.043h2.31Zm-7.385 0a.685.685 0 0 0 .272-1.328.685.685 0 0 0-.272-.043h-2.309a.685.685 0 0 0-.272 1.328.685.685 0 0 0 .272.043h2.309Zm-7.202 0a.685.685 0 0 0 .272-1.328.685.685 0 0 0-.272-.043h-2.309a.685.685 0 0 0-.272 1.328.685.685 0 0 0 .272.043h2.309Z"/></g></g><defs><clipPath id="a"><path fill="#fff" d="M0 0h326v136H0z"/></clipPath></defs></svg>