<svg xmlns="http://www.w3.org/2000/svg" width="363" height="120" fill="none"><path stroke="#BEBEBE" stroke-miterlimit="10" stroke-width=".46" d="M7.248 8.01a22.085 22.085 0 0 0-3.386 25.823l18.173 33.259a1.375 1.375 0 0 0 2.416 0L42.62 33.83a22.086 22.086 0 0 0-3.386-25.82c-8.703-9.14-23.284-9.14-31.987 0Z"/><path fill="#BEBEBE" d="M23.24 67.96a1.51 1.51 0 0 1-1.343-.797L3.724 33.904a22.24 22.24 0 1 1 39.031 0L24.582 67.163a1.51 1.51 0 0 1-1.342.796ZM7.359 8.12a21.86 21.86 0 0 0-3.364 25.636L22.17 67.015a1.22 1.22 0 0 0 2.141 0l18.174-33.259A21.86 21.86 0 0 0 39.12 8.12c-4.18-4.391-9.82-6.811-15.881-6.811s-11.7 2.42-15.881 6.811Z"/><path fill="#BEBEBE" d="M23.248 35.201c-6.47 0-11.732-5.264-11.732-11.732 0-6.469 5.264-11.733 11.732-11.733 6.468 0 11.733 5.264 11.733 11.733S29.719 35.2 23.248 35.2Zm0-23.155c-6.299 0-11.423 5.124-11.423 11.423S16.951 34.89 23.248 34.89 34.67 29.767 34.67 23.47c0-6.299-5.123-11.424-11.423-11.424Zm291.546 107.547h-.136a20.952 20.952 0 0 1-20.898-21.12 21.048 21.048 0 0 1 6.311-14.951 20.694 20.694 0 0 1 14.598-5.983h.192a20.556 20.556 0 0 1 14.739 6.317c3.873 4.02 5.979 9.397 5.932 15.14-.045 5.484-2.256 10.662-6.226 14.58-3.937 3.881-9.086 6.017-14.512 6.017Zm-.125-41.333a19.962 19.962 0 0 0-14.084 5.772 20.334 20.334 0 0 0-6.092 14.439 20.2 20.2 0 0 0 5.844 14.386 20.214 20.214 0 0 0 14.325 5.996h.128c10.771 0 19.92-9.073 20.009-19.875.094-11.516-8.666-20.615-19.945-20.718h-.185Zm-154.992 41.333h-.136a20.9 20.9 0 0 1-20.838-21.027 21.13 21.13 0 0 1 6.26-15.03 20.612 20.612 0 0 1 14.597-6.01h.117a20.676 20.676 0 0 1 14.732 6.216 20.973 20.973 0 0 1 6.033 14.891 21.015 21.015 0 0 1-6.247 14.967 20.521 20.521 0 0 1-14.518 5.993Zm-.114-41.333a19.884 19.884 0 0 0-14.082 5.795 20.377 20.377 0 0 0-6.045 14.51c-.05 11.115 8.97 20.216 20.107 20.289a19.825 19.825 0 0 0 14.138-5.77 20.3 20.3 0 0 0 6.028-14.45c.044-11.172-8.941-20.31-20.035-20.373h-.111Zm-28.948 19.43c-2.104 0-4.227-.209-6.267-1.271-4.126-2.148-6.36-5.681-6.461-10.22-.092-4.143-.069-8.355-.048-12.427.008-1.368.014-2.736.019-4.104a2.077 2.077 0 0 1 .369-1.24c1.299-1.659 2.639-3.334 3.921-4.954.833-1.045 1.663-2.091 2.492-3.138.821-1.04.824-1.545.013-2.574a789.627 789.627 0 0 0-2.726-3.443c-1.211-1.524-2.463-3.098-3.681-4.658a2.113 2.113 0 0 1-.389-1.234c0-2.574-.004-5.148-.011-7.723-.013-9.166-.028-18.643.034-27.967a11.426 11.426 0 0 1 3.462-8.16 11.733 11.733 0 0 1 8.252-3.332H297.31c3.245 0 6.009 1.11 8.228 3.296 3.125 3.087 6.282 6.246 9.335 9.3l2.275 2.276 12.275 12.276c9.565 9.566 19.456 19.46 29.195 29.179 2.51 2.503 3.744 5.165 3.882 8.376a.362.362 0 0 1-.223.352.365.365 0 0 1-.144.03h-5.756c-1.465 0-2.99 0-4.485.011-1.162.01-1.905.54-2.228 1.571-.302.984 0 1.812.908 2.458l1.489 1.066c2.868 2.052 5.835 4.178 8.765 6.248.292.186.604.34.929.459.193.08.412.171.643.278a.365.365 0 0 1 .213.347c-.038.977-.047 1.987-.056 2.963-.02 2.234-.041 4.544-.398 6.788-.792 4.965-5.478 8.955-10.666 9.087-3.122.078-6.303.059-9.366.04-1.274-.008-2.59-.015-3.884-.017a1.735 1.735 0 0 1-.405-.058c-.041-.01-.08-.02-.119-.025a.366.366 0 0 1-.3-.33c-1.206-13.996-12.571-21.481-22.737-21.481h-.216c-11.887.124-21.562 9.348-22.504 21.455a.37.37 0 0 1-.367.338H182.638a.364.364 0 0 1-.365-.334c-.644-7.339-3.905-13.168-9.695-17.323-4.032-2.895-8.659-4.28-13.754-4.119-11.762.374-21.005 9.448-21.976 21.575a.366.366 0 0 1-.395.336 33.68 33.68 0 0 0-3.769-.016 50.7 50.7 0 0 1-2.069.051v-.007Zm80.72-95.71h-81.74c-6.117 0-10.94 4.73-10.981 10.765-.061 9.32-.047 18.797-.033 27.96 0 2.577.003 5.15.01 7.724a1.4 1.4 0 0 0 .234.784c1.217 1.556 2.467 3.13 3.676 4.653.912 1.147 1.822 2.295 2.73 3.446 1.026 1.297 1.017 2.175-.015 3.481a745.237 745.237 0 0 1-2.492 3.14 585.472 585.472 0 0 0-3.916 4.95 1.395 1.395 0 0 0-.214.79c0 1.367-.007 2.736-.019 4.103-.021 4.07-.044 8.276.048 12.408.097 4.316 2.137 7.54 6.067 9.587 2.54 1.319 5.178 1.235 7.972 1.143 1.144-.037 2.324-.076 3.489 0 .566-5.998 3.177-11.482 7.377-15.478a23.225 23.225 0 0 1 15.277-6.408c5.258-.168 10.037 1.264 14.204 4.25 5.882 4.223 9.234 10.114 9.967 17.52h108.289c.55-6.031 3.214-11.538 7.523-15.536a23.36 23.36 0 0 1 15.676-6.256h.241a23.323 23.323 0 0 1 15.448 5.894c4.544 4.013 7.368 9.682 7.976 15.99.04.007.08.012.121.012 1.295 0 2.613.01 3.887.018 3.063.017 6.232.037 9.342-.04 4.848-.12 9.224-3.838 9.967-8.467.349-2.19.369-4.472.39-6.68.008-.9.016-1.827.046-2.736a23.448 23.448 0 0 0-.395-.167 5.448 5.448 0 0 1-1.072-.536 1652.546 1652.546 0 0 1-8.767-6.251l-1.49-1.066c-1.155-.827-1.574-1.987-1.181-3.269.409-1.335 1.447-2.076 2.921-2.09 1.498-.013 3.022-.013 4.492-.011h5.368c-.208-2.847-1.373-5.242-3.644-7.506-9.739-9.72-19.63-19.613-29.197-29.18l-12.278-12.277-2.276-2.275a1947.328 1947.328 0 0 0-9.332-9.297c-2.071-2.052-4.667-3.078-7.713-3.078-27.769-.009-56.602-.018-85.983-.018v.005Zm150.741 74.332a.364.364 0 0 1-.214-.069l-10.297-7.365a.371.371 0 0 1-.002-.595.367.367 0 0 1 .216-.07h10.297a.367.367 0 0 1 .366.366v7.367a.364.364 0 0 1-.366.367Zm-9.155-7.366 8.794 6.287v-6.287h-8.794Zm-234.636-3.627a.373.373 0 0 1-.298-.154.376.376 0 0 1-.069-.212v-11.84a.369.369 0 0 1 .247-.346.368.368 0 0 1 .408.12l4.623 5.92a.369.369 0 0 1 0 .452l-4.623 5.92a.363.363 0 0 1-.288.14Zm.366-11.139v9.709l3.792-4.855-3.792-4.854Z"/><path fill="#BEBEBE" d="M130.615 97.698c-2.104 0-4.227-.21-6.267-1.272-4.126-2.147-6.36-5.681-6.461-10.22-.092-4.142-.069-8.355-.048-12.427.008-1.367.014-2.736.019-4.103a2.077 2.077 0 0 1 .369-1.24c1.299-1.66 2.639-3.335 3.921-4.955.833-1.045 1.663-2.091 2.492-3.138.821-1.039.824-1.545.013-2.573a783.62 783.62 0 0 0-2.726-3.443c-1.211-1.525-2.463-3.099-3.681-4.658a2.113 2.113 0 0 1-.389-1.234c0-2.574-.004-5.149-.011-7.723-.013-9.167-.028-18.644.034-27.967a11.426 11.426 0 0 1 3.462-8.16 11.733 11.733 0 0 1 8.252-3.333c57.367-.009 114.511 0 167.716 0 3.245 0 6.009 1.11 8.228 3.297 3.125 3.086 6.282 6.245 9.335 9.3l2.275 2.276L329.423 28.4c9.565 9.567 19.456 19.46 29.195 29.18 2.51 2.503 3.744 5.164 3.882 8.376a.364.364 0 0 1-.223.352.365.365 0 0 1-.144.029h-5.756c-1.465 0-2.991 0-4.485.011-1.162.01-1.905.54-2.228 1.572-.302.983 0 1.811.908 2.458l1.489 1.065c2.868 2.052 5.835 4.179 8.765 6.248.292.186.604.34.929.46.193.08.412.17.643.278a.365.365 0 0 1 .213.347c-.038.976-.047 1.986-.056 2.962-.02 2.234-.041 4.544-.398 6.788-.792 4.966-5.478 8.955-10.666 9.087-3.122.078-6.303.059-9.366.041-1.274-.009-2.59-.016-3.884-.017a1.735 1.735 0 0 1-.405-.059c-.041-.009-.08-.019-.119-.025a.366.366 0 0 1-.3-.33c-1.206-13.996-12.571-21.481-22.737-21.481h-.216c-11.887.125-21.562 9.348-22.504 21.455a.37.37 0 0 1-.367.338H182.638a.364.364 0 0 1-.365-.334c-.644-7.338-3.905-13.167-9.695-17.323-4.032-2.894-8.659-4.281-13.754-4.118-11.762.373-21.005 9.447-21.976 21.575a.367.367 0 0 1-.395.335 33.68 33.68 0 0 0-3.769-.016c-.685.02-1.377.044-2.069.044Zm80.92-95.71h-81.94c-6.117 0-10.94 4.73-10.981 10.764-.061 9.32-.047 18.798-.033 27.961 0 2.576.003 5.15.01 7.723a1.4 1.4 0 0 0 .234.784c1.217 1.557 2.467 3.13 3.676 4.654.912 1.146 1.822 2.295 2.73 3.446 1.026 1.297 1.017 2.175-.015 3.48a758.359 758.359 0 0 1-2.492 3.14 585.472 585.472 0 0 0-3.916 4.95 1.395 1.395 0 0 0-.214.79c0 1.368-.007 2.736-.019 4.104-.021 4.069-.044 8.275.048 12.407.097 4.316 2.137 7.541 6.067 9.587 2.54 1.32 5.179 1.236 7.972 1.143 1.144-.036 2.324-.076 3.489 0 .566-5.999 3.177-11.483 7.377-15.479a23.225 23.225 0 0 1 15.277-6.408c5.258-.169 10.037 1.263 14.204 4.25 5.882 4.223 9.234 10.114 9.967 17.52h108.289c.55-6.031 3.214-11.538 7.523-15.536a23.36 23.36 0 0 1 15.676-6.256h.241a23.323 23.323 0 0 1 15.448 5.894c4.544 4.013 7.368 9.682 7.976 15.989.04.008.08.013.121.013 1.295 0 2.613.009 3.887.018 3.063.017 6.232.036 9.342-.04 4.848-.12 9.224-3.838 9.967-8.467.349-2.19.369-4.472.39-6.678.008-.901.016-1.83.046-2.738a23.448 23.448 0 0 0-.395-.167 5.448 5.448 0 0 1-1.072-.536 1646.798 1646.798 0 0 1-8.767-6.252l-1.49-1.065c-1.155-.827-1.574-1.988-1.181-3.269.409-1.335 1.447-2.076 2.921-2.09 1.498-.013 3.022-.013 4.492-.011h5.368c-.208-2.847-1.373-5.242-3.644-7.506-9.739-9.72-19.63-19.613-29.197-29.18l-12.278-12.284-2.276-2.274a1947.328 1947.328 0 0 0-9.332-9.297c-2.071-2.052-4.667-3.078-7.713-3.078-27.704-.009-56.476-.018-85.783-.018v.012Zm54.212 51.185a95.94 95.94 0 0 1-3.517-.063c-.411-.014-.705-.362-.993-.699a3.799 3.799 0 0 0-.293-.33.366.366 0 0 1 .028-.561c.102-.083.2-.171.293-.264.267-.252.57-.538.953-.57.857-.073 1.728-.06 2.569-.048.326 0 .652.01.978.01.325 0 .629 0 .944-.012a21.97 21.97 0 0 1 2.48.048c.398.038.732.319 1.015.565.118.098.228.192.335.265a.364.364 0 0 1 .158.276.37.37 0 0 1-.117.296 4.397 4.397 0 0 0-.294.328c-.293.336-.586.68-.987.695a110.53 110.53 0 0 1-3.552.058v.006Zm-4.032-1.334.084.097c.127.147.363.428.461.44 2.318.085 4.674.083 7.005 0 .097-.015.331-.293.457-.44l.069-.08-.06-.052c-.218-.186-.44-.377-.613-.393a21.048 21.048 0 0 0-2.396-.045c-.32 0-.638.012-.957.012-.33 0-.66 0-.99-.01-.822-.012-1.673-.026-2.491.045-.129.01-.342.212-.513.374l-.056.052Zm-12.587 1.33c-1.548 0-3.097-.02-4.639-.057-.425-.01-.754-.346-1.07-.672a4.479 4.479 0 0 0-.345-.328.361.361 0 0 1-.136-.298.37.37 0 0 1 .157-.288c.115-.085.227-.176.333-.273.293-.256.622-.545 1.025-.569 1.173-.067 2.356-.055 3.502-.045.839.008 1.678.008 2.517 0 1.086-.01 2.208-.022 3.315.045.402.024.733.302 1.026.547.12.098.232.192.34.264a.368.368 0 0 1 .166.284.366.366 0 0 1-.131.302 4.66 4.66 0 0 0-.335.339c-.311.335-.634.683-1.059.693-1.542.03-3.102.05-4.666.05v.006Zm-5.267-1.32.081.083c.174.177.44.44.566.45 3.088.077 6.208.077 9.273 0 .117 0 .381-.293.54-.46l.079-.084-.049-.04c-.209-.173-.439-.369-.608-.38-1.08-.065-2.198-.053-3.264-.043-.412 0-.822.008-1.234.008h-1.296c-1.136-.01-2.31-.021-3.454.044-.147.01-.382.212-.587.389l-.047.034Zm33.83-5.276h-13.32c-3.286 0-4.818-1.535-4.818-4.826v-25.21c0-3.01 1.633-4.667 4.595-4.67 5.162-.006 10.324-.006 15.485 0 6.578 0 13.381 0 20.07-.01h.01a4.974 4.974 0 0 1 3.729 1.553 10945.58 10945.58 0 0 0 25.854 25.854c1.402 1.398 1.785 2.993 1.137 4.738-.608 1.64-2.124 2.581-4.157 2.581h-48.582l-.003-.01Zm22.022-34.004h-.01c-6.689.01-13.484.01-20.07.01H264.15c-2.564 0-3.863 1.32-3.864 3.937v25.21c0 2.87 1.222 4.094 4.085 4.094h61.905c1.734 0 2.967-.748 3.47-2.103.555-1.494.247-2.755-.968-3.958a11144.342 11144.342 0 0 1-25.855-25.855 4.273 4.273 0 0 0-3.21-1.341v.006Zm-74.347 33.748h-26.162c-3.564 0-5.084-1.535-5.086-5.13V16.72c0-3.476 1.561-5.027 5.057-5.027h52.45c3.467 0 5.014 1.56 5.016 5.058v24.46c0 3.573-1.532 5.097-5.116 5.097l-26.159.008Zm-14.638-33.892h-11.55c-3.112 0-4.324 1.205-4.325 4.295v24.459c0 3.163 1.221 4.397 4.353 4.397h52.325c3.152 0 4.38-1.223 4.383-4.364v-24.46c0-3.112-1.202-4.325-4.283-4.325h-40.893l-.01-.002Zm-51.423 33.886h-26.658c-3.047 0-4.727-1.674-4.731-4.711a9639.33 9639.33 0 0 1 0-25.223c0-3.055 1.647-4.67 4.751-4.673h53.598c3.439 0 4.973 1.529 4.973 4.951v24.843c0 3.195-1.596 4.814-4.743 4.816-8.831-.006-17.848-.003-27.19-.003Zm-14.657-33.884H132.67c-2.699 0-4.014 1.291-4.019 3.94-.01 8.325-.01 16.81 0 25.221 0 2.639 1.349 3.98 3.999 3.98h53.848c2.735 0 4.009-1.299 4.01-4.082v-24.84c0-2.994-1.229-4.216-4.241-4.218h-41.626l.007-.001Z"/><path fill="#BEBEBE" d="M225.364 46.31h-26.161c-3.564 0-5.084-1.534-5.086-5.13V16.722c0-3.476 1.561-5.027 5.057-5.027h52.45c3.466 0 5.014 1.56 5.016 5.058v24.46c0 3.573-1.532 5.097-5.116 5.097l-26.16.002Zm-14.96-33.885h-11.227c-3.112 0-4.324 1.205-4.325 4.295v24.459c0 3.163 1.22 4.398 4.353 4.398h52.325c3.151 0 4.38-1.224 4.383-4.365v-24.46c0-3.112-1.202-4.325-4.283-4.325h-41.226v-.002ZM159.29 46.31h-26.645c-3.047 0-4.727-1.673-4.731-4.71-.01-8.412-.01-16.898 0-25.223 0-3.055 1.647-4.67 4.752-4.673h53.597c3.439 0 4.974 1.529 4.974 4.951v24.843c0 3.195-1.597 4.814-4.743 4.816-8.834-.006-17.857-.003-27.204-.003Zm-14.657-33.883h-11.969c-2.7 0-4.014 1.291-4.019 3.94-.01 8.325-.01 16.81 0 25.221 0 2.639 1.349 3.98 3.999 3.98h53.848c2.735 0 4.009-1.299 4.01-4.082v-24.84c0-2.994-1.229-4.216-4.241-4.218h-41.626l-.002-.001Zm166.07 34.133h-46.331c-3.286 0-4.817-1.535-4.817-4.826v-25.21c0-3.01 1.632-4.667 4.595-4.67 5.162-.006 10.324-.006 15.485 0 6.578 0 13.38 0 20.07-.01h.01a4.967 4.967 0 0 1 3.729 1.553c9.213 9.243 17.67 17.699 25.853 25.854 1.403 1.398 1.785 2.993 1.137 4.738-.608 1.64-2.123 2.58-4.156 2.581l-15.575-.01Zm-15.567-.733h31.142c1.734 0 2.966-.747 3.469-2.103.556-1.494.248-2.754-.967-3.957a10950.538 10950.538 0 0 1-25.855-25.855 4.282 4.282 0 0 0-3.21-1.339h-.01c-6.69.01-13.485.01-20.07.01h-15.484c-2.563 0-3.862 1.32-3.863 3.938v25.21c0 2.87 1.222 4.093 4.084 4.093h30.764v.003Zm19.374 70.162h-.019a17.376 17.376 0 0 1-17.358-17.486 17.186 17.186 0 0 1 5.063-12.234c3.296-3.279 7.733-5.082 12.498-5.082h.06a17.018 17.018 0 0 1 12.165 5.164 17.444 17.444 0 0 1 5.016 12.354c-.027 9.535-7.846 17.284-17.425 17.284Zm-16.644-17.485a16.643 16.643 0 0 0 16.627 16.752h.017c9.177 0 16.667-7.422 16.699-16.552a16.721 16.721 0 0 0-4.806-11.84 16.288 16.288 0 0 0-11.652-4.944h-.057c-4.57 0-8.824 1.727-11.981 4.87a16.444 16.444 0 0 0-4.847 11.714Zm16.642 14.958a14.867 14.867 0 0 1-14.835-14.896 14.801 14.801 0 0 1 14.862-14.842 14.873 14.873 0 0 1-.025 29.744l-.002-.006Zm-14.102-14.896a14.114 14.114 0 0 0 4.135 10.023 13.964 13.964 0 0 0 9.967 4.147 14.184 14.184 0 0 0 14.173-14.15 14.162 14.162 0 0 0-14.149-14.127 14.077 14.077 0 0 0-10 4.113 14.083 14.083 0 0 0-4.129 9.994h.003Z"/><path fill="#BEBEBE" d="M314.506 113.462a14.87 14.87 0 0 1-14.834-14.896 14.81 14.81 0 0 1 4.343-10.513 14.802 14.802 0 0 1 10.519-4.328 14.873 14.873 0 0 1-.025 29.743l-.003-.006Zm-14.101-14.896a14.114 14.114 0 0 0 4.135 10.023 13.964 13.964 0 0 0 9.966 4.148 14.191 14.191 0 0 0 14.174-14.15 14.162 14.162 0 0 0-14.149-14.128 14.068 14.068 0 0 0-14.129 14.107h.003Zm-140.692 14.896a14.724 14.724 0 0 1-10.489-4.372 14.922 14.922 0 0 1-4.388-10.65 14.576 14.576 0 0 1 4.408-10.436 14.98 14.98 0 0 1 10.601-4.289c8.133.02 14.743 6.685 14.735 14.858-.009 8.208-6.675 14.886-14.861 14.889h-.006Zm.095-29.021c-7.832 0-14.217 6.27-14.239 13.993a14.196 14.196 0 0 0 4.174 10.131 14.018 14.018 0 0 0 9.967 4.157c7.781 0 14.119-6.354 14.128-14.158.009-7.768-6.273-14.104-14.003-14.123h-.027Z"/><path fill="#BEBEBE" d="M159.713 113.462a14.724 14.724 0 0 1-10.489-4.372 14.922 14.922 0 0 1-4.388-10.65 14.576 14.576 0 0 1 4.408-10.436 14.98 14.98 0 0 1 10.601-4.289c8.133.02 14.743 6.685 14.735 14.858-.009 8.208-6.675 14.886-14.861 14.889h-.006Zm.095-29.021c-7.832 0-14.217 6.27-14.239 13.993a14.196 14.196 0 0 0 4.174 10.131 14.018 14.018 0 0 0 9.967 4.157c7.781 0 14.119-6.354 14.128-14.158.009-7.768-6.273-14.104-14.003-14.123h-.027Zm89.437-33.434c1.506 0 3.018-.056 4.52.035.41.025.796.49 1.192.75-.389.33-.77.936-1.173.946-3.098.08-6.195.08-9.293 0-.406-.01-.797-.598-1.194-.919.388-.271.766-.753 1.172-.775 1.591-.09 3.184-.037 4.776-.037Zm16.521 0c1.131 0 2.269-.07 3.389.037.413.04.787.5 1.172.768-.35.322-.692.913-1.054.926-2.345.084-4.69.084-7.035 0-.364-.013-.707-.607-1.058-.93.353-.268.689-.734 1.062-.763 1.173-.1 2.351-.037 3.524-.038Zm-129.172 65.626H41.159c-10.061 0-18.245-8.185-18.245-18.244V69.094h.652V98.39c0 9.699 7.892 17.592 17.593 17.592h95.435v.652Z"/></svg>