<svg xmlns="http://www.w3.org/2000/svg" width="18" height="18" fill="none"><g fill="#000" clip-path="url(#a)"><path d="m.503 10.3 1.174.193a7.23 7.23 0 0 0 1.047 2.522l-.696.971a.55.55 0 0 0 .006.659 9.175 9.175 0 0 0 1.172 1.173.55.55 0 0 0 .659.006l.97-.696a7.222 7.222 0 0 0 2.52 1.047l.192 1.176c.037.24.229.427.47.457.167.02.336.03.508.04a.307.307 0 0 0 .322-.305v-2.445c0-.165-.132-.3-.296-.305a5.801 5.801 0 0 1 0-11.587.307.307 0 0 0 .296-.305V.458a.307.307 0 0 0-.321-.305 8.463 8.463 0 0 0-.509.036.55.55 0 0 0-.47.46l-.192 1.176a7.228 7.228 0 0 0-2.52 1.048l-.97-.696a.55.55 0 0 0-.66.006 8.12 8.12 0 0 0-.612.558 7.042 7.042 0 0 0-.559.615.55.55 0 0 0-.006.66l.696.97a7.235 7.235 0 0 0-1.047 2.521L.503 7.7a.544.544 0 0 0-.458.47c-.06.547-.06 1.1 0 1.647a.552.552 0 0 0 .458.484Z"/><path d="M8.553 4.433a4.576 4.576 0 0 0 0 9.135.28.28 0 0 0 .291-.283v-8.57a.28.28 0 0 0-.291-.282Zm2.433.296H9.461v.61h1.525a.918.918 0 0 0 .916-.915V2.537a.915.915 0 1 0-.61 0v1.887a.305.305 0 0 1-.306.305ZM9.46 6.56h3.052a.305.305 0 1 0 0-.61H9.46v.61Zm0 6.712h1.526c.169 0 .305.136.305.305v1.886a.915.915 0 1 0 .61 0v-1.886a.918.918 0 0 0-.915-.916H9.461v.61Zm4.577-3.052H9.461v.61h4.576c.169 0 .305.137.305.306v1.582a.916.916 0 1 0 .61 0v-1.582a.918.918 0 0 0-.915-.915Zm3.051-2.135a.915.915 0 0 0-.859.61H9.461v.61h6.768a.914.914 0 1 0 .86-1.22Z"/><path d="M12.817 11.746a.305.305 0 0 0-.305-.305H9.46v.61h3.05a.305.305 0 0 0 .306-.305Zm2.136-4.881V5.283a.915.915 0 1 0-.61 0v1.582a.305.305 0 0 1-.306.305H9.461v.61h4.576a.918.918 0 0 0 .916-.915Z"/></g><defs><clipPath id="a"><path fill="#fff" d="M0 0h18v18H0z"/></clipPath></defs></svg>