<svg xmlns="http://www.w3.org/2000/svg" width="70" height="70" fill="none"><rect width="51" height="51" x="60.5" y="60.5" stroke="#BEBEBE" stroke-dasharray="2.6 2.6" stroke-miterlimit="8.229" rx="25.5" transform="rotate(180 60.5 60.5)"/><g clip-path="url(#a)"><path fill="#BEBEBE" d="M28 35.75a.75.75 0 0 1 0-1.5v1.5Zm15.53-1.28a.75.75 0 0 1 0 1.06l-4.773 4.773a.75.75 0 0 1-1.06-1.06L41.939 35l-4.242-4.243a.75.75 0 0 1 1.06-1.06l4.773 4.773ZM28 35v-.75h15v1.5H28V35Z"/></g><defs><clipPath id="a"><path fill="#fff" d="M44 41H27V29h17z"/></clipPath></defs></svg>