<svg xmlns="http://www.w3.org/2000/svg" width="25" height="24" fill="none"><path fill="#D3D3D3" d="M23.218 10.5a2.102 2.102 0 0 0-1.5-.623 19.59 19.59 0 0 0-6.3 1.035l-.947.32c-.056.018-.09-.062-.038-.085l.9-.446a19.589 19.589 0 0 0 5.19-3.721 2.1 2.1 0 0 0 .623-1.472 2.14 2.14 0 0 0-2.096-2.152 2.102 2.102 0 0 0-1.528.624A19.589 19.589 0 0 0 13.8 9.169l-.445.9c-.028.051-.103.018-.084-.038l.318-.947a19.594 19.594 0 0 0 1.036-6.3c0-.567-.22-1.101-.623-1.5a2.103 2.103 0 0 0-1.5-.623c-.567 0-1.102.22-1.5.623a2.102 2.102 0 0 0-.623 1.5c0 2.147.346 4.266 1.036 6.3l.318.947c.019.056-.06.09-.084.038l-.445-.9a19.588 19.588 0 0 0-3.722-5.19 2.093 2.093 0 0 0-1.472-.623 2.134 2.134 0 0 0-2.152 2.096 2.1 2.1 0 0 0 .624 1.528A19.589 19.589 0 0 0 9.67 10.7l.9.446c.051.028.018.103-.038.084l-.947-.319a19.591 19.591 0 0 0-6.3-1.035c-.567 0-1.101.22-1.5.623a2.125 2.125 0 0 0 1.5 3.628c2.147 0 4.266-.347 6.3-1.036l.947-.319c.056-.018.09.061.038.085l-.9.445a19.587 19.587 0 0 0-5.19 3.722 2.093 2.093 0 0 0-.623 1.472 2.14 2.14 0 0 0 2.096 2.151 2.1 2.1 0 0 0 1.528-.623 19.588 19.588 0 0 0 3.721-5.19l.446-.9c.028-.05.103-.018.084.038l-.319.947a19.591 19.591 0 0 0-1.035 6.3c0 .568.22 1.102.623 1.5.403.403.933.624 1.5.624s1.101-.22 1.5-.624c.403-.403.623-.932.623-1.5 0-2.147-.347-4.265-1.036-6.3l-.318-.947c-.019-.056.06-.089.084-.037l.445.9a19.59 19.59 0 0 0 3.722 5.189c.399.398.919.619 1.472.623a2.14 2.14 0 0 0 2.152-2.095 2.102 2.102 0 0 0-.624-1.528 19.587 19.587 0 0 0-5.189-3.722l-.9-.445c-.051-.028-.018-.103.038-.085l.947.32a19.591 19.591 0 0 0 6.3 1.035c.567 0 1.101-.22 1.5-.623.83-.83.83-2.18 0-3.005Z"/></svg>