<svg xmlns="http://www.w3.org/2000/svg" width="52" height="32" fill="none"><path fill="#7EEA57" d="M45.866 21.333H5.332a1.067 1.067 0 0 1-1.066-1.066v-19.2C4.266.477 4.743 0 5.332 0h40.534c.588 0 1.066.478 1.066 1.067v19.2c0 .588-.478 1.066-1.066 1.066ZM6.399 19.2h38.4V2.133h-38.4V19.2Z"/><path fill="#7EEA57" d="M12.801 17.067A1.067 1.067 0 0 1 11.734 16V5.333a1.067 1.067 0 0 1 2.134 0V16c0 .589-.478 1.067-1.067 1.067Zm8.531 0A1.067 1.067 0 0 1 20.266 16V5.333a1.067 1.067 0 0 1 2.133 0V16c0 .589-.478 1.067-1.067 1.067Zm8.531 0A1.067 1.067 0 0 1 28.797 16V5.333a1.067 1.067 0 0 1 2.133 0V16c0 .589-.478 1.067-1.067 1.067Zm8.54 0A1.067 1.067 0 0 1 37.336 16V5.333a1.067 1.067 0 0 1 2.133 0V16c0 .589-.478 1.067-1.066 1.067Zm11.73 8.533H1.067a1.067 1.067 0 0 1 0-2.133h49.066a1.067 1.067 0 0 1 0 2.133Z"/><path fill="#7EEA57" d="M8.532 32a4.271 4.271 0 0 1-4.266-4.267 4.27 4.27 0 0 1 4.266-4.266 4.271 4.271 0 0 1 4.267 4.266A4.271 4.271 0 0 1 8.532 32Zm0-6.4A2.135 2.135 0 0 0 6.4 27.733c0 1.178.958 2.134 2.133 2.134a2.136 2.136 0 0 0 2.134-2.134A2.135 2.135 0 0 0 8.532 25.6Z"/><path fill="#7EEA57" d="M14.93 32a4.271 4.271 0 0 1-4.266-4.267 4.27 4.27 0 0 1 4.267-4.266 4.271 4.271 0 0 1 4.266 4.266A4.271 4.271 0 0 1 14.931 32Zm0-6.4a2.135 2.135 0 0 0-2.133 2.133c0 1.178.958 2.134 2.134 2.134a2.136 2.136 0 0 0 2.133-2.134 2.135 2.135 0 0 0-2.133-2.133ZM36.267 32A4.271 4.271 0 0 1 32 27.733a4.271 4.271 0 0 1 4.267-4.266 4.27 4.27 0 0 1 4.266 4.266A4.271 4.271 0 0 1 36.267 32Zm0-6.4a2.135 2.135 0 0 0-2.134 2.133c0 1.178.958 2.134 2.134 2.134a2.136 2.136 0 0 0 2.133-2.134 2.135 2.135 0 0 0-2.133-2.133Z"/><path fill="#7EEA57" d="M42.665 32a4.271 4.271 0 0 1-4.267-4.267 4.271 4.271 0 0 1 4.267-4.266 4.271 4.271 0 0 1 4.267 4.266A4.271 4.271 0 0 1 42.665 32Zm0-6.4a2.135 2.135 0 0 0-2.133 2.133c0 1.178.958 2.134 2.133 2.134a2.135 2.135 0 0 0 2.133-2.134 2.135 2.135 0 0 0-2.133-2.133Z"/></svg>