<svg xmlns="http://www.w3.org/2000/svg" width="107" height="26" fill="none"><path fill="#686868" d="M37.166 23.692c-2.447 0-4.355-.676-5.725-2.03-1.354-1.354-2.03-3.287-2.03-5.798V6.273h3.963v9.444c0 3.066 1.272 4.6 3.816 4.6 1.24 0 2.186-.368 2.838-1.102.653-.75.979-1.916.979-3.498V6.273h3.914v9.59c0 2.512-.684 4.445-2.055 5.799-1.353 1.354-3.254 2.03-5.7 2.03Zm9.689-8.709h6.925v3.058h-6.925v-3.058Zm11.637-5.481h-5.48v-3.23h14.924v3.23h-5.48V23.4h-3.964V9.502Zm23.058.734V23.4h-3.62v-1.566a5.198 5.198 0 0 1-1.81 1.321 5.83 5.83 0 0 1-2.276.44c-1.729 0-3.099-.497-4.11-1.492-1.011-.995-1.517-2.47-1.517-4.428v-7.438h3.816v6.875c0 2.12.89 3.18 2.667 3.18.914 0 1.648-.293 2.202-.88.555-.603.832-1.492.832-2.667v-6.508h3.817Zm5.958 1.738c.456-.636 1.068-1.117 1.835-1.444.782-.326 1.68-.489 2.69-.489v3.523a13.433 13.433 0 0 0-.856-.049c-1.092 0-1.949.31-2.569.93-.62.603-.93 1.517-.93 2.74v6.214h-3.816V10.237h3.646v1.737Zm13.572-1.934c1.631 0 2.944.49 3.939 1.469 1.011.978 1.517 2.43 1.517 4.354V23.4h-3.817v-6.95c0-1.044-.228-1.82-.685-2.325-.456-.522-1.117-.783-1.982-.783-.961 0-1.728.302-2.299.906-.57.587-.856 1.468-.856 2.642v6.508H93.08V10.236h3.645v1.542a4.942 4.942 0 0 1 1.885-1.273c.75-.31 1.573-.465 2.47-.465Z"/><path fill="#686868" fill-rule="evenodd" d="M12.36 1.822a1.666 1.666 0 0 1 2.357 0l6.094 6.095-6.122 5.844a1.667 1.667 0 0 1-2.302-2.41l1.88-1.795h-4.062a5.889 5.889 0 1 0 0 11.778h8.222a1.667 1.667 0 1 1 0 3.333h-8.222a9.222 9.222 0 0 1 0-18.444h4.198L12.36 4.178a1.667 1.667 0 0 1 0-2.357Z" clip-rule="evenodd"/></svg>