<svg xmlns="http://www.w3.org/2000/svg" width="86" height="30" fill="none"><mask id="a" width="86" height="28" x="0" y="1" maskUnits="userSpaceOnUse" style="mask-type:luminance"><path fill="#fff" d="M85.982 1H.115v28h85.867V1Z"/></mask><g fill="#686868" mask="url(#a)"><path d="M32.944 21.296h-7.431V8.053h7.036c1.015 0 1.851.119 2.51.356.672.224 1.173.58 1.502 1.067.33.475.494 1.087.494 1.838 0 .83-.224 1.49-.672 1.977-.448.487-1.126.77-2.035.85v.257c1.12.04 1.95.362 2.49.968.553.606.83 1.357.83 2.253 0 .765-.171 1.423-.514 1.977-.33.553-.843.975-1.542 1.265-.698.29-1.587.435-2.668.435Zm-3.716-5.317v1.976h3.578c.356 0 .626-.052.81-.158.185-.105.277-.375.277-.81 0-.448-.086-.725-.257-.83-.171-.119-.448-.178-.83-.178h-3.578Zm0-4.586v1.7h3.123c.383 0 .64-.06.771-.178.145-.118.218-.342.218-.672 0-.355-.086-.586-.257-.691-.158-.106-.429-.159-.81-.159h-3.045Zm14.04 10.1c-1.093 0-2.029-.204-2.806-.612a4.318 4.318 0 0 1-1.76-1.78c-.395-.777-.593-1.706-.593-2.786 0-1.12.205-2.082.613-2.886a4.181 4.181 0 0 1 1.799-1.838c.79-.435 1.746-.652 2.866-.652 1.093 0 2.002.197 2.727.593.738.395 1.285.942 1.64 1.64.37.685.554 1.483.554 2.392 0 .277-.02.553-.06.83-.039.277-.072.5-.098.672h-8.46V15.05h5.239l-.159.099a1.236 1.236 0 0 0-.118-.633c-.08-.197-.238-.355-.475-.474-.224-.119-.553-.178-.988-.178-.606 0-1.028.112-1.265.336-.237.21-.355.553-.355 1.028v1.403c0 .488.039.863.118 1.127.079.25.244.421.494.514.25.092.633.138 1.147.138.447 0 .757-.046.928-.138.172-.106.257-.27.257-.495v-.04h3.677v.238c0 .685-.205 1.291-.613 1.818-.395.527-.962.943-1.7 1.246-.724.303-1.594.454-2.609.454Zm9.563-.197h-3.696v-10.16h3.46v2.886l.236.099v7.175Zm0-6.424h-.75v-2.194h.691c.29-.5.672-.916 1.146-1.245.488-.33 1.068-.494 1.74-.494.659 0 1.179.132 1.561.395.382.264.659.64.83 1.127.172.487.257 1.067.257 1.739v1.838H54.59V15.03c0-.382-.052-.639-.158-.77-.105-.132-.33-.198-.672-.198-.303 0-.533.046-.691.138-.159.08-.238.303-.238.672Zm9.825 6.424H58.96V8.053h3.696v13.243Zm4.883-11.069h-3.696V8.053h3.696v2.174Zm.02 11.069h-3.716v-10.16h3.716v10.16Zm11.76 0h-3.715v-5.732c0-.54-.099-.916-.296-1.127-.185-.21-.607-.316-1.266-.316-.408 0-.73.04-.968.119a.862.862 0 0 0-.494.415c-.092.197-.138.48-.138.85h-.593v-2.827h.533a2.6 2.6 0 0 1 .771-.949c.33-.263.712-.46 1.146-.592a4.816 4.816 0 0 1 1.404-.198c.883 0 1.587.178 2.115.534.527.342.909.81 1.146 1.403.237.58.356 1.219.356 1.917v6.503Zm-6.877 0h-3.696v-10.16h3.459v2.787l.237.1v7.273Zm12.408 0h-4.427v-4.092h4.427v4.092ZM18.233 5.118H1.763c-.91 0-1.648.737-1.648 1.647v16.47c0 .91.738 1.647 1.647 1.647h16.47c.91 0 1.648-.737 1.648-1.647V6.765c0-.91-.738-1.647-1.647-1.647ZM15.762 3.47H4.232a.824.824 0 0 1-.823-.823v-.823c0-.455.369-.824.824-.824h11.53c.454 0 .823.369.823.824v.823a.824.824 0 0 1-.824.824Zm0 25.53H4.232a.824.824 0 0 1-.823-.824v-.823c0-.455.369-.824.824-.824h11.53c.454 0 .823.369.823.824v.823a.824.824 0 0 1-.824.824Z"/><path fill-rule="evenodd" d="M16.634 12.58a.823.823 0 0 1 0 1.164l-6.467 6.468a.824.824 0 0 1-1.165 0l-4.82-4.82a.824.824 0 0 1 0-1.165l1.747-1.747a.824.824 0 0 1 1.164 0l2.492 2.49 4.138-4.138a.823.823 0 0 1 1.164 0l1.747 1.747Z" clip-rule="evenodd"/></g></svg>