<svg xmlns="http://www.w3.org/2000/svg" width="42" height="42" fill="none"><g fill="#7EEA57" clip-path="url(#a)"><path d="M33.25 22.75a.866.866 0 0 1-.563-.206c-.335-.28-8.187-6.98-8.187-13.794C24.5 3.925 28.425 0 33.25 0S42 3.925 42 8.75c0 6.815-7.852 13.514-8.187 13.794a.866.866 0 0 1-.563.206Zm0-21c-3.86 0-7 3.14-7 7 0 5.019 5.245 10.318 7 11.949 1.755-1.633 7-6.93 7-11.949 0-3.86-3.14-7-7-7Z"/><path d="M33.25 12.25c-1.93 0-3.5-1.57-3.5-3.5s1.57-3.5 3.5-3.5 3.5 1.57 3.5 3.5-1.57 3.5-3.5 3.5Zm0-5.25c-.964 0-1.75.784-1.75 1.75s.786 1.75 1.75 1.75S35 9.716 35 8.75 34.214 7 33.25 7Zm-28 33.25a.877.877 0 0 1-.581-.22C4.48 39.86 0 35.849 0 31.718c0-3.016 2.356-5.469 5.25-5.469 2.895 0 5.25 2.453 5.25 5.469 0 4.13-4.48 8.142-4.669 8.31a.877.877 0 0 1-.581.221Zm0-12.25c-1.93 0-3.5 1.668-3.5 3.719 0 2.56 2.373 5.286 3.5 6.438 1.127-1.15 3.5-3.878 3.5-6.438C8.75 29.668 7.18 28 5.25 28Z"/><path d="M27.85 42H5.25a.875.875 0 0 1 0-1.75h22.6a.854.854 0 0 0 .815-.558.858.858 0 0 0-.227-.965l-12.551-11.41a2.61 2.61 0 0 1-.683-2.889 2.605 2.605 0 0 1 2.447-1.678H33.25a.875.875 0 0 1 0 1.75h-15.6a.854.854 0 0 0-.815.558.858.858 0 0 0 .227.965l12.551 11.41a2.61 2.61 0 0 1 .683 2.889A2.605 2.605 0 0 1 27.849 42Zm-22.6-8.75c-.964 0-1.75-.784-1.75-1.75s.786-1.75 1.75-1.75S7 30.534 7 31.5s-.786 1.75-1.75 1.75Z"/></g><defs><clipPath id="a"><path fill="#fff" d="M0 0h42v42H0z"/></clipPath></defs></svg>