<svg xmlns="http://www.w3.org/2000/svg" width="121" height="20" fill="none"><path fill="#212121" fill-rule="evenodd" d="M3.458 18.82c-1.586.697-2.639.9-2.639.9a.689.689 0 0 1-.264-1.35s.86-.172 2.182-.737c.001.348.015.544.015.544a.688.688 0 0 0 .62.636l.086.007Z" clip-rule="evenodd"/><path fill="#7EEA57" fill-rule="evenodd" d="M5.56 6.582c-1.29 1.56-2.139 3.268-2.696 4.883-1.61-2.126-1.78-4.655-1.473-6.78C1.743 2.25 2.721.372 2.721.372a.685.685 0 0 1 .8-.344c2.676.774 4.602 1.926 5.987 3.248a14.512 14.512 0 0 0-2.92 2.192 19.039 19.039 0 0 1-.22-.581.688.688 0 0 0-1.293.465c.15.42.313.83.485 1.23Z" clip-rule="evenodd"/><path fill="#212121" fill-rule="evenodd" d="M2.734 17.633c-.004-1.81.343-7.74 4.806-11.805 2.27-2.068 5.605-3.668 10.52-3.97a.688.688 0 0 1 .706.512s.848 3.2.341 6.772c-.346 2.437-1.32 5.035-3.562 6.951-2.342 2.002-6.101 3.282-12.09 2.727 2.574-1.132 6.555-3.57 9.727-8.573a.689.689 0 0 0-1.16-.737c-3.062 4.829-6.918 7.108-9.288 8.123Z" clip-rule="evenodd"/><path fill="#212121" d="M27.547 1.699h3.196L36.3 15.267h.204l5.557-13.568h3.196v17.454h-2.506V6.523h-.161l-5.148 12.605h-2.08L30.214 6.514h-.161v12.64h-2.506V1.698ZM48.88 19.153V6.063h2.549v13.09H48.88Zm1.287-15.11a1.62 1.62 0 0 1-1.142-.444 1.441 1.441 0 0 1-.469-1.073c0-.42.157-.779.47-1.074A1.603 1.603 0 0 1 50.167 1c.444 0 .821.15 1.134.452.318.295.477.653.477 1.074 0 .414-.159.772-.477 1.073a1.59 1.59 0 0 1-1.134.444Zm15.889 2.02-4.747 13.09h-2.728l-4.755-13.09h2.736l3.315 10.073h.136L63.32 6.063h2.736Zm7.464 13.355c-1.228 0-2.299-.282-3.213-.844-.915-.563-1.626-1.35-2.131-2.36-.506-1.012-.759-2.194-.759-3.546 0-1.358.253-2.546.759-3.563.505-1.017 1.216-1.807 2.13-2.37.915-.562 1.986-.843 3.214-.843 1.227 0 2.298.281 3.213.844.915.562 1.625 1.352 2.13 2.37.506 1.016.759 2.204.759 3.562 0 1.352-.253 2.534-.759 3.545-.505 1.011-1.216 1.798-2.13 2.36-.915.563-1.986.845-3.213.845Zm.008-2.14c.796 0 1.455-.21 1.977-.63.523-.42.91-.98 1.16-1.68.255-.698.383-1.468.383-2.309 0-.835-.128-1.602-.384-2.301-.25-.705-.636-1.27-1.159-1.696-.522-.426-1.181-.64-1.977-.64-.801 0-1.466.214-1.994.64-.523.426-.912.991-1.168 1.696a6.789 6.789 0 0 0-.375 2.301c0 .841.125 1.61.375 2.31.256.699.645 1.258 1.168 1.679.528.42 1.193.63 1.994.63Zm8.938 1.875V6.063h2.463v2.079h.137a3.164 3.164 0 0 1 1.261-1.662 3.61 3.61 0 0 1 2.063-.614 10.895 10.895 0 0 1 1.082.06v2.438a4.573 4.573 0 0 0-.545-.094 5.202 5.202 0 0 0-.784-.06c-.603 0-1.14.128-1.611.384a2.85 2.85 0 0 0-1.517 2.565v7.994h-2.549Zm12.904.29c-.83 0-1.58-.153-2.25-.46a3.79 3.79 0 0 1-1.594-1.355c-.386-.591-.58-1.316-.58-2.174 0-.738.142-1.346.427-1.823a3.144 3.144 0 0 1 1.15-1.134 6.004 6.004 0 0 1 1.62-.63c.596-.143 1.204-.25 1.823-.324l1.91-.222c.488-.063.843-.162 1.065-.298.22-.137.332-.358.332-.665v-.06c0-.744-.21-1.32-.63-1.73-.415-.409-1.035-.613-1.859-.613-.857 0-1.534.19-2.028.57-.489.376-.827.793-1.014 1.253l-2.395-.545c.284-.795.699-1.438 1.244-1.926a5.048 5.048 0 0 1 1.9-1.074 7.421 7.421 0 0 1 2.26-.34 7.96 7.96 0 0 1 1.66.187 4.85 4.85 0 0 1 1.655.664c.517.324.94.787 1.27 1.39.329.596.494 1.372.494 2.326v8.693h-2.49v-1.79h-.101a3.64 3.64 0 0 1-.741.972c-.33.318-.753.583-1.27.793-.517.21-1.137.315-1.858.315Zm.554-2.045c.704 0 1.306-.14 1.806-.418.506-.278.89-.642 1.15-1.09a2.83 2.83 0 0 0 .402-1.458v-1.688c-.091.091-.267.176-.53.256-.254.074-.547.14-.877.196-.33.051-.65.1-.963.145l-.784.102a6.32 6.32 0 0 0-1.355.316c-.403.147-.727.36-.971.639-.24.272-.358.636-.358 1.09 0 .631.233 1.109.699 1.432.465.319 1.06.478 1.78.478Zm10.092-15.166v-1.06h5.571v1.06h-2.158v5.921h-1.255V2.232h-2.158Zm6.933-1.06h1.547l2.073 5.058h.082l2.073-5.059h1.547v6.982h-1.213V3.357h-.065l-1.93 4.776h-.907l-1.929-4.787h-.065v4.807h-1.213V1.171Z"/></svg>