<svg xmlns="http://www.w3.org/2000/svg" width="91" height="20" fill="none"><g fill="#686868" clip-path="url(#a)"><path d="M88.497 20c-.734 0-1.337-.214-1.81-.643a2.191 2.191 0 0 1-.684-1.631c0-.66.228-1.212.685-1.657.472-.445 1.075-.667 1.81-.667.716 0 1.303.222 1.76.667.473.445.709.998.709 1.657a2.15 2.15 0 0 1-.71 1.631c-.456.429-1.043.643-1.76.643Zm-19.384-7.12c0-1.417.261-2.662.783-3.733.538-1.071 1.263-1.895 2.176-2.472.913-.577 1.932-.865 3.057-.865.962 0 1.801.197 2.518.593.734.395 1.296.915 1.688 1.557V6.007h4.181v13.795h-4.181V17.85c-.408.643-.978 1.162-1.712 1.558-.717.395-1.557.593-2.519.593a5.562 5.562 0 0 1-3.032-.865c-.913-.594-1.638-1.426-2.176-2.497-.522-1.088-.783-2.34-.783-3.758Zm10.222.025c0-1.055-.294-1.887-.88-2.497a2.768 2.768 0 0 0-2.103-.915c-.832 0-1.541.305-2.128.915-.57.593-.856 1.417-.856 2.472s.285 1.895.856 2.522c.587.61 1.296.914 2.127.914.832 0 1.533-.305 2.103-.914.587-.61.88-1.442.88-2.497ZM66.914 1.508v18.294h-4.182V1.508h4.182Zm-9.29 3.066c-.734 0-1.337-.215-1.81-.643a2.19 2.19 0 0 1-.684-1.632c0-.66.228-1.203.685-1.632C56.287.222 56.89 0 57.624 0c.717 0 1.304.222 1.76.667.474.429.71.973.71 1.632 0 .643-.236 1.187-.71 1.632-.456.428-1.043.643-1.76.643Zm2.078 1.433v13.795h-4.18V6.007h4.18Zm-12.344-.148c1.598 0 2.87.527 3.815 1.582.962 1.038 1.442 2.472 1.442 4.302v8.059h-4.157v-7.49c0-.924-.236-1.64-.709-2.151-.472-.511-1.108-.767-1.907-.767-.799 0-1.434.256-1.907.767-.473.51-.71 1.227-.71 2.15v7.491h-4.181V6.007h4.181v1.83a4.329 4.329 0 0 1 1.712-1.434c.718-.363 1.525-.544 2.421-.544ZM21.616 12.88c0-1.417.261-2.662.783-3.733.538-1.071 1.263-1.895 2.176-2.472.913-.577 1.932-.865 3.057-.865.962 0 1.801.197 2.518.593.734.395 1.297.915 1.688 1.557V6.007h4.181v13.795h-4.181V17.85c-.408.643-.978 1.162-1.712 1.558-.717.395-1.557.593-2.519.593a5.56 5.56 0 0 1-3.032-.865c-.913-.594-1.638-1.426-2.176-2.497-.522-1.088-.783-2.34-.783-3.758Zm10.222.025c0-1.055-.294-1.887-.88-2.497a2.768 2.768 0 0 0-2.104-.915c-.831 0-1.54.305-2.127.915-.57.593-.856 1.417-.856 2.472s.285 1.895.856 2.522c.587.61 1.296.914 2.127.914.832 0 1.533-.305 2.103-.914.587-.61.88-1.442.88-2.497ZM19.44 2.447v17.355h-4.18V9.394l-3.84 10.408H8.046L4.181 9.369v10.433H0V2.447h4.94l4.817 12.015 4.768-12.015h4.915Z"/></g><defs><clipPath id="a"><path fill="#fff" d="M0 0h91v20H0z"/></clipPath></defs></svg>