<svg xmlns="http://www.w3.org/2000/svg" width="156" height="31" fill="none"><g fill="#686868" clip-path="url(#a)"><path d="M0 14.207h20c0-8-3.444-10-5.167-10H0v10Zm20 6H0c0 8 3.444 10 5.167 10H20v-10ZM52.6 3.754V30.16h-5.28V12.985L40.263 30.16h-3.999l-7.092-17.175V30.16H23.89V3.754h5.998l8.376 19.634L46.64 3.754h5.96Zm3.865 15.851c0-2.118.415-3.997 1.245-5.636.855-1.64 2-2.9 3.433-3.784 1.459-.882 3.081-1.324 4.867-1.324 1.56 0 2.917.316 4.075.946 1.181.63 2.125 1.425 2.829 2.383V9.203h5.32V30.16h-5.32v-3.064c-.68.983-1.622 1.803-2.83 2.459-1.182.63-2.553.946-4.112.946-1.76 0-3.37-.454-4.829-1.362-1.434-.908-2.578-2.182-3.433-3.821-.83-1.665-1.245-3.569-1.245-5.713Zm16.449.076c0-1.286-.252-2.383-.755-3.291-.503-.934-1.182-1.64-2.037-2.119a5.329 5.329 0 0 0-2.754-.757c-.98 0-1.886.24-2.716.72-.83.479-1.51 1.185-2.038 2.118-.502.908-.754 1.992-.754 3.253 0 1.261.252 2.371.755 3.33.527.933 1.207 1.651 2.037 2.156.855.504 1.76.756 2.716.756.98 0 1.9-.24 2.754-.718a5.498 5.498 0 0 0 2.037-2.119c.503-.933.755-2.043.755-3.329Zm9.121-.077c0-2.118.415-3.997 1.245-5.637.856-1.639 2.012-2.9 3.471-3.783 1.46-.882 3.081-1.324 4.867-1.324 1.358 0 2.654.303 3.886.908 1.232.58 2.213 1.362 2.943 2.346v-9.95h5.357V30.16h-5.357v-3.102c-.654 1.034-1.572 1.866-2.754 2.497-1.183.63-2.553.946-4.113.946-1.76 0-3.37-.454-4.829-1.363-1.459-.907-2.615-2.181-3.47-3.82-.83-1.665-1.246-3.57-1.246-5.713Zm16.45.076c0-1.287-.252-2.384-.755-3.291-.503-.934-1.182-1.64-2.037-2.119a5.334 5.334 0 0 0-2.755-.757c-.98 0-1.886.24-2.716.72-.83.478-1.509 1.184-2.037 2.118-.503.908-.755 1.992-.755 3.253 0 1.261.252 2.37.755 3.33.528.932 1.207 1.651 2.037 2.156a5.263 5.263 0 0 0 2.716.756 5.55 5.55 0 0 0 2.755-.718 5.497 5.497 0 0 0 2.037-2.12c.503-.932.754-2.042.754-3.328Zm15.758-7.226a7.489 7.489 0 0 1 2.641-2.61c1.107-.63 2.364-.946 3.773-.946v5.562h-1.396c-1.66 0-2.918.39-3.773 1.172-.83.782-1.245 2.144-1.245 4.086V30.16h-5.282V9.2h5.282v3.253Zm12.65-5.75c-.931 0-1.71-.29-2.339-.87-.604-.605-.906-1.35-.906-2.232 0-.883.302-1.614.906-2.194.629-.605 1.408-.908 2.339-.908s1.698.303 2.301.908c.629.58.944 1.311.944 2.194s-.315 1.627-.944 2.232c-.603.58-1.37.87-2.301.87Zm2.603 2.497V30.16h-5.282V9.2h5.282Zm3.859 10.403c0-2.118.415-3.997 1.245-5.637.856-1.639 2.013-2.9 3.471-3.783 1.459-.882 3.081-1.324 4.867-1.324 1.358 0 2.654.303 3.886.908 1.232.58 2.213 1.362 2.943 2.346v-9.95h5.357V30.16h-5.357v-3.102c-.654 1.034-1.572 1.866-2.754 2.497-1.182.63-2.553.946-4.113.946-1.76 0-3.37-.454-4.829-1.363-1.458-.907-2.615-2.181-3.471-3.82-.83-1.665-1.245-3.57-1.245-5.713Zm16.449.076c0-1.287-.251-2.384-.754-3.291-.503-.934-1.182-1.64-2.037-2.119a5.333 5.333 0 0 0-2.754-.757 5.34 5.34 0 0 0-2.717.72c-.83.478-1.509 1.184-2.037 2.118-.503.908-.755 1.992-.755 3.253 0 1.261.252 2.37.755 3.33.528.932 1.207 1.651 2.037 2.156a5.264 5.264 0 0 0 2.717.756c.98 0 1.898-.24 2.754-.718a5.497 5.497 0 0 0 2.037-2.12c.503-.932.754-2.042.754-3.328Z"/></g><defs><clipPath id="a"><path fill="#fff" d="M0 0h156v31H0z"/></clipPath></defs></svg>