<svg xmlns="http://www.w3.org/2000/svg" width="36" height="30" fill="none"><path fill="#7B7B7B" d="M8.938 22.043c.118 5.692 18.007 5.693 18.124 0 0-1.833-2.239-3.369-5.684-3.994 2.367-2.532 5.285-6.226 5.285-9.062-.475-11.489-16.85-11.492-17.326 0 0 2.835 2.918 6.53 5.285 9.062-3.445.625-5.684 2.16-5.684 3.994Zm16.874 0c0 1.44-3.208 3.046-7.812 3.046s-7.813-1.605-7.813-3.046c0-1.082 1.928-2.439 5.497-2.893a42.732 42.732 0 0 0 1.903 1.806.625.625 0 0 0 .826 0c.1-.087.87-.77 1.903-1.806 3.57.454 5.497 1.81 5.497 2.893ZM18 1.575a7.421 7.421 0 0 1 7.413 7.412c0 2.567-3.205 6.438-5.717 9.01-2.045 2.007-1.34 2.02-3.391.001-2.513-2.572-5.718-6.443-5.718-9.01A7.42 7.42 0 0 1 18 1.574Z"/><path fill="#7B7B7B" d="M26.59 15.087a.625.625 0 0 0-.304 1.212C41.949 20.662 31.988 28.92 18 28.75c-13.987.17-23.95-8.087-8.285-12.45a.625.625 0 1 0-.306-1.212C3.831 16.49.5 19.09.5 22.043.5 26.505 8.187 30 18 30c9.813 0 17.5-3.495 17.5-7.957 0-2.953-3.33-5.554-8.91-6.956Z"/><path fill="#7B7B7B" d="M17.372 13.257v1.224a.625.625 0 0 0 1.25 0v-1.224a4.322 4.322 0 0 0 3.645-3.645h1.224a.625.625 0 1 0 0-1.25h-1.224a4.322 4.322 0 0 0-3.645-3.644V3.494a.625.625 0 0 0-1.25 0v1.224a4.323 4.323 0 0 0-3.644 3.644h-1.224a.625.625 0 0 0 0 1.25h1.224a4.323 4.323 0 0 0 3.644 3.645Zm.621-7.34c4.06.123 4.063 6.014.004 6.14-4.053-.126-4.057-6.007-.004-6.14Z"/></svg>