<svg xmlns="http://www.w3.org/2000/svg" width="70" height="70" fill="none"><rect width="51" height="51" x="9.5" y="9.5" stroke="#BEBEBE" stroke-dasharray="2.6 2.6" stroke-miterlimit="8.229" rx="25.5"/><g clip-path="url(#a)"><path fill="#BEBEBE" d="M42 34.25a.75.75 0 0 1 0 1.5v-1.5Zm-15.53 1.28a.75.75 0 0 1 0-1.06l4.773-4.773a.75.75 0 0 1 1.06 1.06L28.061 35l4.242 4.243a.75.75 0 0 1-1.06 1.06L26.47 35.53ZM42 35v.75H27v-1.5h15V35Z"/></g><defs><clipPath id="a"><path fill="#fff" d="M26 29h17v12H26z"/></clipPath></defs></svg>