<svg xmlns="http://www.w3.org/2000/svg" width="12" height="22" fill="none"><path fill="#212121" d="M3.51 12.351H.938c-.416 0-.546-.156-.546-.546V8.66c0-.416.156-.546.546-.546H3.51V5.825c0-1.04.182-2.028.702-2.938.546-.936 1.326-1.56 2.314-1.924.65-.234 1.3-.338 2.002-.338h2.548c.364 0 .52.156.52.52V4.11c0 .364-.156.52-.52.52-.702 0-1.404 0-2.106.026-.702 0-1.066.338-1.066 1.066-.026.78 0 1.534 0 2.34h3.016c.416 0 .572.156.572.572v3.147c0 .415-.13.546-.572.546H7.905v8.476c0 .442-.13.598-.598.598h-3.25c-.39 0-.546-.156-.546-.546v-8.502Z"/></svg>