<svg xmlns="http://www.w3.org/2000/svg" viewBox="0 0 100 60" fill="#232F3E"><path d="M28.4 22.7c0 .9.1 1.6.3 2.1.2.5.5 1.1.9 1.7.1.2.2.4.2.5 0 .2-.1.4-.4.7l-1.2.8c-.2.1-.3.2-.5.2-.2 0-.4-.1-.6-.3-.3-.3-.5-.6-.7-.9-.2-.3-.4-.7-.6-1.2-1.5 1.8-3.4 2.7-5.7 2.7-1.6 0-2.9-.5-3.9-1.4-1-.9-1.5-2.2-1.5-3.7 0-1.6.6-3 1.8-3.9 1.2-1 2.7-1.5 4.7-1.5.7 0 1.3.1 2 .1.7.1 1.4.2 2.2.4v-1.4c0-1.5-.3-2.5-1-3.1-.6-.6-1.7-.9-3.3-.9-.7 0-1.4.1-2.2.3-.8.2-1.5.4-2.2.8-.3.2-.6.2-.7.3-.1 0-.2.1-.3.1-.3 0-.4-.2-.4-.6v-1c0-.3 0-.6.1-.7.1-.1.3-.3.6-.4.7-.4 1.5-.7 2.5-.9 1-.3 2-.4 3.1-.4 2.4 0 4.1.5 5.2 1.6 1.1 1.1 1.6 2.7 1.6 4.9v6.4zm-7.9 3c.6 0 1.3-.1 2-.4.7-.2 1.3-.7 1.8-1.3.3-.4.5-.8.6-1.3.1-.5.2-1.1.2-1.8v-.9c-.6-.1-1.2-.2-1.8-.3-.6-.1-1.2-.1-1.8-.1-1.3 0-2.2.2-2.8.7-.6.5-1 1.2-1 2.1 0 .9.2 1.5.7 2 .5.5 1.2.7 2.1.7v.6zm15.5 2.1c-.4 0-.6-.1-.8-.2-.2-.2-.3-.4-.5-.8L30.2 14c-.2-.5-.3-.8-.3-.9 0-.4.2-.6.6-.6h1.9c.4 0 .7.1.8.2.2.2.3.4.5.8l3.3 13.2 3.1-13.2c.1-.5.3-.7.5-.8.2-.2.5-.2.8-.2h1.6c.4 0 .6.1.8.2.2.2.3.4.5.8l3.1 13.4 3.5-13.4c.2-.5.3-.7.5-.8.2-.2.5-.2.8-.2h1.8c.4 0 .6.2.6.6 0 .1 0 .3-.1.4 0 .2-.1.3-.2.6l-4.8 12.8c-.2.5-.3.7-.5.8-.2.2-.5.2-.8.2h-1.7c-.4 0-.6-.1-.8-.2-.2-.2-.3-.4-.5-.8L42.3 15l-3 12c-.1.5-.3.7-.5.8-.2.2-.5.2-.8.2h-1.8l-1.2.1zm24.8.6c-1 0-2-.1-2.9-.4-.9-.3-1.7-.6-2.1-1-.3-.2-.5-.4-.5-.6 0-.3.1-.5.4-.5.1 0 .3 0 .5.1.2.1.5.2.7.3.8.3 1.5.6 2.3.7.8.2 1.6.3 2.3.3 1.2 0 2.2-.2 2.8-.7.6-.5 1-1.1 1-2 0-.6-.2-1.1-.6-1.5-.4-.4-1.1-.7-2.2-1l-2.2-.6c-1.6-.5-2.7-1.1-3.4-2-.7-.8-1-1.8-1-2.9 0-.8.2-1.6.5-2.2.4-.7.8-1.2 1.4-1.7.6-.4 1.3-.8 2.1-1 .8-.2 1.7-.3 2.6-.3.5 0 .9 0 1.4.1.5.1 1 .2 1.4.3.4.1.8.3 1.2.4.3.2.6.3.8.5.2.2.4.3.5.5.1.2.1.3.1.5 0 .3-.1.5-.4.5-.1 0-.4-.1-.7-.3-1.2-.5-2.5-.8-3.9-.8-1.1 0-2 .2-2.6.6-.6.4-.9 1-.9 1.8 0 .6.2 1.1.7 1.5.5.4 1.3.8 2.4 1.1l2.2.6c1.5.4 2.7 1.1 3.3 1.9.6.8 1 1.7 1 2.8 0 .8-.2 1.6-.5 2.2-.4.7-.8 1.3-1.5 1.7-.6.5-1.4.8-2.2 1-.9.3-1.8.4-2.8.4z"/><path d="M57.4 46.6c-7.2 5.3-17.6 8.2-26.6 8.2-12.6 0-23.9-4.6-32.5-12.4-.7-.6-.1-1.4.7-.9 9.3 5.4 20.7 8.6 32.5 8.6 8 0 16.7-1.6 24.8-5 1.2-.6 2.2.8 1.1 1.5z" fill="#FF9900"/><path d="M60.3 43.3c-.9-1.2-6.2-.6-8.5-.3-.7.1-.8-.5-.2-1 4.2-2.9 11-2.1 11.8-1.1.8 1-2.1 7.9-4.1 11.2-.5.7-1 .3-.8-.6.7-1.9 2.6-7.1 1.8-8.2z" fill="#FF9900"/></svg>
