<svg xmlns="http://www.w3.org/2000/svg" viewBox="0 0 200 32" fill="#C74634"><path d="M163.3 1.2h8.4L183.1 22 194.5 1.2H203V31h-6.4V10.8L185.7 31h-5.2l-10.8-20.2V31h-6.4V1.2zm-26.2 0h24.8v5.6h-18.5v6.1h17.1v5.4h-17.1v7.1h19v5.6h-25.3V1.2zM113.2 31l-8.2-11.8h-6.7V31H92V1.2h18.6c7.5 0 12.4 4.7 12.4 10.3 0 4.2-2.3 7.5-6.4 9l9 10.5h-12.4zm-3.6-24.4h-11.3v8h11.3c3.3 0 5.5-1.7 5.5-4s-2.2-4-5.5-4zm-42.8-5.4h6.7L86.6 31H80l-3-6.5H61.3L58.2 31h-6.5l13.1-29.8zm5.8 19.1l-5.8-13-5.8 13h11.6zM16 25.4c5.2 0 9.4-4.2 9.4-9.4S21.2 6.6 16 6.6H6.4v18.8H16zM0 1.2h16.6c8.4 0 15.2 6.5 15.2 14.8S25 30.8 16.6 30.8H0V1.2z"/></svg>
