<svg xmlns="http://www.w3.org/2000/svg" viewBox="0 0 54 54"><path d="M19.7.6c-2.8 0-5 2.3-5 5s2.3 5 5 5h5V5.6c0-2.8-2.2-5-5-5m0 13.3H5.6c-2.8 0-5 2.3-5 5s2.3 5 5 5h14.1c2.8 0 5-2.3 5-5s-2.2-5-5-5" fill="#36C5F0"/><path d="M53.4 18.9c0-2.8-2.3-5-5-5s-5 2.3-5 5v5h5c2.8 0 5-2.2 5-5m-13.3 0V4.8c0-2.8-2.3-5-5-5s-5 2.3-5 5v14.1c0 2.8 2.3 5 5 5s5-2.2 5-5" fill="#2EB67D"/><path d="M35.1 53.4c2.8 0 5-2.3 5-5s-2.3-5-5-5h-5v5c0 2.8 2.2 5 5 5m0-13.3h14.1c2.8 0 5-2.3 5-5s-2.3-5-5-5H35.1c-2.8 0-5 2.3-5 5s2.2 5 5 5" fill="#ECB22E"/><path d="M.6 35.1c0 2.8 2.3 5 5 5s5-2.3 5-5v-5h-5c-2.8 0-5 2.2-5 5m13.3 0v14.1c0 2.8 2.3 5 5 5s5-2.3 5-5V35.1c0-2.8-2.3-5-5-5s-5 2.2-5 5" fill="#E01E5A"/></svg>
